G04*
G04 #@! TF.GenerationSoftware,Altium Limited,Altium Designer,19.1.9 (167)*
G04*
G04 Layer_Color=65535*
%FSLAX25Y25*%
%MOIN*%
G70*
G01*
G75*
%ADD10C,0.00600*%
%ADD11C,0.00631*%
%ADD12C,0.00787*%
D10*
X284200Y132800D02*
X283500Y133500D01*
X282800Y132800D01*
X283500Y132100D01*
X284200Y132800D01*
X299900Y169199D02*
X301899Y166200D01*
Y169199D02*
X299900Y166200D01*
X302899Y168699D02*
X303399Y169199D01*
X304398D01*
X304898Y168699D01*
Y168199D01*
X304398Y167700D01*
X303899D01*
X304398D01*
X304898Y167200D01*
Y166700D01*
X304398Y166200D01*
X303399D01*
X302899Y166700D01*
X296400Y92099D02*
X297400D01*
X296900D01*
Y89100D01*
X296400D01*
X297400D01*
X300899Y91599D02*
X300399Y92099D01*
X299399D01*
X298899Y91599D01*
Y89600D01*
X299399Y89100D01*
X300399D01*
X300899Y89600D01*
X303398Y89100D02*
Y92099D01*
X301898Y90600D01*
X303898D01*
X211399Y150599D02*
X210899Y151099D01*
X209900D01*
X209400Y150599D01*
Y150099D01*
X209900Y149600D01*
X210899D01*
X211399Y149100D01*
Y148600D01*
X210899Y148100D01*
X209900D01*
X209400Y148600D01*
X212399Y148100D02*
X213399D01*
X212899D01*
Y151099D01*
X212399Y150599D01*
X210899Y91599D02*
X210400Y92099D01*
X209400D01*
X208900Y91599D01*
Y91099D01*
X209400Y90600D01*
X210400D01*
X210899Y90100D01*
Y89600D01*
X210400Y89100D01*
X209400D01*
X208900Y89600D01*
X213898Y89100D02*
X211899D01*
X213898Y91099D01*
Y91599D01*
X213399Y92099D01*
X212399D01*
X211899Y91599D01*
X210899Y32499D02*
X210400Y32999D01*
X209400D01*
X208900Y32499D01*
Y31999D01*
X209400Y31499D01*
X210400D01*
X210899Y31000D01*
Y30500D01*
X210400Y30000D01*
X209400D01*
X208900Y30500D01*
X211899Y32499D02*
X212399Y32999D01*
X213399D01*
X213898Y32499D01*
Y31999D01*
X213399Y31499D01*
X212899D01*
X213399D01*
X213898Y31000D01*
Y30500D01*
X213399Y30000D01*
X212399D01*
X211899Y30500D01*
X131799Y150599D02*
X131299Y151099D01*
X130300D01*
X129800Y150599D01*
Y150099D01*
X130300Y149600D01*
X131299D01*
X131799Y149100D01*
Y148600D01*
X131299Y148100D01*
X130300D01*
X129800Y148600D01*
X134299Y148100D02*
Y151099D01*
X132799Y149600D01*
X134798D01*
X131799Y91599D02*
X131299Y92099D01*
X130300D01*
X129800Y91599D01*
Y91099D01*
X130300Y90600D01*
X131299D01*
X131799Y90100D01*
Y89600D01*
X131299Y89100D01*
X130300D01*
X129800Y89600D01*
X134798Y92099D02*
X132799D01*
Y90600D01*
X133799Y91099D01*
X134299D01*
X134798Y90600D01*
Y89600D01*
X134299Y89100D01*
X133299D01*
X132799Y89600D01*
X131799Y32499D02*
X131299Y32999D01*
X130300D01*
X129800Y32499D01*
Y31999D01*
X130300Y31499D01*
X131299D01*
X131799Y31000D01*
Y30500D01*
X131299Y30000D01*
X130300D01*
X129800Y30500D01*
X134798Y32999D02*
X133799Y32499D01*
X132799Y31499D01*
Y30500D01*
X133299Y30000D01*
X134299D01*
X134798Y30500D01*
Y31000D01*
X134299Y31499D01*
X132799D01*
X52599Y150599D02*
X52100Y151099D01*
X51100D01*
X50600Y150599D01*
Y150099D01*
X51100Y149600D01*
X52100D01*
X52599Y149100D01*
Y148600D01*
X52100Y148100D01*
X51100D01*
X50600Y148600D01*
X53599Y151099D02*
X55598D01*
Y150599D01*
X53599Y148600D01*
Y148100D01*
X52499Y91599D02*
X51999Y92099D01*
X51000D01*
X50500Y91599D01*
Y91099D01*
X51000Y90600D01*
X51999D01*
X52499Y90100D01*
Y89600D01*
X51999Y89100D01*
X51000D01*
X50500Y89600D01*
X53499Y91599D02*
X53999Y92099D01*
X54999D01*
X55498Y91599D01*
Y91099D01*
X54999Y90600D01*
X55498Y90100D01*
Y89600D01*
X54999Y89100D01*
X53999D01*
X53499Y89600D01*
Y90100D01*
X53999Y90600D01*
X53499Y91099D01*
Y91599D01*
X53999Y90600D02*
X54999D01*
X52599Y32499D02*
X52100Y32999D01*
X51100D01*
X50600Y32499D01*
Y31999D01*
X51100Y31499D01*
X52100D01*
X52599Y31000D01*
Y30500D01*
X52100Y30000D01*
X51100D01*
X50600Y30500D01*
X53599D02*
X54099Y30000D01*
X55099D01*
X55598Y30500D01*
Y32499D01*
X55099Y32999D01*
X54099D01*
X53599Y32499D01*
Y31999D01*
X54099Y31499D01*
X55598D01*
D11*
X271922Y10905D02*
X271936Y10657D01*
X271922Y10905D02*
X271936Y10657D01*
X271936D02*
X271947Y10645D01*
X271936Y10657D02*
X271947Y10645D01*
X274936Y7868D02*
X274950Y7877D01*
X274936Y7868D02*
X274950Y7877D01*
X274691Y7902D02*
X274936Y7868D01*
X274691Y7902D02*
X274936Y7868D01*
X268820Y18358D02*
X268837Y18354D01*
X268820Y18358D02*
X268837Y18354D01*
X274095Y14116D02*
X274114Y14309D01*
X274095Y14116D02*
X274114Y14309D01*
X272794Y17497D02*
X272643Y17620D01*
X272794Y17497D02*
X272643Y17620D01*
X274114Y26682D02*
X274095Y26875D01*
X274114Y26682D02*
X274095Y26875D01*
X272643Y23371D02*
X272794Y23494D01*
X272643Y23371D02*
X272794Y23494D01*
X271914Y30101D02*
X271922Y30086D01*
X271947Y30346D02*
X271914Y30101D01*
X271947Y30346D02*
X271914Y30101D01*
X271922Y30086D01*
X274950Y33114D02*
X274703Y33101D01*
X274691Y33089D01*
X274703Y33101D02*
X274691Y33089D01*
X274950Y33114D02*
X274703Y33101D01*
X280079Y9567D02*
X280083Y9576D01*
X280065Y9543D02*
X280073Y9557D01*
X280065Y9543D02*
X280073Y9557D01*
X279932Y9452D02*
X280065Y9543D01*
X279932Y9452D02*
X280065Y9543D01*
X280079Y9567D02*
X280083Y9576D01*
X279816Y9463D02*
X279826Y9460D01*
X280073Y9557D02*
X280079Y9567D01*
X279826Y9460D02*
X279932Y9452D01*
X279816Y9463D02*
X279826Y9460D01*
Y9460D02*
X279932Y9452D01*
X280073Y9557D02*
X280079Y9567D01*
X278354Y10069D02*
X278161Y10049D01*
X278354Y10069D02*
X278161Y10049D01*
X282774Y16170D02*
X282692Y16409D01*
X282770Y16159D02*
X282774Y16170D01*
X282770Y16159D02*
X282774Y16170D01*
X282692Y16409D02*
X282677Y16417D01*
X282774Y16170D02*
X282692Y16409D01*
X282677Y16417D02*
X282666Y16423D01*
X282677Y16417D02*
X282666Y16423D01*
X282692Y16409D02*
X282677Y16417D01*
X280378Y18831D02*
X280468Y18621D01*
X280378Y18831D02*
X280468Y18621D01*
Y18621D02*
X281019Y17720D01*
X281766Y16974D01*
X282666Y16423D01*
X280468Y18621D02*
X281019Y17720D01*
X281766Y16974D01*
X282666Y16423D01*
X282666Y24568D02*
X282454Y24464D01*
X282454Y24464D02*
X282182Y24309D01*
X282666Y24568D02*
X282454Y24464D01*
X282454Y24464D02*
X282182Y24309D01*
X282877Y24659D02*
X282666Y24568D01*
X282877Y24659D02*
X282666Y24568D01*
X278161Y30942D02*
X278354Y30922D01*
X278161Y30942D02*
X278354Y30922D01*
X282404Y36216D02*
X282400Y36200D01*
X282404Y36216D02*
X282400Y36200D01*
X281543Y32243D02*
X281666Y32394D01*
X281543Y32243D02*
X281666Y32394D01*
X289248Y9457D02*
X289259Y9461D01*
Y9461D02*
X289268Y9464D01*
X289074Y9484D02*
X289232Y9453D01*
X289005Y9565D02*
X289074Y9484D01*
X289232Y9453D02*
X289248Y9457D01*
X289074Y9484D02*
X289232Y9453D01*
X289000Y9574D02*
X289005Y9565D01*
X289259Y9461D02*
X289268Y9464D01*
X289000Y9574D02*
X289005Y9565D01*
X289248Y9457D02*
X289259Y9461D01*
X289005Y9565D02*
X289074Y9484D01*
X289232Y9453D02*
X289248Y9457D01*
X290921Y10049D02*
X290728Y10069D01*
X290921Y10049D02*
X290728Y10069D01*
X286308Y16170D02*
X286312Y16159D01*
X286303Y16186D02*
X286308Y16170D01*
X286416Y16423D02*
X286405Y16418D01*
X286628Y16527D02*
X286900Y16682D01*
X286416Y16423D02*
X286405Y16418D01*
X286416Y16423D02*
X286628Y16527D01*
X286405Y16418D02*
X286303Y16186D01*
X286308Y16170D02*
X286312Y16159D01*
X286628Y16527D02*
X286900Y16682D01*
X286416Y16423D02*
X286628Y16527D01*
X286303Y16186D02*
X286308Y16170D01*
X286405Y16418D02*
X286303Y16186D01*
X288704Y22160D02*
X288614Y22370D01*
X288510Y22582D01*
X288614Y22370D02*
X288510Y22582D01*
X288704Y22160D02*
X288614Y22370D01*
X288510Y22582D02*
X288354Y22855D01*
X288510Y22582D02*
X288354Y22855D01*
X287417Y32394D02*
X287539Y32243D01*
X287417Y32394D02*
X287539Y32243D01*
X290728Y30922D02*
X290921Y30942D01*
X290728Y30922D02*
X290921Y30942D01*
X297168Y10891D02*
X297160Y10905D01*
X297168Y10891D02*
X297160Y10905D01*
X297135Y10645D02*
X297168Y10891D01*
X297135Y10645D02*
X297168Y10891D01*
X294379Y7890D02*
X294391Y7902D01*
X294132Y7877D02*
X294379Y7890D01*
Y7890D02*
X294391Y7902D01*
X294132Y7877D02*
X294379Y7890D01*
X296439Y17620D02*
X296288Y17497D01*
X296439Y17620D02*
X296288Y17497D01*
X294968Y14309D02*
X294987Y14116D01*
X294968Y14309D02*
X294987Y14116D01*
Y26875D02*
X294968Y26682D01*
X294987Y26875D02*
X294968Y26682D01*
X296288Y23494D02*
X296439Y23371D01*
X296288Y23494D02*
X296439Y23371D01*
X297146Y30334D02*
X297135Y30346D01*
X297160Y30086D02*
X297146Y30334D01*
X297160Y30086D02*
X297146Y30334D01*
X297146Y30334D02*
X297135Y30346D01*
X294146Y33123D02*
X294132Y33114D01*
X294391Y33089D02*
X294146Y33123D01*
X294391Y33089D02*
X294146Y33123D01*
X294132Y33114D01*
X282601Y36366D02*
X282404Y36216D01*
X282601Y36366D02*
X282404Y36216D01*
X282182Y24309D02*
X281366Y23662D01*
X280721Y22843D01*
X280283Y21899D01*
X280074Y20878D01*
X280106Y19837D01*
X280378Y18831D01*
X282182Y24309D02*
X281366Y23662D01*
X280721Y22843D01*
X280283Y21899D01*
X280074Y20878D01*
X280106Y19837D01*
X280378Y18831D01*
X286682Y36200D02*
X286498Y36365D01*
X286498D02*
X286481Y36366D01*
X286498Y36365D02*
X286481Y36366D01*
X286682Y36200D02*
X286498Y36365D01*
X286900Y16682D02*
X287716Y17330D01*
X288361Y18148D01*
X288800Y19093D01*
X289008Y20113D01*
X288976Y21154D01*
X288704Y22160D01*
X286900Y16682D02*
X287716Y17330D01*
X288361Y18148D01*
X288800Y19093D01*
X289008Y20113D01*
X288976Y21154D01*
X288704Y22160D01*
X268671Y18556D02*
X268820Y18358D01*
X268671Y18556D02*
X268820Y18358D01*
X268671Y22452D02*
X268671Y22435D01*
X268671Y22452D02*
X268671Y22435D01*
X268837Y22637D02*
X268671Y22452D01*
X268837Y22637D02*
X268671Y22452D01*
X300411Y18539D02*
X300412Y18556D01*
X300245Y18354D02*
X300411Y18539D01*
X300245Y18354D02*
X300411Y18539D01*
X300412Y18556D01*
X300412Y22435D02*
X300262Y22633D01*
X300412Y22435D02*
X300262Y22633D01*
X300245Y22637D01*
X300262Y22633D02*
X300245Y22637D01*
X288354Y22855D02*
X287707Y23671D01*
X286889Y24315D01*
X285944Y24754D01*
X284924Y24963D01*
X283882Y24930D01*
X282877Y24659D01*
X288354Y22855D02*
X287707Y23671D01*
X286889Y24315D01*
X285944Y24754D01*
X284924Y24963D01*
X283882Y24930D01*
X282877Y24659D01*
X271947Y10645D02*
X274691Y7902D01*
X271947Y10645D02*
X274691Y7902D01*
X268837Y18354D02*
X272643Y17620D01*
X268837Y18354D02*
X272643Y17620D01*
X272794Y17497D02*
X274114Y14309D01*
X272794Y17497D02*
X274114Y14309D01*
X272794Y23494D02*
X274114Y26682D01*
X272794Y23494D02*
X274114Y26682D01*
X268837Y22637D02*
X272643Y23371D01*
X268837Y22637D02*
X272643Y23371D01*
X271947Y30346D02*
X274691Y33089D01*
X271947Y30346D02*
X274691Y33089D01*
X279814Y9464D02*
X279816Y9463D01*
X279814Y9464D02*
X279816Y9463D01*
X278354Y10069D02*
X279814Y9464D01*
X278354Y10069D02*
X279814Y9464D01*
X281666Y32394D02*
X282400Y36200D01*
X281666Y32394D02*
X282400Y36200D01*
X278354Y30922D02*
X281543Y32243D01*
X278354Y30922D02*
X281543Y32243D01*
X289000Y9576D02*
X289000Y9574D01*
X289000Y9576D02*
X289000Y9574D01*
X289268Y9464D02*
X290728Y10069D01*
X289268Y9464D02*
X290728Y10069D01*
X286682Y36200D02*
X287417Y32394D01*
X286682Y36200D02*
X287417Y32394D01*
X287539Y32243D02*
X290728Y30922D01*
X287539Y32243D02*
X290728Y30922D01*
X294391Y7902D02*
X297135Y10645D01*
X294391Y7902D02*
X297135Y10645D01*
X294968Y14309D02*
X296288Y17497D01*
X294968Y14309D02*
X296288Y17497D01*
X294968Y26682D02*
X296288Y23494D01*
X294968Y26682D02*
X296288Y23494D01*
X294391Y33089D02*
X297135Y30346D01*
X294391Y33089D02*
X297135Y30346D01*
X271922Y10905D02*
X274095Y14116D01*
X271922Y10905D02*
X274095Y14116D01*
X271922Y30086D02*
X274095Y26875D01*
X271922Y30086D02*
X274095Y26875D01*
X280083Y9576D02*
X282770Y16159D01*
X280083Y9576D02*
X282770Y16159D01*
X286312D02*
X289000Y9576D01*
X286312Y16159D02*
X289000Y9576D01*
X294987Y14116D02*
X297160Y10905D01*
X294987Y14116D02*
X297160Y10905D01*
X294987Y26875D02*
X297160Y30086D01*
X294987Y26875D02*
X297160Y30086D01*
X274950Y7877D02*
X278161Y10049D01*
X274950Y7877D02*
X278161Y10049D01*
X274950Y33114D02*
X278161Y30942D01*
X274950Y33114D02*
X278161Y30942D01*
X290921Y10049D02*
X294132Y7877D01*
X290921Y10049D02*
X294132Y7877D01*
X296439Y17620D02*
X300245Y18354D01*
X296439Y17620D02*
X300245Y18354D01*
X296439Y23371D02*
X300245Y22637D01*
X296439Y23371D02*
X300245Y22637D01*
X290921Y30942D02*
X294132Y33114D01*
X290921Y30942D02*
X294132Y33114D01*
X268671Y18556D02*
Y22435D01*
Y18556D02*
Y22435D01*
X300412Y18556D02*
Y22435D01*
Y18556D02*
Y22435D01*
X282601Y36366D02*
X286481D01*
X282601D02*
X286481D01*
D12*
X288933Y171939D02*
X298125Y181132D01*
X288933Y171939D02*
X306610Y154262D01*
X298125Y181132D02*
X315803Y163454D01*
X306610Y154262D02*
X315803Y163454D01*
M02*
