G04*
G04 #@! TF.GenerationSoftware,Altium Limited,Altium Designer,19.1.9 (167)*
G04*
G04 Layer_Color=8388736*
%FSLAX25Y25*%
%MOIN*%
G70*
G01*
G75*
%ADD13R,0.06348X0.02214*%
%ADD14C,0.03700*%
%ADD15C,0.00600*%
%ADD16O,0.08868X0.04537*%
%ADD17O,0.06899X0.04537*%
%ADD18C,0.04000*%
%ADD19C,0.07687*%
%ADD20C,0.04931*%
%ADD21C,0.05600*%
D13*
X283465Y111221D02*
D03*
Y130512D02*
D03*
Y127756D02*
D03*
Y91929D02*
D03*
Y125000D02*
D03*
Y122244D02*
D03*
Y94685D02*
D03*
Y97441D02*
D03*
Y100197D02*
D03*
Y102953D02*
D03*
Y119488D02*
D03*
Y105709D02*
D03*
Y108465D02*
D03*
Y116732D02*
D03*
Y113976D02*
D03*
Y72677D02*
D03*
Y75394D02*
D03*
Y67165D02*
D03*
Y64410D02*
D03*
Y78150D02*
D03*
Y61654D02*
D03*
Y58898D02*
D03*
Y56142D02*
D03*
Y53386D02*
D03*
Y80905D02*
D03*
Y83661D02*
D03*
Y50630D02*
D03*
Y86417D02*
D03*
Y89173D02*
D03*
Y69921D02*
D03*
D14*
X300600Y165929D02*
D03*
Y173000D02*
D03*
X304135Y169465D02*
D03*
Y162393D02*
D03*
X307671Y165929D02*
D03*
X297064Y169465D02*
D03*
D15*
X6300Y44506D02*
D03*
Y32695D02*
D03*
X19094Y90118D02*
D03*
Y67362D02*
D03*
X241406Y134606D02*
D03*
X181366Y164606D02*
D03*
Y105551D02*
D03*
X241406Y75551D02*
D03*
X181366Y46496D02*
D03*
X241406Y16496D02*
D03*
X102232Y164606D02*
D03*
X162272Y134606D02*
D03*
X102232Y105551D02*
D03*
X162272Y75551D02*
D03*
X102232Y46496D02*
D03*
X162272Y16496D02*
D03*
X23098Y164606D02*
D03*
X83138Y134606D02*
D03*
X22980Y105551D02*
D03*
X83020Y75551D02*
D03*
X23098Y46496D02*
D03*
X83138Y16496D02*
D03*
X9843Y171260D02*
D03*
X328740D02*
D03*
Y9843D02*
D03*
X9843D02*
D03*
D16*
X21181Y95748D02*
D03*
Y61732D02*
D03*
D17*
X4724Y95748D02*
D03*
Y61732D02*
D03*
D18*
X309439Y160626D02*
D03*
X292468Y171939D02*
D03*
X298125Y177596D02*
D03*
D19*
X191386Y134606D02*
D03*
X211386Y164606D02*
D03*
X191386D02*
D03*
X211386Y134606D02*
D03*
Y75551D02*
D03*
X191386Y105551D02*
D03*
X211386D02*
D03*
X191386Y75551D02*
D03*
X211386Y16496D02*
D03*
X191386Y46496D02*
D03*
X211386D02*
D03*
X191386Y16496D02*
D03*
X132252Y134606D02*
D03*
X112252Y164606D02*
D03*
X132252D02*
D03*
X112252Y134606D02*
D03*
X132252Y75551D02*
D03*
X112252Y105551D02*
D03*
X132252D02*
D03*
X112252Y75551D02*
D03*
X132252Y16496D02*
D03*
X112252Y46496D02*
D03*
X132252D02*
D03*
X112252Y16496D02*
D03*
X53118Y134606D02*
D03*
X33118Y164606D02*
D03*
X53118D02*
D03*
X33118Y134606D02*
D03*
X53000Y75551D02*
D03*
X33000Y105551D02*
D03*
X53000D02*
D03*
X33000Y75551D02*
D03*
X53118Y16496D02*
D03*
X33118Y46496D02*
D03*
X53118D02*
D03*
X33118Y16496D02*
D03*
D20*
X231386Y134606D02*
D03*
Y154606D02*
D03*
Y144606D02*
D03*
Y164606D02*
D03*
Y105551D02*
D03*
Y85551D02*
D03*
Y95551D02*
D03*
Y75551D02*
D03*
Y46496D02*
D03*
Y26496D02*
D03*
Y36496D02*
D03*
Y16496D02*
D03*
X152252Y164606D02*
D03*
Y144606D02*
D03*
Y154606D02*
D03*
Y134606D02*
D03*
Y105551D02*
D03*
Y85551D02*
D03*
Y95551D02*
D03*
Y75551D02*
D03*
Y46496D02*
D03*
Y26496D02*
D03*
Y36496D02*
D03*
Y16496D02*
D03*
X73118Y164606D02*
D03*
Y144606D02*
D03*
Y154606D02*
D03*
Y134606D02*
D03*
X73000Y105551D02*
D03*
Y85551D02*
D03*
Y95551D02*
D03*
Y75551D02*
D03*
X73118Y46496D02*
D03*
Y26496D02*
D03*
Y36496D02*
D03*
Y16496D02*
D03*
D21*
X247800Y52900D02*
D03*
X244100Y100100D02*
D03*
M02*
