G04*
G04 #@! TF.GenerationSoftware,Altium Limited,Altium Designer,19.1.9 (167)*
G04*
G04 Layer_Color=32896*
%FSLAX25Y25*%
%MOIN*%
G70*
G01*
G75*
%ADD10C,0.00600*%
%ADD12C,0.00787*%
%ADD25C,0.01000*%
%ADD74C,0.00000*%
%ADD75C,0.00394*%
%ADD76C,0.00500*%
D10*
X37776Y87444D02*
X47224D01*
X37776Y92956D02*
X47224D01*
X37776Y92444D02*
X47224D01*
X37776Y97956D02*
X47224D01*
X37776Y97244D02*
X47224D01*
X37776Y102756D02*
X47224D01*
X280108Y163211D02*
X286789Y169892D01*
X276211Y167108D02*
X282892Y173789D01*
X314021Y136061D02*
X315082Y135000D01*
X295000Y155082D02*
X296061Y154021D01*
X274918Y135000D02*
X275979Y136061D01*
X293939Y115979D02*
X295000Y114918D01*
X314021Y133939D02*
X315082Y135000D01*
X295000Y114918D02*
X296061Y115979D01*
X274918Y135000D02*
X275979Y133939D01*
X293939Y154021D02*
X295000Y155082D01*
X274776Y178756D02*
X284224D01*
X274776Y173244D02*
X284224D01*
X323776Y92744D02*
X333224D01*
X323776Y98256D02*
X333224D01*
X328500Y109646D02*
Y112795D01*
X323776Y82744D02*
X333224D01*
X323776Y88256D02*
X333224D01*
X323776Y87744D02*
X333224D01*
X323776Y93256D02*
X333224D01*
X323776Y58898D02*
X333224D01*
X323776Y64409D02*
X333224D01*
X328501Y54925D02*
Y58075D01*
Y49925D02*
Y53075D01*
X323776Y73256D02*
X333224D01*
X323776Y67744D02*
X333224D01*
X328501Y120669D02*
Y123819D01*
X323776Y108465D02*
X333224D01*
X323776Y102953D02*
X333224D01*
X328500Y114925D02*
Y118075D01*
X328501Y126175D02*
Y129325D01*
X254776Y93744D02*
X264224D01*
X254776Y99256D02*
X264224D01*
X254776Y93756D02*
X264224D01*
X254776Y88244D02*
X264224D01*
X323776Y77744D02*
X333224D01*
X323776Y83256D02*
X333224D01*
X323776Y78256D02*
X333224D01*
X323776Y72744D02*
X333224D01*
X323776Y140256D02*
X333224D01*
X323776Y134744D02*
X333224D01*
X287386Y162613D02*
X289613Y160386D01*
X328500Y130925D02*
Y134075D01*
X267387Y127386D02*
X269614Y129613D01*
X316886Y145387D02*
X319113Y147614D01*
X323776Y103256D02*
X333224D01*
X323776Y97744D02*
X333224D01*
X300387Y110114D02*
X302614Y107887D01*
X271000Y85625D02*
Y88775D01*
X267425Y111000D02*
X270575D01*
X250776Y123756D02*
X260224D01*
X250776Y118244D02*
X260224D01*
X259500Y100425D02*
Y103575D01*
X239276Y123756D02*
X248724D01*
X239276Y118244D02*
X248724D01*
X272476Y102556D02*
X281924D01*
X272476Y97044D02*
X281924D01*
X272476Y92144D02*
X281924D01*
X272476Y97656D02*
X281924D01*
X279711Y163608D02*
X286392Y170289D01*
X283608Y159711D02*
X290289Y166392D01*
X308886Y172613D02*
X311113Y170386D01*
X328886Y152613D02*
X331113Y150386D01*
X3200Y110000D02*
Y112999D01*
X4699D01*
X5199Y112499D01*
Y111500D01*
X4699Y111000D01*
X3200D01*
X4200D02*
X5199Y110000D01*
X7699D02*
X6699D01*
X6199Y110500D01*
Y111500D01*
X6699Y111999D01*
X7699D01*
X8198Y111500D01*
Y111000D01*
X6199D01*
X9198Y110000D02*
X10698D01*
X11197Y110500D01*
X10698Y111000D01*
X9698D01*
X9198Y111500D01*
X9698Y111999D01*
X11197D01*
X13697Y110000D02*
X12697D01*
X12197Y110500D01*
Y111500D01*
X12697Y111999D01*
X13697D01*
X14196Y111500D01*
Y111000D01*
X12197D01*
X15696Y112499D02*
Y111999D01*
X15196D01*
X16196D01*
X15696D01*
Y110500D01*
X16196Y110000D01*
X14300Y80199D02*
X12301Y77200D01*
Y80199D02*
X14300Y77200D01*
X9302Y80199D02*
X11301D01*
Y78699D01*
X10301Y79199D01*
X9801D01*
X9302Y78699D01*
Y77700D01*
X9801Y77200D01*
X10801D01*
X11301Y77700D01*
X56300Y93600D02*
Y96599D01*
X54800D01*
X54301Y96099D01*
Y95100D01*
X54800Y94600D01*
X56300D01*
X55300D02*
X54301Y93600D01*
X51302D02*
X53301D01*
X51302Y95599D01*
Y96099D01*
X51801Y96599D01*
X52801D01*
X53301Y96099D01*
X50302D02*
X49802Y96599D01*
X48802D01*
X48303Y96099D01*
Y94100D01*
X48802Y93600D01*
X49802D01*
X50302Y94100D01*
Y96099D01*
X56300Y88400D02*
Y91399D01*
X54800D01*
X54301Y90899D01*
Y89899D01*
X54800Y89400D01*
X56300D01*
X55300D02*
X54301Y88400D01*
X51302D02*
X53301D01*
X51302Y90399D01*
Y90899D01*
X51801Y91399D01*
X52801D01*
X53301Y90899D01*
X50302Y88400D02*
X49302D01*
X49802D01*
Y91399D01*
X50302Y90899D01*
X56300Y98900D02*
Y101899D01*
X54800D01*
X54301Y101399D01*
Y100399D01*
X54800Y99900D01*
X56300D01*
X55300D02*
X54301Y98900D01*
X53301D02*
X52301D01*
X52801D01*
Y101899D01*
X53301Y101399D01*
X50802Y99400D02*
X50302Y98900D01*
X49302D01*
X48802Y99400D01*
Y101399D01*
X49302Y101899D01*
X50302D01*
X50802Y101399D01*
Y100899D01*
X50302Y100399D01*
X48802D01*
X226499Y118100D02*
X223500D01*
Y119599D01*
X224000Y120099D01*
X225999D01*
X226499Y119599D01*
Y118100D01*
X223500Y121099D02*
Y122099D01*
Y121599D01*
X226499D01*
X225999Y121099D01*
X298900Y136399D02*
X297900D01*
X298400D01*
Y133400D01*
X298900D01*
X297900D01*
X294402Y135899D02*
X294901Y136399D01*
X295901D01*
X296401Y135899D01*
Y133900D01*
X295901Y133400D01*
X294901D01*
X294402Y133900D01*
X291402Y133400D02*
X293402D01*
X291402Y135399D01*
Y135899D01*
X291902Y136399D01*
X292902D01*
X293402Y135899D01*
X272701Y88199D02*
X273200Y88699D01*
X274200D01*
X274700Y88199D01*
Y86200D01*
X274200Y85700D01*
X273200D01*
X272701Y86200D01*
X271701Y85700D02*
X270701D01*
X271201D01*
Y88699D01*
X271701Y88199D01*
X267202Y88699D02*
X268202Y88199D01*
X269202Y87199D01*
Y86200D01*
X268702Y85700D01*
X267702D01*
X267202Y86200D01*
Y86700D01*
X267702Y87199D01*
X269202D01*
X326500Y162999D02*
X324501Y160000D01*
Y162999D02*
X326500Y160000D01*
X323501Y162999D02*
X321502D01*
X322501D01*
Y160000D01*
X320502D02*
Y161999D01*
X319502Y162999D01*
X318503Y161999D01*
Y160000D01*
Y161500D01*
X320502D01*
X317503Y162999D02*
Y160000D01*
X315504D01*
X314504D02*
X313504D01*
X314004D01*
Y162999D01*
X314504Y162499D01*
X246000Y111999D02*
X244001D01*
X245000D01*
Y109000D01*
X243001D02*
X242001D01*
X242501D01*
Y111999D01*
X243001Y111499D01*
X332200Y60200D02*
Y63199D01*
X330700D01*
X330201Y62699D01*
Y61699D01*
X330700Y61200D01*
X332200D01*
X331200D02*
X330201Y60200D01*
X329201D02*
X328201D01*
X328701D01*
Y63199D01*
X329201Y62699D01*
X326702D02*
X326202Y63199D01*
X325202D01*
X324702Y62699D01*
Y62199D01*
X325202Y61699D01*
X324702Y61200D01*
Y60700D01*
X325202Y60200D01*
X326202D01*
X326702Y60700D01*
Y61200D01*
X326202Y61699D01*
X326702Y62199D01*
Y62699D01*
X326202Y61699D02*
X325202D01*
X332200Y79000D02*
Y81999D01*
X330700D01*
X330201Y81499D01*
Y80500D01*
X330700Y80000D01*
X332200D01*
X331200D02*
X330201Y79000D01*
X329201D02*
X328201D01*
X328701D01*
Y81999D01*
X329201Y81499D01*
X326702Y81999D02*
X324702D01*
Y81499D01*
X326702Y79500D01*
Y79000D01*
X332200Y69000D02*
Y71999D01*
X330700D01*
X330201Y71499D01*
Y70499D01*
X330700Y70000D01*
X332200D01*
X331200D02*
X330201Y69000D01*
X329201D02*
X328201D01*
X328701D01*
Y71999D01*
X329201Y71499D01*
X324702Y71999D02*
X325702Y71499D01*
X326702Y70499D01*
Y69500D01*
X326202Y69000D01*
X325202D01*
X324702Y69500D01*
Y70000D01*
X325202Y70499D01*
X326702D01*
X332200Y74000D02*
Y76999D01*
X330700D01*
X330201Y76499D01*
Y75499D01*
X330700Y75000D01*
X332200D01*
X331200D02*
X330201Y74000D01*
X329201D02*
X328201D01*
X328701D01*
Y76999D01*
X329201Y76499D01*
X324702Y76999D02*
X326702D01*
Y75499D01*
X325702Y75999D01*
X325202D01*
X324702Y75499D01*
Y74500D01*
X325202Y74000D01*
X326202D01*
X326702Y74500D01*
X332200Y89000D02*
Y91999D01*
X330700D01*
X330201Y91499D01*
Y90500D01*
X330700Y90000D01*
X332200D01*
X331200D02*
X330201Y89000D01*
X329201D02*
X328201D01*
X328701D01*
Y91999D01*
X329201Y91499D01*
X325202Y89000D02*
Y91999D01*
X326702Y90500D01*
X324702D01*
X332200Y84000D02*
Y86999D01*
X330700D01*
X330201Y86499D01*
Y85500D01*
X330700Y85000D01*
X332200D01*
X331200D02*
X330201Y84000D01*
X329201D02*
X328201D01*
X328701D01*
Y86999D01*
X329201Y86499D01*
X326702D02*
X326202Y86999D01*
X325202D01*
X324702Y86499D01*
Y85999D01*
X325202Y85500D01*
X325702D01*
X325202D01*
X324702Y85000D01*
Y84500D01*
X325202Y84000D01*
X326202D01*
X326702Y84500D01*
X332200Y104200D02*
Y107199D01*
X330700D01*
X330201Y106699D01*
Y105700D01*
X330700Y105200D01*
X332200D01*
X331200D02*
X330201Y104200D01*
X329201D02*
X328201D01*
X328701D01*
Y107199D01*
X329201Y106699D01*
X324702Y104200D02*
X326702D01*
X324702Y106199D01*
Y106699D01*
X325202Y107199D01*
X326202D01*
X326702Y106699D01*
X331700Y99000D02*
Y101999D01*
X330201D01*
X329701Y101499D01*
Y100499D01*
X330201Y100000D01*
X331700D01*
X330700D02*
X329701Y99000D01*
X328701D02*
X327701D01*
X328201D01*
Y101999D01*
X328701Y101499D01*
X326202Y99000D02*
X325202D01*
X325702D01*
Y101999D01*
X326202Y101499D01*
X288700Y163500D02*
Y166499D01*
X287200D01*
X286701Y165999D01*
Y164999D01*
X287200Y164500D01*
X288700D01*
X287700D02*
X286701Y163500D01*
X285701D02*
X284701D01*
X285201D01*
Y166499D01*
X285701Y165999D01*
X283202D02*
X282702Y166499D01*
X281702D01*
X281202Y165999D01*
Y164000D01*
X281702Y163500D01*
X282702D01*
X283202Y164000D01*
Y165999D01*
X279700Y93400D02*
Y96399D01*
X278201D01*
X277701Y95899D01*
Y94899D01*
X278201Y94400D01*
X279700D01*
X278700D02*
X277701Y93400D01*
X276701Y93900D02*
X276201Y93400D01*
X275202D01*
X274702Y93900D01*
Y95899D01*
X275202Y96399D01*
X276201D01*
X276701Y95899D01*
Y95399D01*
X276201Y94899D01*
X274702D01*
X282000Y174500D02*
Y177499D01*
X280501D01*
X280001Y176999D01*
Y175999D01*
X280501Y175500D01*
X282000D01*
X281000D02*
X280001Y174500D01*
X279001Y176999D02*
X278501Y177499D01*
X277502D01*
X277002Y176999D01*
Y176499D01*
X277502Y175999D01*
X277002Y175500D01*
Y175000D01*
X277502Y174500D01*
X278501D01*
X279001Y175000D01*
Y175500D01*
X278501Y175999D01*
X279001Y176499D01*
Y176999D01*
X278501Y175999D02*
X277502D01*
X284300Y167700D02*
Y170699D01*
X282801D01*
X282301Y170199D01*
Y169200D01*
X282801Y168700D01*
X284300D01*
X283300D02*
X282301Y167700D01*
X281301Y170699D02*
X279302D01*
Y170199D01*
X281301Y168200D01*
Y167700D01*
X279700Y98300D02*
Y101299D01*
X278201D01*
X277701Y100799D01*
Y99800D01*
X278201Y99300D01*
X279700D01*
X278700D02*
X277701Y98300D01*
X274702Y101299D02*
X275701Y100799D01*
X276701Y99800D01*
Y98800D01*
X276201Y98300D01*
X275202D01*
X274702Y98800D01*
Y99300D01*
X275202Y99800D01*
X276701D01*
X331000Y136000D02*
Y138999D01*
X329501D01*
X329001Y138499D01*
Y137499D01*
X329501Y137000D01*
X331000D01*
X330000D02*
X329001Y136000D01*
X326002Y138999D02*
X328001D01*
Y137499D01*
X327001Y137999D01*
X326501D01*
X326002Y137499D01*
Y136500D01*
X326501Y136000D01*
X327501D01*
X328001Y136500D01*
X262000Y89500D02*
Y92499D01*
X260501D01*
X260001Y91999D01*
Y91000D01*
X260501Y90500D01*
X262000D01*
X261000D02*
X260001Y89500D01*
X257502D02*
Y92499D01*
X259001Y91000D01*
X257002D01*
X246500Y119500D02*
Y122499D01*
X245001D01*
X244501Y121999D01*
Y121000D01*
X245001Y120500D01*
X246500D01*
X245500D02*
X244501Y119500D01*
X243501Y121999D02*
X243001Y122499D01*
X242002D01*
X241502Y121999D01*
Y121499D01*
X242002Y121000D01*
X242501D01*
X242002D01*
X241502Y120500D01*
Y120000D01*
X242002Y119500D01*
X243001D01*
X243501Y120000D01*
X262000Y95000D02*
Y97999D01*
X260501D01*
X260001Y97499D01*
Y96500D01*
X260501Y96000D01*
X262000D01*
X261000D02*
X260001Y95000D01*
X257002D02*
X259001D01*
X257002Y96999D01*
Y97499D01*
X257502Y97999D01*
X258501D01*
X259001Y97499D01*
X257500Y119500D02*
Y122499D01*
X256000D01*
X255501Y121999D01*
Y121000D01*
X256000Y120500D01*
X257500D01*
X256500D02*
X255501Y119500D01*
X254501D02*
X253501D01*
X254001D01*
Y122499D01*
X254501Y121999D01*
X272700Y173199D02*
Y170200D01*
X270701D01*
X267702Y173199D02*
X269701D01*
Y170200D01*
X267702D01*
X269701Y171700D02*
X268701D01*
X266702Y173199D02*
Y170200D01*
X265202D01*
X264703Y170700D01*
Y172699D01*
X265202Y173199D01*
X266702D01*
X263703Y170200D02*
X262703D01*
X263203D01*
Y173199D01*
X263703Y172699D01*
X287200Y48099D02*
X286200D01*
X286700D01*
Y45100D01*
X287200D01*
X286200D01*
X282701Y47599D02*
X283201Y48099D01*
X284201D01*
X284701Y47599D01*
Y45600D01*
X284201Y45100D01*
X283201D01*
X282701Y45600D01*
X281702Y47599D02*
X281202Y48099D01*
X280202D01*
X279702Y47599D01*
Y47099D01*
X280202Y46600D01*
X280702D01*
X280202D01*
X279702Y46100D01*
Y45600D01*
X280202Y45100D01*
X281202D01*
X281702Y45600D01*
X262700Y112499D02*
X261700D01*
X262200D01*
Y109500D01*
X262700D01*
X261700D01*
X258202Y111999D02*
X258701Y112499D01*
X259701D01*
X260201Y111999D01*
Y110000D01*
X259701Y109500D01*
X258701D01*
X258202Y110000D01*
X257202Y109500D02*
X256202D01*
X256702D01*
Y112499D01*
X257202Y111999D01*
X330201Y52499D02*
X330700Y52999D01*
X331700D01*
X332200Y52499D01*
Y50500D01*
X331700Y50000D01*
X330700D01*
X330201Y50500D01*
X329201Y50000D02*
X328201D01*
X328701D01*
Y52999D01*
X329201Y52499D01*
X324702Y52999D02*
X326702D01*
Y51499D01*
X325702Y51999D01*
X325202D01*
X324702Y51499D01*
Y50500D01*
X325202Y50000D01*
X326202D01*
X326702Y50500D01*
X330201Y57499D02*
X330700Y57999D01*
X331700D01*
X332200Y57499D01*
Y55500D01*
X331700Y55000D01*
X330700D01*
X330201Y55500D01*
X329201Y55000D02*
X328201D01*
X328701D01*
Y57999D01*
X329201Y57499D01*
X325202Y55000D02*
Y57999D01*
X326702Y56499D01*
X324702D01*
X326799Y110201D02*
X326300Y109701D01*
X325300D01*
X324800Y110201D01*
Y112200D01*
X325300Y112700D01*
X326300D01*
X326799Y112200D01*
X327799Y112700D02*
X328799D01*
X328299D01*
Y109701D01*
X327799Y110201D01*
X330298D02*
X330798Y109701D01*
X331798D01*
X332298Y110201D01*
Y110701D01*
X331798Y111200D01*
X331298D01*
X331798D01*
X332298Y111700D01*
Y112200D01*
X331798Y112700D01*
X330798D01*
X330298Y112200D01*
X330201Y117499D02*
X330700Y117999D01*
X331700D01*
X332200Y117499D01*
Y115500D01*
X331700Y115000D01*
X330700D01*
X330201Y115500D01*
X329201Y115000D02*
X328201D01*
X328701D01*
Y117999D01*
X329201Y117499D01*
X324702Y115000D02*
X326702D01*
X324702Y116999D01*
Y117499D01*
X325202Y117999D01*
X326202D01*
X326702Y117499D01*
X329701Y123199D02*
X330201Y123699D01*
X331200D01*
X331700Y123199D01*
Y121200D01*
X331200Y120700D01*
X330201D01*
X329701Y121200D01*
X328701Y120700D02*
X327701D01*
X328201D01*
Y123699D01*
X328701Y123199D01*
X326202Y120700D02*
X325202D01*
X325702D01*
Y123699D01*
X326202Y123199D01*
X330201Y128799D02*
X330700Y129299D01*
X331700D01*
X332200Y128799D01*
Y126800D01*
X331700Y126300D01*
X330700D01*
X330201Y126800D01*
X329201Y126300D02*
X328201D01*
X328701D01*
Y129299D01*
X329201Y128799D01*
X326702D02*
X326202Y129299D01*
X325202D01*
X324702Y128799D01*
Y126800D01*
X325202Y126300D01*
X326202D01*
X326702Y126800D01*
Y128799D01*
X330501Y152499D02*
X331000Y152999D01*
X332000D01*
X332500Y152499D01*
Y150500D01*
X332000Y150000D01*
X331000D01*
X330501Y150500D01*
X329501D02*
X329001Y150000D01*
X328001D01*
X327502Y150500D01*
Y152499D01*
X328001Y152999D01*
X329001D01*
X329501Y152499D01*
Y151999D01*
X329001Y151499D01*
X327502D01*
X310501Y172499D02*
X311000Y172999D01*
X312000D01*
X312500Y172499D01*
Y170500D01*
X312000Y170000D01*
X311000D01*
X310501Y170500D01*
X309501Y172499D02*
X309001Y172999D01*
X308001D01*
X307502Y172499D01*
Y171999D01*
X308001Y171500D01*
X307502Y171000D01*
Y170500D01*
X308001Y170000D01*
X309001D01*
X309501Y170500D01*
Y171000D01*
X309001Y171500D01*
X309501Y171999D01*
Y172499D01*
X309001Y171500D02*
X308001D01*
X329001Y133499D02*
X329501Y133999D01*
X330500D01*
X331000Y133499D01*
Y131500D01*
X330500Y131000D01*
X329501D01*
X329001Y131500D01*
X328001Y133999D02*
X326002D01*
Y133499D01*
X328001Y131500D01*
Y131000D01*
X318501Y147499D02*
X319001Y147999D01*
X320000D01*
X320500Y147499D01*
Y145500D01*
X320000Y145000D01*
X319001D01*
X318501Y145500D01*
X315502Y147999D02*
X316501Y147499D01*
X317501Y146500D01*
Y145500D01*
X317001Y145000D01*
X316002D01*
X315502Y145500D01*
Y146000D01*
X316002Y146500D01*
X317501D01*
X289001Y162499D02*
X289500Y162999D01*
X290500D01*
X291000Y162499D01*
Y160500D01*
X290500Y160000D01*
X289500D01*
X289001Y160500D01*
X286002Y162999D02*
X288001D01*
Y161500D01*
X287001Y161999D01*
X286502D01*
X286002Y161500D01*
Y160500D01*
X286502Y160000D01*
X287501D01*
X288001Y160500D01*
X302001Y109999D02*
X302501Y110499D01*
X303500D01*
X304000Y109999D01*
Y108000D01*
X303500Y107500D01*
X302501D01*
X302001Y108000D01*
X299501Y107500D02*
Y110499D01*
X301001Y109000D01*
X299002D01*
X269001Y129499D02*
X269500Y129999D01*
X270500D01*
X271000Y129499D01*
Y127500D01*
X270500Y127000D01*
X269500D01*
X269001Y127500D01*
X268001Y129499D02*
X267501Y129999D01*
X266501D01*
X266002Y129499D01*
Y128999D01*
X266501Y128499D01*
X267001D01*
X266501D01*
X266002Y128000D01*
Y127500D01*
X266501Y127000D01*
X267501D01*
X268001Y127500D01*
X269501Y111999D02*
X270001Y112499D01*
X271000D01*
X271500Y111999D01*
Y110000D01*
X271000Y109500D01*
X270001D01*
X269501Y110000D01*
X266502Y109500D02*
X268501D01*
X266502Y111499D01*
Y111999D01*
X267002Y112499D01*
X268001D01*
X268501Y111999D01*
X259501Y102999D02*
X260000Y103499D01*
X261000D01*
X261500Y102999D01*
Y101000D01*
X261000Y100500D01*
X260000D01*
X259501Y101000D01*
X258501Y100500D02*
X257501D01*
X258001D01*
Y103499D01*
X258501Y102999D01*
X329000Y94000D02*
X328000D01*
X328500D01*
Y96999D01*
X329000Y96499D01*
D12*
X261945Y174819D02*
Y177181D01*
D25*
X296118Y158335D02*
X295697Y159209D01*
X294751Y159424D01*
X293993Y158820D01*
Y157849D01*
X294751Y157245D01*
X295697Y157460D01*
X296118Y158335D01*
X12800Y27100D02*
Y50600D01*
X-200D02*
X12800D01*
X-200Y27100D02*
Y50600D01*
X-5200Y37100D02*
X-200D01*
X-5200Y31120D02*
Y37100D01*
Y31120D02*
X-200D01*
Y27100D02*
X12800D01*
X239300Y113600D02*
Y126600D01*
X232800D02*
X239300D01*
X232800Y113600D02*
X239300D01*
X202801Y118898D02*
Y112900D01*
X205800D01*
X206800Y113900D01*
Y115899D01*
X205800Y116899D01*
X202801D01*
X197803Y112900D02*
X199802D01*
X200802Y113900D01*
Y115899D01*
X199802Y116899D01*
X197803D01*
X196803Y115899D01*
Y114899D01*
X200802D01*
X194804Y112900D02*
X191805D01*
X190805Y113900D01*
X191805Y114899D01*
X193804D01*
X194804Y115899D01*
X193804Y116899D01*
X190805D01*
X188806Y112900D02*
X186806D01*
X187806D01*
Y116899D01*
X188806D01*
X181808Y110901D02*
X180808D01*
X179809Y111900D01*
Y116899D01*
X182808D01*
X183807Y115899D01*
Y113900D01*
X182808Y112900D01*
X179809D01*
X177809D02*
Y116899D01*
X174810D01*
X173811Y115899D01*
Y112900D01*
X168812D02*
X170812D01*
X171811Y113900D01*
Y115899D01*
X170812Y116899D01*
X168812D01*
X167813Y115899D01*
Y114899D01*
X171811D01*
X161815Y118898D02*
Y112900D01*
X164814D01*
X165813Y113900D01*
Y115899D01*
X164814Y116899D01*
X161815D01*
X149818Y112900D02*
X153817D01*
X149818Y116899D01*
Y117898D01*
X150818Y118898D01*
X152817D01*
X153817Y117898D01*
X147819D02*
X146819Y118898D01*
X144820D01*
X143820Y117898D01*
Y113900D01*
X144820Y112900D01*
X146819D01*
X147819Y113900D01*
Y117898D01*
X137822Y112900D02*
X141821D01*
X137822Y116899D01*
Y117898D01*
X138822Y118898D01*
X140821D01*
X141821Y117898D01*
X135823D02*
X134823Y118898D01*
X132824D01*
X131824Y117898D01*
Y113900D01*
X132824Y112900D01*
X134823D01*
X135823Y113900D01*
Y117898D01*
X123827Y118898D02*
Y114899D01*
X121827Y112900D01*
X119828Y114899D01*
Y118898D01*
X111831Y112900D02*
X109831D01*
X110831D01*
Y118898D01*
X111831Y117898D01*
X106832Y112900D02*
Y113900D01*
X105833D01*
Y112900D01*
X106832D01*
X101834Y117898D02*
X100834Y118898D01*
X98835D01*
X97835Y117898D01*
Y113900D01*
X98835Y112900D01*
X100834D01*
X101834Y113900D01*
Y117898D01*
X202801Y128698D02*
Y122700D01*
X205800D01*
X206800Y123700D01*
Y125699D01*
X205800Y126699D01*
X202801D01*
X197803Y122700D02*
X199802D01*
X200802Y123700D01*
Y125699D01*
X199802Y126699D01*
X197803D01*
X196803Y125699D01*
Y124699D01*
X200802D01*
X194804Y122700D02*
X191805D01*
X190805Y123700D01*
X191805Y124699D01*
X193804D01*
X194804Y125699D01*
X193804Y126699D01*
X190805D01*
X188806Y122700D02*
X186806D01*
X187806D01*
Y126699D01*
X188806D01*
X181808Y120701D02*
X180808D01*
X179809Y121700D01*
Y126699D01*
X182808D01*
X183807Y125699D01*
Y123700D01*
X182808Y122700D01*
X179809D01*
X177809D02*
Y126699D01*
X174810D01*
X173811Y125699D01*
Y122700D01*
X168812D02*
X170812D01*
X171811Y123700D01*
Y125699D01*
X170812Y126699D01*
X168812D01*
X167813Y125699D01*
Y124699D01*
X171811D01*
X161815Y128698D02*
Y122700D01*
X164814D01*
X165813Y123700D01*
Y125699D01*
X164814Y126699D01*
X161815D01*
X153817Y128698D02*
Y122700D01*
X150818D01*
X149818Y123700D01*
Y124699D01*
Y125699D01*
X150818Y126699D01*
X153817D01*
X147819D02*
Y123700D01*
X146819Y122700D01*
X143820D01*
Y121700D01*
X144820Y120701D01*
X145820D01*
X143820Y122700D02*
Y126699D01*
X135823Y128698D02*
Y124699D01*
X133824Y122700D01*
X131824Y124699D01*
Y128698D01*
X128825Y126699D02*
X126826D01*
X125826Y125699D01*
Y122700D01*
X128825D01*
X129825Y123700D01*
X128825Y124699D01*
X125826D01*
X123827Y122700D02*
X121827D01*
X122827D01*
Y128698D01*
X123827D01*
X115829Y122700D02*
X117829D01*
X118828Y123700D01*
Y125699D01*
X117829Y126699D01*
X115829D01*
X114830Y125699D01*
Y124699D01*
X118828D01*
X112830Y122700D02*
Y126699D01*
X109831D01*
X108832Y125699D01*
Y122700D01*
X105833Y127698D02*
Y126699D01*
X106832D01*
X104833D01*
X105833D01*
Y123700D01*
X104833Y122700D01*
X101834D02*
X99835D01*
X100834D01*
Y126699D01*
X101834D01*
X96836Y122700D02*
Y126699D01*
X93836D01*
X92837Y125699D01*
Y122700D01*
X80841Y128698D02*
X84839D01*
Y125699D01*
X82840D01*
X84839D01*
Y122700D01*
X78841D02*
X76842D01*
X77842D01*
Y126699D01*
X78841D01*
X73843Y122700D02*
X70844D01*
X69844Y123700D01*
X70844Y124699D01*
X72843D01*
X73843Y125699D01*
X72843Y126699D01*
X69844D01*
X63846D02*
X66845D01*
X67845Y125699D01*
Y123700D01*
X66845Y122700D01*
X63846D01*
X61847Y128698D02*
Y122700D01*
Y125699D01*
X60847Y126699D01*
X58848D01*
X57848Y125699D01*
Y122700D01*
X52850D02*
X54849D01*
X55849Y123700D01*
Y125699D01*
X54849Y126699D01*
X52850D01*
X51850Y125699D01*
Y124699D01*
X55849D01*
X49851Y126699D02*
Y122700D01*
Y124699D01*
X48851Y125699D01*
X47851Y126699D01*
X46852D01*
D74*
X248921Y108531D02*
X248134D01*
X248921D01*
X257925Y106472D02*
X257138D01*
X257925D01*
D75*
X308798Y164217D02*
X322121Y150893D01*
X317283Y172702D02*
X330607Y159379D01*
X2953Y114173D02*
X25591D01*
X2953D02*
Y145669D01*
X25591D01*
Y114173D02*
Y145669D01*
D76*
X254166Y85333D02*
X254499Y85000D01*
Y84333D01*
X254166Y84000D01*
X252833D01*
X252500Y84333D01*
Y85000D01*
X252833Y85333D01*
X253500D01*
Y84666D01*
X252500Y85999D02*
X254499D01*
X252500Y87332D01*
X254499D01*
Y87999D02*
X252500D01*
Y88998D01*
X252833Y89332D01*
X254166D01*
X254499Y88998D01*
Y87999D01*
X254594Y58280D02*
X253261D01*
X252594Y58947D01*
X253261Y59613D01*
X254594D01*
X253927Y61612D02*
Y60613D01*
X253594Y60280D01*
X252928D01*
X252594Y60613D01*
Y61612D01*
X253927Y63612D02*
Y62612D01*
X253594Y62279D01*
X252928D01*
X252594Y62612D01*
Y63612D01*
M02*
