G04*
G04 #@! TF.GenerationSoftware,Altium Limited,Altium Designer,19.1.9 (167)*
G04*
G04 Layer_Physical_Order=1*
G04 Layer_Color=255*
%FSLAX25Y25*%
%MOIN*%
G70*
G01*
G75*
%ADD10C,0.00600*%
%ADD22R,0.05748X0.01614*%
%ADD23C,0.03100*%
%ADD24C,0.02000*%
%ADD25C,0.01000*%
%ADD26C,0.02500*%
%ADD27C,0.01500*%
%ADD28O,0.08268X0.03937*%
%ADD29O,0.06299X0.03937*%
%ADD30C,0.03400*%
%ADD31C,0.07087*%
%ADD32C,0.04331*%
%ADD33C,0.05000*%
%ADD34C,0.02362*%
G36*
X338583Y0D02*
X0D01*
Y181102D01*
X338583D01*
Y0D01*
D02*
G37*
%LPC*%
G36*
X307200Y175824D02*
Y174200D01*
X308824D01*
X308755Y174551D01*
X308273Y175273D01*
X307551Y175754D01*
X307200Y175824D01*
D02*
G37*
G36*
X306200D02*
X305849Y175754D01*
X305128Y175273D01*
X304645Y174551D01*
X304576Y174200D01*
X306200D01*
Y175824D01*
D02*
G37*
G36*
X263624Y175500D02*
X262000D01*
Y173876D01*
X262351Y173945D01*
X263072Y174427D01*
X263555Y175149D01*
X263624Y175500D01*
D02*
G37*
G36*
X261000D02*
X259376D01*
X259445Y175149D01*
X259928Y174427D01*
X260649Y173945D01*
X261000Y173876D01*
Y175500D01*
D02*
G37*
G36*
X298125Y179992D02*
X297208Y179810D01*
X296431Y179290D01*
X295912Y178513D01*
X295729Y177596D01*
X295912Y176679D01*
X296431Y175902D01*
X297208Y175382D01*
X298125Y175200D01*
X298521Y175279D01*
X298717Y174919D01*
X298745Y174814D01*
X298198Y173995D01*
X298169Y173852D01*
X297691Y173707D01*
X292049Y179349D01*
X291751Y179548D01*
X291400Y179618D01*
X30707D01*
X30529Y179736D01*
X30100Y179822D01*
X29671Y179736D01*
X29307Y179493D01*
X5907Y156093D01*
X5664Y155729D01*
X5578Y155300D01*
X5579Y155300D01*
Y147893D01*
X5416Y147784D01*
X5022Y147195D01*
X4884Y146500D01*
X5022Y145805D01*
X5416Y145216D01*
X6005Y144822D01*
X6700Y144684D01*
X7395Y144822D01*
X7984Y145216D01*
X8378Y145805D01*
X8516Y146500D01*
X8378Y147195D01*
X7984Y147784D01*
X7822Y147893D01*
Y154835D01*
X30768Y177782D01*
X64055D01*
X64246Y177320D01*
X55168Y168242D01*
X54200Y168643D01*
X53118Y168785D01*
X52036Y168643D01*
X51029Y168226D01*
X50163Y167561D01*
X49499Y166696D01*
X49082Y165688D01*
X48939Y164606D01*
X49082Y163525D01*
X49499Y162517D01*
X50163Y161651D01*
X51029Y160987D01*
X51232Y160903D01*
Y138310D01*
X51029Y138225D01*
X50163Y137561D01*
X49499Y136696D01*
X49082Y135688D01*
X48939Y134606D01*
X49082Y133525D01*
X49499Y132517D01*
X50163Y131651D01*
X51029Y130987D01*
X51232Y130903D01*
Y109303D01*
X50911Y109170D01*
X50045Y108506D01*
X49381Y107641D01*
X48963Y106633D01*
X48821Y105551D01*
X48963Y104470D01*
X49381Y103462D01*
X50045Y102596D01*
X50911Y101932D01*
X51114Y101848D01*
Y79255D01*
X50911Y79170D01*
X50045Y78506D01*
X49381Y77641D01*
X48963Y76633D01*
X48821Y75551D01*
X48963Y74470D01*
X49381Y73462D01*
X50045Y72596D01*
X50911Y71932D01*
X51232Y71799D01*
Y50199D01*
X51029Y50115D01*
X50163Y49451D01*
X49499Y48586D01*
X49082Y47578D01*
X48939Y46496D01*
X49082Y45414D01*
X49499Y44407D01*
X50163Y43541D01*
X51029Y42877D01*
X51232Y42793D01*
Y20199D01*
X51029Y20115D01*
X50163Y19451D01*
X49499Y18586D01*
X49082Y17578D01*
X48939Y16496D01*
X49082Y15414D01*
X49499Y14406D01*
X50163Y13541D01*
X51029Y12877D01*
X52036Y12459D01*
X53118Y12317D01*
X54200Y12459D01*
X55208Y12877D01*
X56073Y13541D01*
X56737Y14406D01*
X57155Y15414D01*
X57297Y16496D01*
X57155Y17578D01*
X56737Y18586D01*
X56073Y19451D01*
X55208Y20115D01*
X55004Y20199D01*
Y42793D01*
X55208Y42877D01*
X56073Y43541D01*
X56737Y44407D01*
X57155Y45414D01*
X57297Y46496D01*
X57155Y47578D01*
X56737Y48586D01*
X56073Y49451D01*
X55208Y50115D01*
X55004Y50199D01*
Y71897D01*
X55089Y71932D01*
X55955Y72596D01*
X56619Y73462D01*
X57037Y74470D01*
X57179Y75551D01*
X57037Y76633D01*
X56619Y77641D01*
X55955Y78506D01*
X55089Y79170D01*
X54886Y79255D01*
Y101848D01*
X55089Y101932D01*
X55955Y102596D01*
X56619Y103462D01*
X57037Y104470D01*
X57179Y105551D01*
X57037Y106633D01*
X56619Y107641D01*
X55955Y108506D01*
X55089Y109170D01*
X55004Y109206D01*
Y130903D01*
X55208Y130987D01*
X56073Y131651D01*
X56737Y132517D01*
X57155Y133525D01*
X57297Y134606D01*
X57155Y135688D01*
X56737Y136696D01*
X56073Y137561D01*
X55208Y138225D01*
X55004Y138310D01*
Y160903D01*
X55208Y160987D01*
X56073Y161651D01*
X56737Y162517D01*
X57155Y163525D01*
X57297Y164606D01*
X57155Y165688D01*
X56754Y166656D01*
X66076Y175978D01*
X92251D01*
X92442Y175516D01*
X74113Y157187D01*
X73840Y157300D01*
X73118Y157396D01*
X72396Y157300D01*
X71724Y157022D01*
X71146Y156579D01*
X70703Y156001D01*
X70424Y155328D01*
X70329Y154606D01*
X70343Y154499D01*
X65166Y149322D01*
X64757Y148710D01*
X64614Y147988D01*
Y95551D01*
Y43114D01*
X64757Y42392D01*
X65166Y41780D01*
X70343Y36604D01*
X70329Y36496D01*
X70424Y35774D01*
X70703Y35101D01*
X71146Y34524D01*
X71724Y34080D01*
X72396Y33802D01*
X73118Y33707D01*
X73840Y33802D01*
X74513Y34080D01*
X75090Y34524D01*
X75534Y35101D01*
X75812Y35774D01*
X75907Y36496D01*
X75812Y37218D01*
X75534Y37891D01*
X75090Y38468D01*
X74513Y38912D01*
X73840Y39190D01*
X73118Y39285D01*
X73011Y39271D01*
X68386Y43896D01*
Y93665D01*
X70962D01*
X71028Y93579D01*
X71605Y93136D01*
X72278Y92857D01*
X73000Y92762D01*
X73722Y92857D01*
X74395Y93136D01*
X74972Y93579D01*
X75415Y94157D01*
X75694Y94829D01*
X75789Y95551D01*
X75694Y96273D01*
X75415Y96946D01*
X74972Y97523D01*
X74395Y97967D01*
X73722Y98245D01*
X73000Y98340D01*
X72278Y98245D01*
X71605Y97967D01*
X71028Y97523D01*
X70962Y97437D01*
X68386D01*
Y147207D01*
X73011Y151831D01*
X73118Y151817D01*
X73840Y151912D01*
X74513Y152191D01*
X75090Y152634D01*
X75534Y153212D01*
X75812Y153884D01*
X75907Y154606D01*
X75812Y155328D01*
X75699Y155601D01*
X94476Y174378D01*
X139785D01*
X139976Y173916D01*
X134301Y168242D01*
X133334Y168643D01*
X132252Y168785D01*
X131170Y168643D01*
X130162Y168226D01*
X129297Y167561D01*
X128633Y166696D01*
X128215Y165688D01*
X128073Y164606D01*
X128215Y163525D01*
X128633Y162517D01*
X129297Y161651D01*
X130162Y160987D01*
X130366Y160903D01*
Y138310D01*
X130162Y138225D01*
X129297Y137561D01*
X128633Y136696D01*
X128215Y135688D01*
X128073Y134606D01*
X128215Y133525D01*
X128633Y132517D01*
X129297Y131651D01*
X130162Y130987D01*
X130366Y130903D01*
Y109255D01*
X130162Y109170D01*
X129297Y108506D01*
X128633Y107641D01*
X128215Y106633D01*
X128073Y105551D01*
X128215Y104470D01*
X128633Y103462D01*
X129297Y102596D01*
X130162Y101932D01*
X130366Y101848D01*
Y79255D01*
X130162Y79170D01*
X129297Y78506D01*
X128633Y77641D01*
X128215Y76633D01*
X128073Y75551D01*
X128215Y74470D01*
X128633Y73462D01*
X129297Y72596D01*
X130162Y71932D01*
X130366Y71848D01*
Y50199D01*
X130162Y50115D01*
X129297Y49451D01*
X128633Y48586D01*
X128215Y47578D01*
X128073Y46496D01*
X128215Y45414D01*
X128633Y44407D01*
X129297Y43541D01*
X130162Y42877D01*
X130366Y42793D01*
Y20199D01*
X130162Y20115D01*
X129297Y19451D01*
X128633Y18586D01*
X128215Y17578D01*
X128073Y16496D01*
X128215Y15414D01*
X128633Y14406D01*
X129297Y13541D01*
X130162Y12877D01*
X131170Y12459D01*
X132252Y12317D01*
X133334Y12459D01*
X134342Y12877D01*
X135207Y13541D01*
X135871Y14406D01*
X136289Y15414D01*
X136431Y16496D01*
X136289Y17578D01*
X135871Y18586D01*
X135207Y19451D01*
X134342Y20115D01*
X134138Y20199D01*
Y42793D01*
X134342Y42877D01*
X135207Y43541D01*
X135871Y44407D01*
X136289Y45414D01*
X136431Y46496D01*
X136289Y47578D01*
X135871Y48586D01*
X135207Y49451D01*
X134342Y50115D01*
X134138Y50199D01*
Y71848D01*
X134342Y71932D01*
X135207Y72596D01*
X135871Y73462D01*
X136289Y74470D01*
X136431Y75551D01*
X136289Y76633D01*
X135871Y77641D01*
X135207Y78506D01*
X134342Y79170D01*
X134138Y79255D01*
Y101848D01*
X134342Y101932D01*
X135207Y102596D01*
X135871Y103462D01*
X136289Y104470D01*
X136431Y105551D01*
X136289Y106633D01*
X135871Y107641D01*
X135207Y108506D01*
X134342Y109170D01*
X134138Y109255D01*
Y130903D01*
X134342Y130987D01*
X135207Y131651D01*
X135871Y132517D01*
X136289Y133525D01*
X136431Y134606D01*
X136289Y135688D01*
X135871Y136696D01*
X135207Y137561D01*
X134342Y138225D01*
X134138Y138310D01*
Y160903D01*
X134342Y160987D01*
X135207Y161651D01*
X135871Y162517D01*
X136289Y163525D01*
X136431Y164606D01*
X136289Y165688D01*
X135888Y166656D01*
X142010Y172778D01*
X168185D01*
X168376Y172317D01*
X153247Y157187D01*
X152974Y157300D01*
X152252Y157396D01*
X151530Y157300D01*
X150857Y157022D01*
X150280Y156579D01*
X149836Y156001D01*
X149558Y155328D01*
X149463Y154606D01*
X149477Y154499D01*
X144666Y149688D01*
X144257Y149076D01*
X144114Y148354D01*
Y95551D01*
Y42748D01*
X144257Y42026D01*
X144666Y41414D01*
X149477Y36604D01*
X149463Y36496D01*
X149558Y35774D01*
X149836Y35101D01*
X150280Y34524D01*
X150857Y34080D01*
X151530Y33802D01*
X152252Y33707D01*
X152974Y33802D01*
X153647Y34080D01*
X154224Y34524D01*
X154667Y35101D01*
X154946Y35774D01*
X155041Y36496D01*
X154946Y37218D01*
X154667Y37891D01*
X154224Y38468D01*
X153647Y38912D01*
X152974Y39190D01*
X152252Y39285D01*
X152145Y39271D01*
X147886Y43529D01*
Y93665D01*
X150214D01*
X150280Y93579D01*
X150857Y93136D01*
X151530Y92857D01*
X152252Y92762D01*
X152974Y92857D01*
X153647Y93136D01*
X154224Y93579D01*
X154667Y94157D01*
X154946Y94829D01*
X155041Y95551D01*
X154946Y96273D01*
X154667Y96946D01*
X154224Y97523D01*
X153647Y97967D01*
X152974Y98245D01*
X152252Y98340D01*
X151530Y98245D01*
X150857Y97967D01*
X150280Y97523D01*
X150214Y97437D01*
X147886D01*
Y147573D01*
X152145Y151831D01*
X152252Y151817D01*
X152974Y151912D01*
X153647Y152191D01*
X154224Y152634D01*
X154667Y153212D01*
X154946Y153884D01*
X155041Y154606D01*
X154946Y155328D01*
X154833Y155601D01*
X170410Y171178D01*
X215719D01*
X215910Y170717D01*
X213435Y168242D01*
X212468Y168643D01*
X211386Y168785D01*
X210304Y168643D01*
X209296Y168226D01*
X208431Y167561D01*
X207767Y166696D01*
X207349Y165688D01*
X207207Y164606D01*
X207349Y163525D01*
X207767Y162517D01*
X208431Y161651D01*
X209296Y160987D01*
X209500Y160903D01*
Y138310D01*
X209296Y138225D01*
X208431Y137561D01*
X207767Y136696D01*
X207349Y135688D01*
X207207Y134606D01*
X207349Y133525D01*
X207767Y132517D01*
X208431Y131651D01*
X209296Y130987D01*
X209500Y130903D01*
Y109255D01*
X209296Y109170D01*
X208431Y108506D01*
X207767Y107641D01*
X207349Y106633D01*
X207207Y105551D01*
X207349Y104470D01*
X207767Y103462D01*
X208431Y102596D01*
X209296Y101932D01*
X209500Y101848D01*
Y79255D01*
X209296Y79170D01*
X208431Y78506D01*
X207767Y77641D01*
X207349Y76633D01*
X207207Y75551D01*
X207349Y74470D01*
X207767Y73462D01*
X208431Y72596D01*
X209296Y71932D01*
X209500Y71848D01*
Y50199D01*
X209296Y50115D01*
X208431Y49451D01*
X207767Y48586D01*
X207349Y47578D01*
X207207Y46496D01*
X207349Y45414D01*
X207767Y44407D01*
X208431Y43541D01*
X209296Y42877D01*
X209500Y42793D01*
Y20199D01*
X209296Y20115D01*
X208431Y19451D01*
X207767Y18586D01*
X207349Y17578D01*
X207207Y16496D01*
X207349Y15414D01*
X207767Y14406D01*
X208431Y13541D01*
X209296Y12877D01*
X210304Y12459D01*
X211386Y12317D01*
X212468Y12459D01*
X213475Y12877D01*
X214341Y13541D01*
X215005Y14406D01*
X215423Y15414D01*
X215565Y16496D01*
X215423Y17578D01*
X215005Y18586D01*
X214341Y19451D01*
X213475Y20115D01*
X213272Y20199D01*
Y42793D01*
X213475Y42877D01*
X214341Y43541D01*
X215005Y44407D01*
X215423Y45414D01*
X215565Y46496D01*
X215423Y47578D01*
X215005Y48586D01*
X214341Y49451D01*
X213475Y50115D01*
X213272Y50199D01*
Y71848D01*
X213475Y71932D01*
X214341Y72596D01*
X215005Y73462D01*
X215423Y74470D01*
X215565Y75551D01*
X215423Y76633D01*
X215005Y77641D01*
X214341Y78506D01*
X213475Y79170D01*
X213272Y79255D01*
Y101848D01*
X213475Y101932D01*
X214341Y102596D01*
X215005Y103462D01*
X215423Y104470D01*
X215565Y105551D01*
X215423Y106633D01*
X215005Y107641D01*
X214341Y108506D01*
X213475Y109170D01*
X213272Y109255D01*
Y130903D01*
X213475Y130987D01*
X214341Y131651D01*
X215005Y132517D01*
X215423Y133525D01*
X215565Y134606D01*
X215423Y135688D01*
X215005Y136696D01*
X214341Y137561D01*
X213475Y138225D01*
X213272Y138310D01*
Y160903D01*
X213475Y160987D01*
X214341Y161651D01*
X215005Y162517D01*
X215423Y163525D01*
X215565Y164606D01*
X215423Y165688D01*
X215021Y166656D01*
X217944Y169578D01*
X246435D01*
X260066Y155947D01*
X259748Y155559D01*
X259623Y155642D01*
X259194Y155728D01*
X259194Y155728D01*
X233914D01*
X233801Y156001D01*
X233358Y156579D01*
X232780Y157022D01*
X232108Y157300D01*
X231386Y157396D01*
X230664Y157300D01*
X229991Y157022D01*
X229414Y156579D01*
X228970Y156001D01*
X228692Y155328D01*
X228597Y154606D01*
X228611Y154499D01*
X223666Y149554D01*
X223257Y148942D01*
X223114Y148221D01*
Y95551D01*
Y42882D01*
X223257Y42160D01*
X223666Y41548D01*
X228611Y36604D01*
X228597Y36496D01*
X228692Y35774D01*
X228970Y35101D01*
X229414Y34524D01*
X229991Y34080D01*
X230664Y33802D01*
X231386Y33707D01*
X232108Y33802D01*
X232780Y34080D01*
X233358Y34524D01*
X233801Y35101D01*
X234080Y35774D01*
X234175Y36496D01*
X234080Y37218D01*
X233801Y37891D01*
X233358Y38468D01*
X232780Y38912D01*
X232108Y39190D01*
X231386Y39285D01*
X231278Y39271D01*
X226886Y43663D01*
Y93665D01*
X229348D01*
X229414Y93579D01*
X229991Y93136D01*
X230664Y92857D01*
X231386Y92762D01*
X232108Y92857D01*
X232780Y93136D01*
X233358Y93579D01*
X233801Y94157D01*
X234080Y94829D01*
X234175Y95551D01*
X234080Y96273D01*
X233801Y96946D01*
X233358Y97523D01*
X232780Y97967D01*
X232108Y98245D01*
X231386Y98340D01*
X230664Y98245D01*
X229991Y97967D01*
X229414Y97523D01*
X229348Y97437D01*
X226886D01*
Y147439D01*
X231278Y151831D01*
X231386Y151817D01*
X232108Y151912D01*
X232780Y152191D01*
X233358Y152634D01*
X233801Y153212D01*
X233914Y153485D01*
X258729D01*
X266322Y145892D01*
X266284Y145700D01*
X266422Y145005D01*
X266816Y144416D01*
X267405Y144022D01*
X268100Y143884D01*
X268795Y144022D01*
X269384Y144416D01*
X269778Y145005D01*
X269916Y145700D01*
X269778Y146395D01*
X269384Y146984D01*
X268795Y147378D01*
X268403Y147456D01*
X268318Y147577D01*
X268489Y148103D01*
X268530Y148146D01*
X269084Y148516D01*
X269427Y149030D01*
X269700Y149071D01*
X269973Y149030D01*
X270316Y148516D01*
X270905Y148122D01*
X271600Y147984D01*
X272295Y148122D01*
X272884Y148516D01*
X273074Y148801D01*
X273676D01*
X273866Y148516D01*
X274455Y148122D01*
X275150Y147984D01*
X275845Y148122D01*
X276434Y148516D01*
X276828Y149105D01*
X276966Y149800D01*
X276828Y150495D01*
X276434Y151084D01*
X275845Y151478D01*
X275150Y151616D01*
X274958Y151578D01*
X263585Y162951D01*
X263831Y163412D01*
X264000Y163378D01*
X264000Y163378D01*
X269035D01*
X277307Y155107D01*
X277307Y155107D01*
X277671Y154864D01*
X278100Y154778D01*
X278100Y154778D01*
X280007D01*
X280116Y154616D01*
X280705Y154222D01*
X281400Y154084D01*
X282095Y154222D01*
X282684Y154616D01*
X283078Y155205D01*
X283216Y155900D01*
X283078Y156595D01*
X282684Y157184D01*
X282095Y157578D01*
X281510Y157694D01*
X281394Y158162D01*
X281394Y158188D01*
X281884Y158516D01*
X282278Y159105D01*
X282416Y159800D01*
X282278Y160495D01*
X281884Y161084D01*
X281295Y161478D01*
X280600Y161616D01*
X280408Y161578D01*
X274693Y167293D01*
X274329Y167536D01*
X273900Y167622D01*
X273900Y167622D01*
X265965D01*
X256266Y177320D01*
X256457Y177782D01*
X259466D01*
X259734Y177282D01*
X259445Y176851D01*
X259376Y176500D01*
X263624D01*
X263555Y176851D01*
X263266Y177282D01*
X263534Y177782D01*
X291020D01*
X296707Y172095D01*
X296542Y171553D01*
X296226Y171490D01*
X295514Y171014D01*
X295039Y170303D01*
X294872Y169465D01*
X295039Y168626D01*
X295514Y167914D01*
X296226Y167439D01*
X297064Y167272D01*
X297903Y167439D01*
X298615Y167914D01*
X299090Y168626D01*
X299153Y168942D01*
X299695Y169107D01*
X299987Y168816D01*
X300284Y168617D01*
X300407Y168592D01*
Y168083D01*
X299761Y167954D01*
X299050Y167479D01*
X298575Y166768D01*
X298408Y165929D01*
X298575Y165090D01*
X298662Y164960D01*
X298281Y164578D01*
X297849Y164664D01*
X297154Y164526D01*
X296564Y164133D01*
X296171Y163543D01*
X296033Y162848D01*
X296171Y162154D01*
X296564Y161564D01*
X297154Y161171D01*
X297329Y161136D01*
X297555Y160581D01*
X297544Y160564D01*
X297442Y160508D01*
X297400Y160516D01*
X296705Y160378D01*
X296116Y159984D01*
X295722Y159395D01*
X295584Y158700D01*
X295722Y158005D01*
X296116Y157416D01*
X296705Y157022D01*
X297400Y156884D01*
X298095Y157022D01*
X298684Y157416D01*
X299078Y158005D01*
X299216Y158700D01*
X299130Y159132D01*
X301473Y161476D01*
X302163D01*
X302586Y160843D01*
X303297Y160368D01*
X304135Y160201D01*
X304974Y160368D01*
X305686Y160843D01*
X306161Y161555D01*
X306328Y162393D01*
X306161Y163232D01*
X305686Y163944D01*
X304974Y164419D01*
X304135Y164585D01*
X303297Y164419D01*
X302586Y163944D01*
X302163Y163311D01*
X301093D01*
X300742Y163241D01*
X300445Y163042D01*
X300267Y162865D01*
X299768Y163027D01*
X299705Y163408D01*
X300128Y163831D01*
X300600Y163737D01*
X301439Y163904D01*
X302150Y164379D01*
X302625Y165090D01*
X302792Y165929D01*
X302625Y166768D01*
X302150Y167479D01*
X301439Y167954D01*
X300973Y168047D01*
X301022Y168547D01*
X302163D01*
X302586Y167914D01*
X303297Y167439D01*
X304135Y167272D01*
X304974Y167439D01*
X305686Y167914D01*
X305972Y168343D01*
X306514D01*
X306666Y167843D01*
X306121Y167479D01*
X305646Y166768D01*
X305479Y165929D01*
X305646Y165090D01*
X306121Y164379D01*
X306832Y163904D01*
X307671Y163737D01*
X308510Y163904D01*
X309221Y164379D01*
X309507Y164807D01*
X310307D01*
X317293Y157821D01*
Y152493D01*
X317131Y152384D01*
X316737Y151795D01*
X316599Y151100D01*
X316737Y150405D01*
X317131Y149816D01*
X317293Y149707D01*
Y142685D01*
X317293Y142685D01*
X317379Y142256D01*
X317622Y141892D01*
X322807Y136707D01*
X322807Y136707D01*
X323171Y136464D01*
X323600Y136378D01*
X323600Y136378D01*
X334107D01*
X334216Y136216D01*
X334805Y135822D01*
X335500Y135684D01*
X336195Y135822D01*
X336784Y136216D01*
X337178Y136805D01*
X337316Y137500D01*
X337178Y138195D01*
X336784Y138784D01*
X336195Y139178D01*
X335500Y139316D01*
X334805Y139178D01*
X334216Y138784D01*
X334107Y138622D01*
X324065D01*
X323350Y139336D01*
X323515Y139878D01*
X323851Y139945D01*
X324572Y140427D01*
X325055Y141149D01*
X325124Y141500D01*
X323000D01*
Y142000D01*
X322500D01*
Y144124D01*
X322149Y144054D01*
X321427Y143572D01*
X320945Y142851D01*
X320879Y142515D01*
X320336Y142350D01*
X319536Y143150D01*
Y149707D01*
X319699Y149816D01*
X320093Y150405D01*
X320231Y151100D01*
X320093Y151795D01*
X319699Y152384D01*
X319536Y152493D01*
Y158285D01*
X319536Y158285D01*
X319451Y158714D01*
X319208Y159078D01*
X319208Y159078D01*
X311564Y166722D01*
X311200Y166965D01*
X310771Y167051D01*
X310771Y167051D01*
X309507D01*
X309221Y167479D01*
X308677Y167843D01*
X308828Y168343D01*
X311571D01*
X324278Y155635D01*
Y147093D01*
X324116Y146984D01*
X323722Y146395D01*
X323584Y145700D01*
X323722Y145005D01*
X324072Y144482D01*
X323954Y144253D01*
X323905Y144187D01*
X323794Y144066D01*
X323500Y144124D01*
Y142500D01*
X325124D01*
X325055Y142851D01*
X324593Y143541D01*
X324633Y143669D01*
X324839Y143995D01*
X325400Y143884D01*
X326095Y144022D01*
X326684Y144416D01*
X327078Y145005D01*
X327216Y145700D01*
X327078Y146395D01*
X326684Y146984D01*
X326521Y147093D01*
Y156100D01*
X326522Y156100D01*
X326436Y156529D01*
X326193Y156893D01*
X312829Y170257D01*
X312465Y170501D01*
X312035Y170586D01*
X312035Y170586D01*
X305972D01*
X305686Y171014D01*
X304974Y171490D01*
X304135Y171657D01*
X303297Y171490D01*
X303229Y171444D01*
X302868Y171805D01*
X303002Y172005D01*
X303200Y173000D01*
X303002Y173995D01*
X302722Y174415D01*
X300954Y172646D01*
X300247Y173354D01*
X302015Y175122D01*
X301595Y175402D01*
X300600Y175600D01*
X300108Y175502D01*
X299941Y175733D01*
X299860Y175962D01*
X300339Y176679D01*
X300521Y177596D01*
X300339Y178513D01*
X299819Y179290D01*
X299042Y179810D01*
X298125Y179992D01*
D02*
G37*
G36*
X308824Y173200D02*
X307200D01*
Y171576D01*
X307551Y171645D01*
X308273Y172127D01*
X308755Y172849D01*
X308824Y173200D01*
D02*
G37*
G36*
X306200D02*
X304576D01*
X304645Y172849D01*
X305128Y172127D01*
X305849Y171645D01*
X306200Y171576D01*
Y173200D01*
D02*
G37*
G36*
X289000Y171624D02*
X288649Y171555D01*
X287928Y171072D01*
X287445Y170351D01*
X287376Y170000D01*
X289000D01*
Y171624D01*
D02*
G37*
G36*
X292468Y174335D02*
X291551Y174153D01*
X290774Y173634D01*
X290255Y172856D01*
X290072Y171939D01*
X290000Y171867D01*
Y169500D01*
Y167376D01*
X290351Y167446D01*
X291073Y167928D01*
X291555Y168649D01*
X291663Y169194D01*
X292175Y169602D01*
X292468Y169543D01*
X293385Y169726D01*
X294163Y170245D01*
X294682Y171022D01*
X294864Y171939D01*
X294682Y172856D01*
X294163Y173634D01*
X293385Y174153D01*
X292468Y174335D01*
D02*
G37*
G36*
X289000Y169000D02*
X287376D01*
X287445Y168649D01*
X287928Y167928D01*
X288649Y167446D01*
X289000Y167376D01*
Y169000D01*
D02*
G37*
G36*
X293500Y168124D02*
Y166500D01*
X295124D01*
X295055Y166851D01*
X294572Y167572D01*
X293851Y168054D01*
X293500Y168124D01*
D02*
G37*
G36*
X292500D02*
X292149Y168054D01*
X291427Y167572D01*
X290945Y166851D01*
X290876Y166500D01*
X292500D01*
Y168124D01*
D02*
G37*
G36*
X328740Y178192D02*
X327388Y178059D01*
X326087Y177665D01*
X324889Y177024D01*
X323838Y176162D01*
X322976Y175111D01*
X322335Y173913D01*
X321941Y172612D01*
X321808Y171260D01*
X321941Y169907D01*
X322335Y168607D01*
X322976Y167408D01*
X323838Y166358D01*
X324889Y165496D01*
X326087Y164855D01*
X327388Y164461D01*
X328740Y164327D01*
X330093Y164461D01*
X331393Y164855D01*
X332592Y165496D01*
X333642Y166358D01*
X334504Y167408D01*
X335145Y168607D01*
X335540Y169907D01*
X335673Y171260D01*
X335540Y172612D01*
X335145Y173913D01*
X334504Y175111D01*
X333642Y176162D01*
X332592Y177024D01*
X331393Y177665D01*
X330093Y178059D01*
X328740Y178192D01*
D02*
G37*
G36*
X9843D02*
X8490Y178059D01*
X7190Y177665D01*
X5991Y177024D01*
X4940Y176162D01*
X4078Y175111D01*
X3438Y173913D01*
X3043Y172612D01*
X2910Y171260D01*
X3043Y169907D01*
X3438Y168607D01*
X4078Y167408D01*
X4940Y166358D01*
X5991Y165496D01*
X7190Y164855D01*
X8490Y164461D01*
X9843Y164327D01*
X11195Y164461D01*
X12495Y164855D01*
X13694Y165496D01*
X14745Y166358D01*
X15607Y167408D01*
X16247Y168607D01*
X16642Y169907D01*
X16775Y171260D01*
X16642Y172612D01*
X16247Y173913D01*
X15607Y175111D01*
X14745Y176162D01*
X13694Y177024D01*
X12495Y177665D01*
X11195Y178059D01*
X9843Y178192D01*
D02*
G37*
G36*
X295124Y165500D02*
X293500D01*
Y163876D01*
X293851Y163945D01*
X294572Y164427D01*
X295055Y165149D01*
X295124Y165500D01*
D02*
G37*
G36*
X292500D02*
X290876D01*
X290945Y165149D01*
X291427Y164427D01*
X292149Y163945D01*
X292500Y163876D01*
Y165500D01*
D02*
G37*
G36*
X231386Y167395D02*
X230664Y167300D01*
X229991Y167022D01*
X229414Y166579D01*
X228970Y166001D01*
X228692Y165328D01*
X228597Y164606D01*
X228692Y163884D01*
X228970Y163212D01*
X229414Y162634D01*
X229991Y162191D01*
X230664Y161912D01*
X231386Y161817D01*
X232108Y161912D01*
X232780Y162191D01*
X233358Y162634D01*
X233801Y163212D01*
X234080Y163884D01*
X234175Y164606D01*
X234080Y165328D01*
X233801Y166001D01*
X233358Y166579D01*
X232780Y167022D01*
X232108Y167300D01*
X231386Y167395D01*
D02*
G37*
G36*
X181366D02*
X180644Y167300D01*
X179972Y167022D01*
X179394Y166579D01*
X178951Y166001D01*
X178672Y165328D01*
X178577Y164606D01*
X178672Y163884D01*
X178951Y163212D01*
X179394Y162634D01*
X179972Y162191D01*
X180644Y161912D01*
X181366Y161817D01*
X182088Y161912D01*
X182761Y162191D01*
X183338Y162634D01*
X183782Y163212D01*
X184060Y163884D01*
X184155Y164606D01*
X184060Y165328D01*
X183782Y166001D01*
X183338Y166579D01*
X182761Y167022D01*
X182088Y167300D01*
X181366Y167395D01*
D02*
G37*
G36*
X152252D02*
X151530Y167300D01*
X150857Y167022D01*
X150280Y166579D01*
X149836Y166001D01*
X149558Y165328D01*
X149463Y164606D01*
X149558Y163884D01*
X149836Y163212D01*
X150280Y162634D01*
X150857Y162191D01*
X151530Y161912D01*
X152252Y161817D01*
X152974Y161912D01*
X153647Y162191D01*
X154224Y162634D01*
X154667Y163212D01*
X154946Y163884D01*
X155041Y164606D01*
X154946Y165328D01*
X154667Y166001D01*
X154224Y166579D01*
X153647Y167022D01*
X152974Y167300D01*
X152252Y167395D01*
D02*
G37*
G36*
X102232D02*
X101510Y167300D01*
X100838Y167022D01*
X100260Y166579D01*
X99817Y166001D01*
X99538Y165328D01*
X99443Y164606D01*
X99538Y163884D01*
X99817Y163212D01*
X100260Y162634D01*
X100838Y162191D01*
X101510Y161912D01*
X102232Y161817D01*
X102954Y161912D01*
X103627Y162191D01*
X104204Y162634D01*
X104648Y163212D01*
X104926Y163884D01*
X105022Y164606D01*
X104926Y165328D01*
X104648Y166001D01*
X104204Y166579D01*
X103627Y167022D01*
X102954Y167300D01*
X102232Y167395D01*
D02*
G37*
G36*
X73118D02*
X72396Y167300D01*
X71724Y167022D01*
X71146Y166579D01*
X70703Y166001D01*
X70424Y165328D01*
X70329Y164606D01*
X70424Y163884D01*
X70703Y163212D01*
X71146Y162634D01*
X71724Y162191D01*
X72396Y161912D01*
X73118Y161817D01*
X73840Y161912D01*
X74513Y162191D01*
X75090Y162634D01*
X75534Y163212D01*
X75812Y163884D01*
X75907Y164606D01*
X75812Y165328D01*
X75534Y166001D01*
X75090Y166579D01*
X74513Y167022D01*
X73840Y167300D01*
X73118Y167395D01*
D02*
G37*
G36*
X23098D02*
X22377Y167300D01*
X21704Y167022D01*
X21126Y166579D01*
X20683Y166001D01*
X20404Y165328D01*
X20309Y164606D01*
X20404Y163884D01*
X20683Y163212D01*
X21126Y162634D01*
X21704Y162191D01*
X22377Y161912D01*
X23098Y161817D01*
X23820Y161912D01*
X24493Y162191D01*
X25071Y162634D01*
X25514Y163212D01*
X25793Y163884D01*
X25888Y164606D01*
X25793Y165328D01*
X25514Y166001D01*
X25071Y166579D01*
X24493Y167022D01*
X23820Y167300D01*
X23098Y167395D01*
D02*
G37*
G36*
X191386Y168785D02*
X190304Y168643D01*
X189296Y168226D01*
X188431Y167561D01*
X187767Y166696D01*
X187349Y165688D01*
X187207Y164606D01*
X187349Y163525D01*
X187767Y162517D01*
X188431Y161651D01*
X189296Y160987D01*
X190304Y160570D01*
X191386Y160427D01*
X192467Y160570D01*
X193475Y160987D01*
X194341Y161651D01*
X195005Y162517D01*
X195422Y163525D01*
X195565Y164606D01*
X195422Y165688D01*
X195005Y166696D01*
X194341Y167561D01*
X193475Y168226D01*
X192467Y168643D01*
X191386Y168785D01*
D02*
G37*
G36*
X112252D02*
X111170Y168643D01*
X110162Y168226D01*
X109297Y167561D01*
X108633Y166696D01*
X108215Y165688D01*
X108073Y164606D01*
X108215Y163525D01*
X108633Y162517D01*
X109297Y161651D01*
X110162Y160987D01*
X111170Y160570D01*
X112252Y160427D01*
X113334Y160570D01*
X114341Y160987D01*
X115207Y161651D01*
X115871Y162517D01*
X116289Y163525D01*
X116431Y164606D01*
X116289Y165688D01*
X115871Y166696D01*
X115207Y167561D01*
X114341Y168226D01*
X113334Y168643D01*
X112252Y168785D01*
D02*
G37*
G36*
X33118D02*
X32037Y168643D01*
X31029Y168226D01*
X30163Y167561D01*
X29499Y166696D01*
X29081Y165688D01*
X28939Y164606D01*
X29081Y163525D01*
X29499Y162517D01*
X30163Y161651D01*
X31029Y160987D01*
X32037Y160570D01*
X33118Y160427D01*
X34200Y160570D01*
X35208Y160987D01*
X36073Y161651D01*
X36737Y162517D01*
X37155Y163525D01*
X37297Y164606D01*
X37155Y165688D01*
X36737Y166696D01*
X36073Y167561D01*
X35208Y168226D01*
X34200Y168643D01*
X33118Y168785D01*
D02*
G37*
G36*
X309439Y163022D02*
X308522Y162839D01*
X307745Y162320D01*
X307225Y161543D01*
X307043Y160626D01*
X307225Y159709D01*
X307745Y158931D01*
X308522Y158412D01*
X309439Y158230D01*
X310356Y158412D01*
X311133Y158931D01*
X311652Y159709D01*
X311835Y160626D01*
X311652Y161543D01*
X311133Y162320D01*
X310356Y162839D01*
X309439Y163022D01*
D02*
G37*
G36*
X292100Y149524D02*
Y147900D01*
X293724D01*
X293655Y148251D01*
X293173Y148972D01*
X292451Y149454D01*
X292100Y149524D01*
D02*
G37*
G36*
X291100D02*
X290749Y149454D01*
X290027Y148972D01*
X289545Y148251D01*
X289476Y147900D01*
X291100D01*
Y149524D01*
D02*
G37*
G36*
X331500Y148124D02*
Y146500D01*
X333124D01*
X333055Y146851D01*
X332573Y147573D01*
X331851Y148055D01*
X331500Y148124D01*
D02*
G37*
G36*
X330500D02*
X330149Y148055D01*
X329428Y147573D01*
X328945Y146851D01*
X328876Y146500D01*
X330500D01*
Y148124D01*
D02*
G37*
G36*
X293724Y146900D02*
X292100D01*
Y145276D01*
X292451Y145345D01*
X293173Y145827D01*
X293655Y146549D01*
X293724Y146900D01*
D02*
G37*
G36*
X291100D02*
X289476D01*
X289545Y146549D01*
X290027Y145827D01*
X290749Y145345D01*
X291100Y145276D01*
Y146900D01*
D02*
G37*
G36*
X333124Y145500D02*
X331500D01*
Y143876D01*
X331851Y143946D01*
X332573Y144428D01*
X333055Y145149D01*
X333124Y145500D01*
D02*
G37*
G36*
X330500D02*
X328876D01*
X328945Y145149D01*
X329428Y144428D01*
X330149Y143946D01*
X330500Y143876D01*
Y145500D01*
D02*
G37*
G36*
X152252Y147396D02*
X151530Y147301D01*
X150857Y147022D01*
X150280Y146579D01*
X149836Y146001D01*
X149558Y145328D01*
X149463Y144606D01*
X149558Y143884D01*
X149836Y143212D01*
X150280Y142634D01*
X150857Y142191D01*
X151530Y141912D01*
X152252Y141817D01*
X152974Y141912D01*
X153647Y142191D01*
X154224Y142634D01*
X154667Y143212D01*
X154946Y143884D01*
X155041Y144606D01*
X154946Y145328D01*
X154667Y146001D01*
X154224Y146579D01*
X153647Y147022D01*
X152974Y147301D01*
X152252Y147396D01*
D02*
G37*
G36*
X73118D02*
X72396Y147301D01*
X71724Y147022D01*
X71146Y146579D01*
X70703Y146001D01*
X70424Y145328D01*
X70329Y144606D01*
X70424Y143884D01*
X70703Y143212D01*
X71146Y142634D01*
X71724Y142191D01*
X72396Y141912D01*
X73118Y141817D01*
X73840Y141912D01*
X74513Y142191D01*
X75090Y142634D01*
X75534Y143212D01*
X75812Y143884D01*
X75907Y144606D01*
X75812Y145328D01*
X75534Y146001D01*
X75090Y146579D01*
X74513Y147022D01*
X73840Y147301D01*
X73118Y147396D01*
D02*
G37*
G36*
X305600Y142824D02*
Y141200D01*
X307224D01*
X307155Y141551D01*
X306673Y142272D01*
X305951Y142754D01*
X305600Y142824D01*
D02*
G37*
G36*
X304600D02*
X304249Y142754D01*
X303527Y142272D01*
X303045Y141551D01*
X302976Y141200D01*
X304600D01*
Y142824D01*
D02*
G37*
G36*
X307224Y140200D02*
X305600D01*
Y138576D01*
X305951Y138646D01*
X306673Y139128D01*
X307155Y139849D01*
X307224Y140200D01*
D02*
G37*
G36*
X304600D02*
X302976D01*
X303045Y139849D01*
X303527Y139128D01*
X304249Y138646D01*
X304600Y138576D01*
Y140200D01*
D02*
G37*
G36*
X280600Y135824D02*
Y134200D01*
X282224D01*
X282155Y134551D01*
X281673Y135273D01*
X280951Y135755D01*
X280600Y135824D01*
D02*
G37*
G36*
X279600D02*
X279249Y135755D01*
X278527Y135273D01*
X278045Y134551D01*
X277976Y134200D01*
X279600D01*
Y135824D01*
D02*
G37*
G36*
X264000Y135624D02*
Y134000D01*
X265624D01*
X265555Y134351D01*
X265072Y135073D01*
X264351Y135555D01*
X264000Y135624D01*
D02*
G37*
G36*
X336000Y134624D02*
Y133000D01*
X337624D01*
X337555Y133351D01*
X337072Y134072D01*
X336351Y134555D01*
X336000Y134624D01*
D02*
G37*
G36*
X335000D02*
X334649Y134555D01*
X333927Y134072D01*
X333445Y133351D01*
X333376Y133000D01*
X335000D01*
Y134624D01*
D02*
G37*
G36*
X241406Y137396D02*
X240684Y137301D01*
X240011Y137022D01*
X239433Y136579D01*
X238990Y136001D01*
X238711Y135328D01*
X238616Y134606D01*
X238711Y133884D01*
X238990Y133212D01*
X239433Y132634D01*
X240011Y132191D01*
X240684Y131912D01*
X241406Y131817D01*
X242127Y131912D01*
X242800Y132191D01*
X243378Y132634D01*
X243821Y133212D01*
X244100Y133884D01*
X244195Y134606D01*
X244100Y135328D01*
X243821Y136001D01*
X243378Y136579D01*
X242800Y137022D01*
X242127Y137301D01*
X241406Y137396D01*
D02*
G37*
G36*
X231386D02*
X230664Y137301D01*
X229991Y137022D01*
X229414Y136579D01*
X228970Y136001D01*
X228692Y135328D01*
X228597Y134606D01*
X228692Y133884D01*
X228970Y133212D01*
X229414Y132634D01*
X229991Y132191D01*
X230664Y131912D01*
X231386Y131817D01*
X232108Y131912D01*
X232780Y132191D01*
X233358Y132634D01*
X233801Y133212D01*
X234080Y133884D01*
X234175Y134606D01*
X234080Y135328D01*
X233801Y136001D01*
X233358Y136579D01*
X232780Y137022D01*
X232108Y137301D01*
X231386Y137396D01*
D02*
G37*
G36*
X162272D02*
X161550Y137301D01*
X160877Y137022D01*
X160299Y136579D01*
X159856Y136001D01*
X159578Y135328D01*
X159482Y134606D01*
X159578Y133884D01*
X159856Y133212D01*
X160299Y132634D01*
X160877Y132191D01*
X161550Y131912D01*
X162272Y131817D01*
X162994Y131912D01*
X163666Y132191D01*
X164244Y132634D01*
X164687Y133212D01*
X164966Y133884D01*
X165061Y134606D01*
X164966Y135328D01*
X164687Y136001D01*
X164244Y136579D01*
X163666Y137022D01*
X162994Y137301D01*
X162272Y137396D01*
D02*
G37*
G36*
X152252D02*
X151530Y137301D01*
X150857Y137022D01*
X150280Y136579D01*
X149836Y136001D01*
X149558Y135328D01*
X149463Y134606D01*
X149558Y133884D01*
X149836Y133212D01*
X150280Y132634D01*
X150857Y132191D01*
X151530Y131912D01*
X152252Y131817D01*
X152974Y131912D01*
X153647Y132191D01*
X154224Y132634D01*
X154667Y133212D01*
X154946Y133884D01*
X155041Y134606D01*
X154946Y135328D01*
X154667Y136001D01*
X154224Y136579D01*
X153647Y137022D01*
X152974Y137301D01*
X152252Y137396D01*
D02*
G37*
G36*
X83138D02*
X82416Y137301D01*
X81743Y137022D01*
X81165Y136579D01*
X80722Y136001D01*
X80444Y135328D01*
X80349Y134606D01*
X80444Y133884D01*
X80722Y133212D01*
X81165Y132634D01*
X81743Y132191D01*
X82416Y131912D01*
X83138Y131817D01*
X83860Y131912D01*
X84532Y132191D01*
X85110Y132634D01*
X85553Y133212D01*
X85832Y133884D01*
X85927Y134606D01*
X85832Y135328D01*
X85553Y136001D01*
X85110Y136579D01*
X84532Y137022D01*
X83860Y137301D01*
X83138Y137396D01*
D02*
G37*
G36*
X73118D02*
X72396Y137301D01*
X71724Y137022D01*
X71146Y136579D01*
X70703Y136001D01*
X70424Y135328D01*
X70329Y134606D01*
X70424Y133884D01*
X70703Y133212D01*
X71146Y132634D01*
X71724Y132191D01*
X72396Y131912D01*
X73118Y131817D01*
X73840Y131912D01*
X74513Y132191D01*
X75090Y132634D01*
X75534Y133212D01*
X75812Y133884D01*
X75907Y134606D01*
X75812Y135328D01*
X75534Y136001D01*
X75090Y136579D01*
X74513Y137022D01*
X73840Y137301D01*
X73118Y137396D01*
D02*
G37*
G36*
X302238Y133224D02*
Y131600D01*
X303862D01*
X303792Y131951D01*
X303310Y132673D01*
X302589Y133154D01*
X302238Y133224D01*
D02*
G37*
G36*
X301238D02*
X300887Y133154D01*
X300165Y132673D01*
X299683Y131951D01*
X299613Y131600D01*
X301238D01*
Y133224D01*
D02*
G37*
G36*
X265624Y133000D02*
X264000D01*
Y131376D01*
X264351Y131446D01*
X265072Y131928D01*
X265555Y132649D01*
X265624Y133000D01*
D02*
G37*
G36*
X287339Y132319D02*
X283965D01*
Y131012D01*
X287339D01*
Y132319D01*
D02*
G37*
G36*
X282224Y133200D02*
X277976D01*
X278045Y132849D01*
X278527Y132127D01*
X279249Y131646D01*
X279591Y131578D01*
Y131012D01*
X282965D01*
Y132319D01*
X282331D01*
X282095Y132760D01*
X282155Y132849D01*
X282224Y133200D01*
D02*
G37*
G36*
X191386Y138785D02*
X190304Y138643D01*
X189296Y138225D01*
X188431Y137561D01*
X187767Y136696D01*
X187349Y135688D01*
X187207Y134606D01*
X187349Y133525D01*
X187767Y132517D01*
X188431Y131651D01*
X189296Y130987D01*
X190304Y130570D01*
X191386Y130427D01*
X192467Y130570D01*
X193475Y130987D01*
X194341Y131651D01*
X195005Y132517D01*
X195422Y133525D01*
X195565Y134606D01*
X195422Y135688D01*
X195005Y136696D01*
X194341Y137561D01*
X193475Y138225D01*
X192467Y138643D01*
X191386Y138785D01*
D02*
G37*
G36*
X112252D02*
X111170Y138643D01*
X110162Y138225D01*
X109297Y137561D01*
X108633Y136696D01*
X108215Y135688D01*
X108073Y134606D01*
X108215Y133525D01*
X108633Y132517D01*
X109297Y131651D01*
X110162Y130987D01*
X111170Y130570D01*
X112252Y130427D01*
X113334Y130570D01*
X114341Y130987D01*
X115207Y131651D01*
X115871Y132517D01*
X116289Y133525D01*
X116431Y134606D01*
X116289Y135688D01*
X115871Y136696D01*
X115207Y137561D01*
X114341Y138225D01*
X113334Y138643D01*
X112252Y138785D01*
D02*
G37*
G36*
X33118D02*
X32037Y138643D01*
X31029Y138225D01*
X30163Y137561D01*
X29499Y136696D01*
X29081Y135688D01*
X28939Y134606D01*
X29081Y133525D01*
X29499Y132517D01*
X30163Y131651D01*
X31029Y130987D01*
X32037Y130570D01*
X33118Y130427D01*
X34200Y130570D01*
X35208Y130987D01*
X36073Y131651D01*
X36737Y132517D01*
X37155Y133525D01*
X37297Y134606D01*
X37155Y135688D01*
X36737Y136696D01*
X36073Y137561D01*
X35208Y138225D01*
X34200Y138643D01*
X33118Y138785D01*
D02*
G37*
G36*
X337624Y132000D02*
X336000D01*
Y130376D01*
X336351Y130446D01*
X337072Y130928D01*
X337555Y131649D01*
X337624Y132000D01*
D02*
G37*
G36*
X335000D02*
X333376D01*
X333445Y131649D01*
X333927Y130928D01*
X334649Y130446D01*
X335000Y130376D01*
Y132000D01*
D02*
G37*
G36*
X231386Y147396D02*
X230664Y147301D01*
X229991Y147022D01*
X229414Y146579D01*
X228970Y146001D01*
X228692Y145328D01*
X228597Y144606D01*
X228692Y143884D01*
X228970Y143212D01*
X229414Y142634D01*
X229991Y142191D01*
X230664Y141912D01*
X231386Y141817D01*
X232108Y141912D01*
X232780Y142191D01*
X233358Y142634D01*
X233801Y143212D01*
X233999Y143689D01*
X238814D01*
X250582Y131920D01*
Y127629D01*
X250216Y127384D01*
X249822Y126795D01*
X249300Y126732D01*
X249073Y127073D01*
X248351Y127555D01*
X248000Y127624D01*
Y125500D01*
Y123376D01*
X248351Y123445D01*
X249073Y123927D01*
X249555Y124649D01*
X249594Y124847D01*
X250125Y124952D01*
X250216Y124816D01*
X250805Y124422D01*
X251500Y124284D01*
X252195Y124422D01*
X252784Y124816D01*
X253178Y125405D01*
X253316Y126100D01*
X253178Y126795D01*
X252784Y127384D01*
X252418Y127629D01*
Y132300D01*
X252348Y132651D01*
X252149Y132949D01*
X239843Y145255D01*
X239545Y145454D01*
X239194Y145524D01*
X233999D01*
X233801Y146001D01*
X233358Y146579D01*
X232780Y147022D01*
X232108Y147301D01*
X231386Y147396D01*
D02*
G37*
G36*
X247000Y127624D02*
X246649Y127555D01*
X245928Y127073D01*
X245445Y126351D01*
X245376Y126000D01*
X247000D01*
Y127624D01*
D02*
G37*
G36*
X257700Y151816D02*
X257005Y151678D01*
X256416Y151284D01*
X256022Y150695D01*
X255884Y150000D01*
X256022Y149305D01*
X256416Y148716D01*
X256578Y148607D01*
Y128500D01*
X256578Y128500D01*
X256664Y128071D01*
X256907Y127707D01*
X260979Y123635D01*
Y113166D01*
X260538Y112930D01*
X260351Y113055D01*
X260000Y113124D01*
Y111000D01*
Y108876D01*
X260351Y108946D01*
X260538Y109070D01*
X260979Y108834D01*
Y96337D01*
X260978Y96337D01*
X261064Y95908D01*
X261307Y95544D01*
X276739Y80112D01*
X277103Y79869D01*
X277532Y79784D01*
X277532Y79784D01*
X279991D01*
Y76743D01*
Y73987D01*
Y71270D01*
Y68514D01*
Y65758D01*
Y63002D01*
Y60246D01*
Y57491D01*
Y55193D01*
X279591D01*
Y53886D01*
X287339D01*
Y55020D01*
X317494D01*
X320822Y51692D01*
X320784Y51500D01*
X320922Y50805D01*
X321316Y50216D01*
X321905Y49822D01*
X322600Y49684D01*
X323295Y49822D01*
X323884Y50216D01*
X324278Y50805D01*
X324416Y51500D01*
X324278Y52195D01*
X323884Y52784D01*
X323295Y53178D01*
X322600Y53316D01*
X322408Y53278D01*
X318751Y56935D01*
X318388Y57178D01*
X317958Y57263D01*
X317958Y57263D01*
X286939D01*
Y57776D01*
X319738D01*
X320822Y56692D01*
X320784Y56500D01*
X320922Y55805D01*
X321316Y55216D01*
X321905Y54822D01*
X322600Y54684D01*
X323295Y54822D01*
X323884Y55216D01*
X324278Y55805D01*
X324416Y56500D01*
X324278Y57195D01*
X323884Y57784D01*
X323295Y58178D01*
X322600Y58316D01*
X322408Y58278D01*
X321289Y59397D01*
X321496Y59897D01*
X321597D01*
X321597Y59897D01*
X321948Y59967D01*
X322600Y59838D01*
X323295Y59976D01*
X323884Y60369D01*
X324278Y60959D01*
X324416Y61654D01*
X324278Y62349D01*
X323884Y62938D01*
X323295Y63331D01*
X322600Y63469D01*
X321905Y63331D01*
X321316Y62938D01*
X320922Y62349D01*
X320881Y62140D01*
X299898D01*
X299690Y62528D01*
X299685Y62640D01*
X299816Y63300D01*
X299678Y63995D01*
X299284Y64584D01*
X298894Y64845D01*
Y70795D01*
X299260Y71039D01*
X299654Y71629D01*
X299792Y72324D01*
X299654Y73019D01*
X299260Y73608D01*
X298671Y74001D01*
X297976Y74140D01*
X297281Y74001D01*
X296692Y73608D01*
X296299Y73019D01*
X296160Y72324D01*
X296299Y71629D01*
X296692Y71039D01*
X297059Y70795D01*
Y64813D01*
X296716Y64584D01*
X296322Y63995D01*
X296184Y63300D01*
X296315Y62640D01*
X296310Y62528D01*
X296102Y62140D01*
X293020D01*
X292714Y62447D01*
X292350Y62690D01*
X291921Y62775D01*
X291921Y62775D01*
X286939D01*
Y65758D01*
Y68514D01*
Y71270D01*
Y73987D01*
Y77028D01*
X314486D01*
X320822Y70692D01*
X320784Y70500D01*
X320922Y69805D01*
X321316Y69216D01*
X321905Y68822D01*
X322600Y68684D01*
X323295Y68822D01*
X323884Y69216D01*
X324278Y69805D01*
X324381Y70325D01*
X324880Y70534D01*
X325707Y69707D01*
X325707Y69707D01*
X326071Y69464D01*
X326500Y69378D01*
X326500Y69378D01*
X333857D01*
X333966Y69216D01*
X334555Y68822D01*
X335250Y68684D01*
X335945Y68822D01*
X336534Y69216D01*
X336928Y69805D01*
X337066Y70500D01*
X336928Y71195D01*
X336534Y71784D01*
X335945Y72178D01*
X335250Y72316D01*
X334555Y72178D01*
X333966Y71784D01*
X333857Y71622D01*
X326965D01*
X316888Y81699D01*
X316524Y81942D01*
X316094Y82027D01*
X316094Y82027D01*
X286939D01*
Y85010D01*
Y87766D01*
Y90808D01*
X291155D01*
X291216Y90716D01*
X291805Y90322D01*
X292500Y90184D01*
X293195Y90322D01*
X293784Y90716D01*
X293845Y90808D01*
X310706D01*
X320822Y80692D01*
X320784Y80500D01*
X320922Y79805D01*
X321316Y79216D01*
X321905Y78822D01*
X322600Y78684D01*
X323295Y78822D01*
X323884Y79216D01*
X324278Y79805D01*
X324416Y80500D01*
X324278Y81195D01*
X323884Y81784D01*
X323295Y82178D01*
X322600Y82316D01*
X322408Y82278D01*
X311964Y92722D01*
X311600Y92965D01*
X311171Y93051D01*
X311171Y93051D01*
X294491D01*
X294483Y93063D01*
X294766Y93563D01*
X312950D01*
X320822Y85692D01*
X320784Y85500D01*
X320922Y84805D01*
X321316Y84216D01*
X321905Y83822D01*
X322600Y83684D01*
X323295Y83822D01*
X323884Y84216D01*
X324278Y84805D01*
X324416Y85500D01*
X324278Y86195D01*
X323884Y86784D01*
X323295Y87178D01*
X322600Y87316D01*
X322408Y87278D01*
X314208Y95478D01*
X313844Y95721D01*
X313415Y95807D01*
X313415Y95807D01*
X286939D01*
Y99075D01*
X312439D01*
X320822Y90692D01*
X320784Y90500D01*
X320922Y89805D01*
X321316Y89216D01*
X321905Y88822D01*
X322600Y88684D01*
X323295Y88822D01*
X323884Y89216D01*
X324278Y89805D01*
X324416Y90500D01*
X324278Y91195D01*
X323884Y91784D01*
X323295Y92178D01*
X322600Y92316D01*
X322408Y92278D01*
X313696Y100990D01*
X313332Y101233D01*
X312903Y101318D01*
X312903Y101318D01*
X286939D01*
Y101831D01*
X319683D01*
X320822Y100692D01*
X320784Y100500D01*
X320922Y99805D01*
X321316Y99216D01*
X321905Y98822D01*
X322600Y98684D01*
X323295Y98822D01*
X323884Y99216D01*
X324278Y99805D01*
X324416Y100500D01*
X324278Y101195D01*
X323884Y101784D01*
X323295Y102178D01*
X322600Y102316D01*
X322408Y102278D01*
X320940Y103746D01*
X320577Y103989D01*
X320147Y104074D01*
X320147Y104074D01*
X286939D01*
Y104587D01*
X321207D01*
X321316Y104425D01*
X321905Y104031D01*
X322600Y103893D01*
X323295Y104031D01*
X323884Y104425D01*
X324278Y105014D01*
X324416Y105709D01*
X324278Y106404D01*
X323976Y106855D01*
X324174Y107355D01*
X332756D01*
X332756Y107355D01*
X333185Y107440D01*
X333549Y107683D01*
X335308Y109443D01*
X335500Y109405D01*
X336195Y109543D01*
X336784Y109936D01*
X337178Y110526D01*
X337316Y111221D01*
X337178Y111916D01*
X336784Y112505D01*
X336195Y112898D01*
X335500Y113037D01*
X334805Y112898D01*
X334216Y112505D01*
X333822Y111916D01*
X333684Y111221D01*
X333722Y111029D01*
X332291Y109598D01*
X324209D01*
X323992Y110098D01*
X324278Y110526D01*
X324416Y111221D01*
X324278Y111916D01*
X323884Y112505D01*
X323295Y112898D01*
X322600Y113037D01*
X321905Y112898D01*
X321316Y112505D01*
X321207Y112342D01*
X298879D01*
X298644Y112783D01*
X298755Y112949D01*
X298824Y113300D01*
X294576D01*
X294645Y112949D01*
X294756Y112783D01*
X294521Y112342D01*
X286939D01*
Y115325D01*
Y118367D01*
X332744D01*
X332744Y118367D01*
X333173Y118452D01*
X333537Y118695D01*
X335308Y120466D01*
X335500Y120428D01*
X336195Y120566D01*
X336784Y120960D01*
X337178Y121549D01*
X337316Y122244D01*
X337178Y122939D01*
X336784Y123528D01*
X336195Y123922D01*
X335500Y124060D01*
X334805Y123922D01*
X334216Y123528D01*
X333822Y122939D01*
X333684Y122244D01*
X333722Y122052D01*
X332279Y120610D01*
X324191D01*
X323984Y121110D01*
X324278Y121549D01*
X324416Y122244D01*
X324278Y122939D01*
X323984Y123378D01*
X324191Y123878D01*
X332750D01*
X332750Y123878D01*
X333179Y123964D01*
X333543Y124207D01*
X335308Y125972D01*
X335500Y125934D01*
X336195Y126072D01*
X336784Y126466D01*
X337178Y127055D01*
X337316Y127750D01*
X337178Y128445D01*
X336784Y129034D01*
X336195Y129428D01*
X335500Y129566D01*
X334805Y129428D01*
X334216Y129034D01*
X333822Y128445D01*
X333684Y127750D01*
X333722Y127558D01*
X332285Y126122D01*
X324044D01*
X323884Y126616D01*
X324278Y127205D01*
X324416Y127900D01*
X324278Y128595D01*
X323884Y129184D01*
X323295Y129578D01*
X322600Y129716D01*
X321905Y129578D01*
X321316Y129184D01*
X321204Y129016D01*
X303347Y128951D01*
X303194Y129450D01*
X303310Y129527D01*
X303792Y130249D01*
X303862Y130600D01*
X299613D01*
X299683Y130249D01*
X300165Y129527D01*
X300297Y129439D01*
X300146Y128939D01*
X287693Y128893D01*
X287339Y129246D01*
Y130012D01*
X279591D01*
Y128705D01*
X279991D01*
Y126349D01*
Y123593D01*
Y118653D01*
X279491Y118372D01*
X279377Y118442D01*
X279354Y118484D01*
Y127668D01*
X279354Y127668D01*
X279269Y128097D01*
X279025Y128461D01*
X279025Y128461D01*
X274945Y132542D01*
X275016Y132900D01*
X274878Y133595D01*
X274484Y134184D01*
X273895Y134578D01*
X273200Y134716D01*
X272505Y134578D01*
X271916Y134184D01*
X271522Y133595D01*
X271384Y132900D01*
X271522Y132205D01*
X271916Y131616D01*
X272505Y131222D01*
X273200Y131084D01*
X273225Y131089D01*
X277111Y127203D01*
Y118125D01*
X276948Y118016D01*
X276554Y117427D01*
X276416Y116732D01*
X276554Y116037D01*
X276948Y115448D01*
X277537Y115055D01*
X278232Y114916D01*
X278927Y115055D01*
X279491Y115431D01*
X279853Y115355D01*
X279991Y115258D01*
Y112569D01*
Y109586D01*
X279057D01*
X278949Y109749D01*
X278360Y110142D01*
X277665Y110281D01*
X276970Y110142D01*
X276380Y109749D01*
X275987Y109160D01*
X275849Y108465D01*
X275987Y107770D01*
X276380Y107181D01*
X276970Y106787D01*
X277665Y106649D01*
X278360Y106787D01*
X278949Y107181D01*
X279057Y107343D01*
X279991D01*
Y104302D01*
Y101546D01*
Y98790D01*
Y96034D01*
Y93278D01*
Y90522D01*
Y87766D01*
Y84783D01*
X277503D01*
X273932Y88354D01*
X274152Y88842D01*
X274851Y88981D01*
X275572Y89463D01*
X276055Y90184D01*
X276124Y90535D01*
X274000D01*
Y91035D01*
X273500D01*
Y93160D01*
X273149Y93090D01*
X272428Y92608D01*
X271945Y91886D01*
X271806Y91187D01*
X271319Y90967D01*
X264822Y97465D01*
Y99897D01*
X265321Y100164D01*
X265649Y99945D01*
X266000Y99876D01*
Y102000D01*
Y104124D01*
X265649Y104054D01*
X265321Y103836D01*
X264822Y104103D01*
Y124763D01*
X264822Y124763D01*
X264736Y125192D01*
X264493Y125556D01*
X261122Y128927D01*
Y132234D01*
X261621Y132385D01*
X261928Y131928D01*
X262649Y131446D01*
X263000Y131376D01*
Y133500D01*
Y135624D01*
X262649Y135555D01*
X261928Y135073D01*
X261621Y134615D01*
X261122Y134766D01*
Y144507D01*
X261284Y144616D01*
X261678Y145205D01*
X261816Y145900D01*
X261678Y146595D01*
X261284Y147184D01*
X260695Y147578D01*
X260000Y147716D01*
X259321Y147581D01*
X259232Y147569D01*
X258822Y147842D01*
Y148607D01*
X258984Y148716D01*
X259378Y149305D01*
X259516Y150000D01*
X259378Y150695D01*
X258984Y151284D01*
X258395Y151678D01*
X257700Y151816D01*
D02*
G37*
G36*
X247000Y125000D02*
X245376D01*
X245445Y124649D01*
X245928Y123927D01*
X246649Y123445D01*
X247000Y123376D01*
Y125000D01*
D02*
G37*
G36*
X269500Y120624D02*
Y119000D01*
X271124D01*
X271055Y119351D01*
X270572Y120072D01*
X269851Y120554D01*
X269500Y120624D01*
D02*
G37*
G36*
X268500D02*
X268149Y120554D01*
X267427Y120072D01*
X266945Y119351D01*
X266876Y119000D01*
X268500D01*
Y120624D01*
D02*
G37*
G36*
X25571Y120002D02*
Y118378D01*
X27195D01*
X27125Y118729D01*
X26643Y119450D01*
X25922Y119932D01*
X25571Y120002D01*
D02*
G37*
G36*
X24571D02*
X24220Y119932D01*
X23498Y119450D01*
X23016Y118729D01*
X22946Y118378D01*
X24571D01*
Y120002D01*
D02*
G37*
G36*
X271124Y118000D02*
X269500D01*
Y116376D01*
X269851Y116446D01*
X270572Y116928D01*
X271055Y117649D01*
X271124Y118000D01*
D02*
G37*
G36*
X268500D02*
X266876D01*
X266945Y117649D01*
X267427Y116928D01*
X268149Y116446D01*
X268500Y116376D01*
Y118000D01*
D02*
G37*
G36*
X27195Y117378D02*
X25571D01*
Y115754D01*
X25922Y115823D01*
X26643Y116305D01*
X27125Y117027D01*
X27195Y117378D01*
D02*
G37*
G36*
X24571D02*
X22946D01*
X23016Y117027D01*
X23498Y116305D01*
X24220Y115823D01*
X24571Y115754D01*
Y117378D01*
D02*
G37*
G36*
X297200Y115924D02*
Y114300D01*
X298824D01*
X298755Y114651D01*
X298272Y115373D01*
X297551Y115855D01*
X297200Y115924D01*
D02*
G37*
G36*
X296200D02*
X295849Y115855D01*
X295128Y115373D01*
X294645Y114651D01*
X294576Y114300D01*
X296200D01*
Y115924D01*
D02*
G37*
G36*
X259000Y113124D02*
X258649Y113055D01*
X257927Y112573D01*
X257445Y111851D01*
X257376Y111500D01*
X259000D01*
Y113124D01*
D02*
G37*
G36*
Y110500D02*
X257376D01*
X257445Y110149D01*
X257927Y109427D01*
X258649Y108946D01*
X259000Y108876D01*
Y110500D01*
D02*
G37*
G36*
X336000Y107833D02*
Y106209D01*
X337624D01*
X337555Y106560D01*
X337072Y107281D01*
X336351Y107763D01*
X336000Y107833D01*
D02*
G37*
G36*
X335000D02*
X334649Y107763D01*
X333927Y107281D01*
X333445Y106560D01*
X333376Y106209D01*
X335000D01*
Y107833D01*
D02*
G37*
G36*
X337624Y105209D02*
X336000D01*
Y103584D01*
X336351Y103654D01*
X337072Y104136D01*
X337555Y104858D01*
X337624Y105209D01*
D02*
G37*
G36*
X335000D02*
X333376D01*
X333445Y104858D01*
X333927Y104136D01*
X334649Y103654D01*
X335000Y103584D01*
Y105209D01*
D02*
G37*
G36*
X231386Y108340D02*
X230664Y108245D01*
X229991Y107967D01*
X229414Y107524D01*
X228970Y106946D01*
X228692Y106273D01*
X228597Y105551D01*
X228692Y104829D01*
X228970Y104157D01*
X229414Y103579D01*
X229991Y103136D01*
X230664Y102857D01*
X231386Y102762D01*
X232108Y102857D01*
X232780Y103136D01*
X233358Y103579D01*
X233801Y104157D01*
X234080Y104829D01*
X234175Y105551D01*
X234080Y106273D01*
X233801Y106946D01*
X233358Y107524D01*
X232780Y107967D01*
X232108Y108245D01*
X231386Y108340D01*
D02*
G37*
G36*
X181366D02*
X180644Y108245D01*
X179972Y107967D01*
X179394Y107524D01*
X178951Y106946D01*
X178672Y106273D01*
X178577Y105551D01*
X178672Y104829D01*
X178951Y104157D01*
X179394Y103579D01*
X179972Y103136D01*
X180644Y102857D01*
X181366Y102762D01*
X182088Y102857D01*
X182761Y103136D01*
X183338Y103579D01*
X183782Y104157D01*
X184060Y104829D01*
X184155Y105551D01*
X184060Y106273D01*
X183782Y106946D01*
X183338Y107524D01*
X182761Y107967D01*
X182088Y108245D01*
X181366Y108340D01*
D02*
G37*
G36*
X152252D02*
X151530Y108245D01*
X150857Y107967D01*
X150280Y107524D01*
X149836Y106946D01*
X149558Y106273D01*
X149463Y105551D01*
X149558Y104829D01*
X149836Y104157D01*
X150280Y103579D01*
X150857Y103136D01*
X151530Y102857D01*
X152252Y102762D01*
X152974Y102857D01*
X153647Y103136D01*
X154224Y103579D01*
X154667Y104157D01*
X154946Y104829D01*
X155041Y105551D01*
X154946Y106273D01*
X154667Y106946D01*
X154224Y107524D01*
X153647Y107967D01*
X152974Y108245D01*
X152252Y108340D01*
D02*
G37*
G36*
X102232D02*
X101510Y108245D01*
X100838Y107967D01*
X100260Y107524D01*
X99817Y106946D01*
X99538Y106273D01*
X99443Y105551D01*
X99538Y104829D01*
X99817Y104157D01*
X100260Y103579D01*
X100838Y103136D01*
X101510Y102857D01*
X102232Y102762D01*
X102954Y102857D01*
X103627Y103136D01*
X104204Y103579D01*
X104648Y104157D01*
X104926Y104829D01*
X105022Y105551D01*
X104926Y106273D01*
X104648Y106946D01*
X104204Y107524D01*
X103627Y107967D01*
X102954Y108245D01*
X102232Y108340D01*
D02*
G37*
G36*
X73000D02*
X72278Y108245D01*
X71605Y107967D01*
X71028Y107524D01*
X70584Y106946D01*
X70306Y106273D01*
X70211Y105551D01*
X70306Y104829D01*
X70584Y104157D01*
X71028Y103579D01*
X71605Y103136D01*
X72278Y102857D01*
X73000Y102762D01*
X73722Y102857D01*
X74395Y103136D01*
X74972Y103579D01*
X75415Y104157D01*
X75694Y104829D01*
X75789Y105551D01*
X75694Y106273D01*
X75415Y106946D01*
X74972Y107524D01*
X74395Y107967D01*
X73722Y108245D01*
X73000Y108340D01*
D02*
G37*
G36*
X22980D02*
X22258Y108245D01*
X21586Y107967D01*
X21008Y107524D01*
X20565Y106946D01*
X20286Y106273D01*
X20191Y105551D01*
X20286Y104829D01*
X20565Y104157D01*
X21008Y103579D01*
X21586Y103136D01*
X22258Y102857D01*
X22980Y102762D01*
X23702Y102857D01*
X24375Y103136D01*
X24953Y103579D01*
X25396Y104157D01*
X25675Y104829D01*
X25769Y105551D01*
X25675Y106273D01*
X25396Y106946D01*
X24953Y107524D01*
X24375Y107967D01*
X23702Y108245D01*
X22980Y108340D01*
D02*
G37*
G36*
X267000Y104124D02*
Y102500D01*
X268624D01*
X268555Y102851D01*
X268073Y103572D01*
X267351Y104054D01*
X267000Y104124D01*
D02*
G37*
G36*
X191386Y109730D02*
X190304Y109588D01*
X189296Y109170D01*
X188431Y108506D01*
X187767Y107641D01*
X187349Y106633D01*
X187207Y105551D01*
X187349Y104470D01*
X187767Y103462D01*
X188431Y102596D01*
X189296Y101932D01*
X190304Y101514D01*
X191386Y101372D01*
X192467Y101514D01*
X193475Y101932D01*
X194341Y102596D01*
X195005Y103462D01*
X195422Y104470D01*
X195565Y105551D01*
X195422Y106633D01*
X195005Y107641D01*
X194341Y108506D01*
X193475Y109170D01*
X192467Y109588D01*
X191386Y109730D01*
D02*
G37*
G36*
X112252D02*
X111170Y109588D01*
X110162Y109170D01*
X109297Y108506D01*
X108633Y107641D01*
X108215Y106633D01*
X108073Y105551D01*
X108215Y104470D01*
X108633Y103462D01*
X109297Y102596D01*
X110162Y101932D01*
X111170Y101514D01*
X112252Y101372D01*
X113334Y101514D01*
X114341Y101932D01*
X115207Y102596D01*
X115871Y103462D01*
X116289Y104470D01*
X116431Y105551D01*
X116289Y106633D01*
X115871Y107641D01*
X115207Y108506D01*
X114341Y109170D01*
X113334Y109588D01*
X112252Y109730D01*
D02*
G37*
G36*
X33000D02*
X31918Y109588D01*
X30911Y109170D01*
X30045Y108506D01*
X29381Y107641D01*
X28963Y106633D01*
X28821Y105551D01*
X28963Y104470D01*
X29381Y103462D01*
X30045Y102596D01*
X30911Y101932D01*
X31918Y101514D01*
X33000Y101372D01*
X34082Y101514D01*
X35089Y101932D01*
X35955Y102596D01*
X36619Y103462D01*
X37037Y104470D01*
X37179Y105551D01*
X37037Y106633D01*
X36619Y107641D01*
X35955Y108506D01*
X35089Y109170D01*
X34082Y109588D01*
X33000Y109730D01*
D02*
G37*
G36*
X268624Y101500D02*
X267000D01*
Y99876D01*
X267351Y99945D01*
X268073Y100427D01*
X268555Y101149D01*
X268624Y101500D01*
D02*
G37*
G36*
X336000Y97624D02*
Y96000D01*
X337624D01*
X337555Y96351D01*
X337072Y97072D01*
X336351Y97555D01*
X336000Y97624D01*
D02*
G37*
G36*
X335000D02*
X334649Y97555D01*
X333927Y97072D01*
X333445Y96351D01*
X333376Y96000D01*
X335000D01*
Y97624D01*
D02*
G37*
G36*
X249100Y98264D02*
Y95300D01*
X252064D01*
X252010Y95714D01*
X251657Y96565D01*
X251096Y97296D01*
X250365Y97857D01*
X249514Y98210D01*
X249100Y98264D01*
D02*
G37*
G36*
X31679Y95824D02*
Y94200D01*
X33303D01*
X33233Y94551D01*
X32751Y95272D01*
X32030Y95754D01*
X31679Y95824D01*
D02*
G37*
G36*
X30679D02*
X30328Y95754D01*
X29606Y95272D01*
X29124Y94551D01*
X29054Y94200D01*
X30679D01*
Y95824D01*
D02*
G37*
G36*
X337624Y95000D02*
X336000D01*
Y93376D01*
X336351Y93445D01*
X337072Y93928D01*
X337555Y94649D01*
X337624Y95000D01*
D02*
G37*
G36*
X335000D02*
X333376D01*
X333445Y94649D01*
X333927Y93928D01*
X334649Y93445D01*
X335000Y93376D01*
Y95000D01*
D02*
G37*
G36*
X23347Y98339D02*
X19016D01*
X18345Y98250D01*
X17720Y97992D01*
X17184Y97580D01*
X16772Y97043D01*
X16513Y96418D01*
X16425Y95748D01*
X16513Y95078D01*
X16772Y94453D01*
X17184Y93916D01*
X17720Y93504D01*
X18345Y93246D01*
X19016Y93157D01*
X23347D01*
X24017Y93246D01*
X24642Y93504D01*
X25178Y93916D01*
X25590Y94453D01*
X25849Y95078D01*
X25937Y95748D01*
X25849Y96418D01*
X25590Y97043D01*
X25178Y97580D01*
X24642Y97992D01*
X24017Y98250D01*
X23347Y98339D01*
D02*
G37*
G36*
X5906D02*
X3543D01*
X2873Y98250D01*
X2248Y97992D01*
X1711Y97580D01*
X1300Y97043D01*
X1041Y96418D01*
X953Y95748D01*
X1041Y95078D01*
X1300Y94453D01*
X1711Y93916D01*
X2248Y93504D01*
X2873Y93246D01*
X3543Y93157D01*
X5906D01*
X6576Y93246D01*
X7201Y93504D01*
X7737Y93916D01*
X8149Y94453D01*
X8408Y95078D01*
X8496Y95748D01*
X8408Y96418D01*
X8149Y97043D01*
X7737Y97580D01*
X7201Y97992D01*
X6576Y98250D01*
X5906Y98339D01*
D02*
G37*
G36*
X33303Y93200D02*
X31679D01*
Y91576D01*
X32030Y91645D01*
X32751Y92128D01*
X33233Y92849D01*
X33303Y93200D01*
D02*
G37*
G36*
X30679D02*
X29054D01*
X29124Y92849D01*
X29606Y92128D01*
X30328Y91645D01*
X30679Y91576D01*
Y93200D01*
D02*
G37*
G36*
X274500Y93160D02*
Y91535D01*
X276124D01*
X276055Y91886D01*
X275572Y92608D01*
X274851Y93090D01*
X274500Y93160D01*
D02*
G37*
G36*
X252064Y94300D02*
X249100D01*
Y91336D01*
X249514Y91390D01*
X250365Y91743D01*
X251096Y92304D01*
X251657Y93035D01*
X252010Y93886D01*
X252064Y94300D01*
D02*
G37*
G36*
X244100Y103227D02*
X243291Y103120D01*
X242537Y102808D01*
X241889Y102311D01*
X241392Y101663D01*
X241080Y100909D01*
X240973Y100100D01*
X241080Y99291D01*
X241392Y98537D01*
X241889Y97889D01*
X242469Y97444D01*
Y87500D01*
X242593Y86876D01*
X242947Y86347D01*
X246169Y83124D01*
Y55556D01*
X245589Y55111D01*
X245092Y54463D01*
X244780Y53709D01*
X244673Y52900D01*
X244780Y52091D01*
X245092Y51337D01*
X245589Y50689D01*
X246237Y50192D01*
X246991Y49880D01*
X247800Y49773D01*
X248609Y49880D01*
X249363Y50192D01*
X250011Y50689D01*
X250508Y51337D01*
X250820Y52091D01*
X250927Y52900D01*
X250820Y53709D01*
X250508Y54463D01*
X250011Y55111D01*
X249431Y55556D01*
Y83800D01*
X249307Y84424D01*
X248954Y84953D01*
X245731Y88176D01*
Y92025D01*
X246231Y92206D01*
X246835Y91743D01*
X247686Y91390D01*
X248100Y91336D01*
Y94800D01*
Y98264D01*
X247686Y98210D01*
X246955Y97907D01*
X246633Y98308D01*
X246808Y98537D01*
X247120Y99291D01*
X247227Y100100D01*
X247120Y100909D01*
X246808Y101663D01*
X246311Y102311D01*
X245663Y102808D01*
X244909Y103120D01*
X244100Y103227D01*
D02*
G37*
G36*
X336000Y92624D02*
Y91000D01*
X337624D01*
X337555Y91351D01*
X337072Y92072D01*
X336351Y92555D01*
X336000Y92624D01*
D02*
G37*
G36*
X335000D02*
X334649Y92555D01*
X333927Y92072D01*
X333445Y91351D01*
X333376Y91000D01*
X335000D01*
Y92624D01*
D02*
G37*
G36*
X337624Y90000D02*
X336000D01*
Y88376D01*
X336351Y88446D01*
X337072Y88928D01*
X337555Y89649D01*
X337624Y90000D01*
D02*
G37*
G36*
X335000D02*
X333376D01*
X333445Y89649D01*
X333927Y88928D01*
X334649Y88446D01*
X335000Y88376D01*
Y90000D01*
D02*
G37*
G36*
X19094Y92035D02*
X18361Y91889D01*
X17739Y91473D01*
X17324Y90851D01*
X17178Y90118D01*
X17324Y89385D01*
X17739Y88763D01*
X18361Y88348D01*
X19094Y88202D01*
X19828Y88348D01*
X20449Y88763D01*
X20865Y89385D01*
X21011Y90118D01*
X20865Y90851D01*
X20449Y91473D01*
X19828Y91889D01*
X19094Y92035D01*
D02*
G37*
G36*
X257000Y89124D02*
Y87500D01*
X258624D01*
X258555Y87851D01*
X258072Y88573D01*
X257351Y89055D01*
X257000Y89124D01*
D02*
G37*
G36*
X256000D02*
X255649Y89055D01*
X254927Y88573D01*
X254445Y87851D01*
X254376Y87500D01*
X256000D01*
Y89124D01*
D02*
G37*
G36*
X258624Y86500D02*
X257000D01*
Y84876D01*
X257351Y84945D01*
X258072Y85427D01*
X258555Y86149D01*
X258624Y86500D01*
D02*
G37*
G36*
X256000D02*
X254376D01*
X254445Y86149D01*
X254927Y85427D01*
X255649Y84945D01*
X256000Y84876D01*
Y86500D01*
D02*
G37*
G36*
X30900Y88467D02*
X30205Y88329D01*
X29616Y87935D01*
X29222Y87346D01*
X29084Y86651D01*
X29170Y86219D01*
X21928Y78977D01*
X21284Y79040D01*
X20695Y79434D01*
X20000Y79572D01*
X19305Y79434D01*
X18716Y79040D01*
X18322Y78451D01*
X18184Y77756D01*
X18322Y77061D01*
X18716Y76472D01*
X19305Y76078D01*
X20000Y75940D01*
X20695Y76078D01*
X21284Y76472D01*
X21529Y76838D01*
X22005D01*
X22356Y76908D01*
X22654Y77107D01*
X30468Y84921D01*
X30900Y84835D01*
X31595Y84973D01*
X32184Y85367D01*
X32578Y85956D01*
X32716Y86651D01*
X32578Y87346D01*
X32184Y87935D01*
X31595Y88329D01*
X30900Y88467D01*
D02*
G37*
G36*
X231386Y88340D02*
X230664Y88245D01*
X229991Y87967D01*
X229414Y87524D01*
X228970Y86946D01*
X228692Y86273D01*
X228597Y85551D01*
X228692Y84829D01*
X228970Y84157D01*
X229414Y83579D01*
X229991Y83136D01*
X230664Y82857D01*
X231386Y82762D01*
X232108Y82857D01*
X232780Y83136D01*
X233358Y83579D01*
X233801Y84157D01*
X234080Y84829D01*
X234175Y85551D01*
X234080Y86273D01*
X233801Y86946D01*
X233358Y87524D01*
X232780Y87967D01*
X232108Y88245D01*
X231386Y88340D01*
D02*
G37*
G36*
X152252D02*
X151530Y88245D01*
X150857Y87967D01*
X150280Y87524D01*
X149836Y86946D01*
X149558Y86273D01*
X149463Y85551D01*
X149558Y84829D01*
X149836Y84157D01*
X150280Y83579D01*
X150857Y83136D01*
X151530Y82857D01*
X152252Y82762D01*
X152974Y82857D01*
X153647Y83136D01*
X154224Y83579D01*
X154667Y84157D01*
X154946Y84829D01*
X155041Y85551D01*
X154946Y86273D01*
X154667Y86946D01*
X154224Y87524D01*
X153647Y87967D01*
X152974Y88245D01*
X152252Y88340D01*
D02*
G37*
G36*
X73000D02*
X72278Y88245D01*
X71605Y87967D01*
X71028Y87524D01*
X70584Y86946D01*
X70306Y86273D01*
X70211Y85551D01*
X70306Y84829D01*
X70584Y84157D01*
X71028Y83579D01*
X71605Y83136D01*
X72278Y82857D01*
X73000Y82762D01*
X73722Y82857D01*
X74395Y83136D01*
X74972Y83579D01*
X75415Y84157D01*
X75694Y84829D01*
X75789Y85551D01*
X75694Y86273D01*
X75415Y86946D01*
X74972Y87524D01*
X74395Y87967D01*
X73722Y88245D01*
X73000Y88340D01*
D02*
G37*
G36*
X335750Y82624D02*
Y81000D01*
X337374D01*
X337305Y81351D01*
X336823Y82073D01*
X336101Y82555D01*
X335750Y82624D01*
D02*
G37*
G36*
X334750D02*
X334399Y82555D01*
X333678Y82073D01*
X333195Y81351D01*
X333126Y81000D01*
X334750D01*
Y82624D01*
D02*
G37*
G36*
X337374Y80000D02*
X335750D01*
Y78376D01*
X336101Y78445D01*
X336823Y78927D01*
X337305Y79649D01*
X337374Y80000D01*
D02*
G37*
G36*
X334750D02*
X333126D01*
X333195Y79649D01*
X333678Y78927D01*
X334399Y78445D01*
X334750Y78376D01*
Y80000D01*
D02*
G37*
G36*
X303500Y74624D02*
Y73000D01*
X305124D01*
X305055Y73351D01*
X304573Y74072D01*
X303851Y74555D01*
X303500Y74624D01*
D02*
G37*
G36*
X302500D02*
X302149Y74555D01*
X301428Y74072D01*
X300945Y73351D01*
X300876Y73000D01*
X302500D01*
Y74624D01*
D02*
G37*
G36*
X241406Y78340D02*
X240684Y78245D01*
X240011Y77967D01*
X239433Y77523D01*
X238990Y76946D01*
X238711Y76273D01*
X238616Y75551D01*
X238711Y74829D01*
X238990Y74157D01*
X239433Y73579D01*
X240011Y73136D01*
X240684Y72857D01*
X241406Y72762D01*
X242127Y72857D01*
X242800Y73136D01*
X243378Y73579D01*
X243821Y74157D01*
X244100Y74829D01*
X244195Y75551D01*
X244100Y76273D01*
X243821Y76946D01*
X243378Y77523D01*
X242800Y77967D01*
X242127Y78245D01*
X241406Y78340D01*
D02*
G37*
G36*
X231386D02*
X230664Y78245D01*
X229991Y77967D01*
X229414Y77523D01*
X228970Y76946D01*
X228692Y76273D01*
X228597Y75551D01*
X228692Y74829D01*
X228970Y74157D01*
X229414Y73579D01*
X229991Y73136D01*
X230664Y72857D01*
X231386Y72762D01*
X232108Y72857D01*
X232780Y73136D01*
X233358Y73579D01*
X233801Y74157D01*
X234080Y74829D01*
X234175Y75551D01*
X234080Y76273D01*
X233801Y76946D01*
X233358Y77523D01*
X232780Y77967D01*
X232108Y78245D01*
X231386Y78340D01*
D02*
G37*
G36*
X162272D02*
X161550Y78245D01*
X160877Y77967D01*
X160299Y77523D01*
X159856Y76946D01*
X159578Y76273D01*
X159482Y75551D01*
X159578Y74829D01*
X159856Y74157D01*
X160299Y73579D01*
X160877Y73136D01*
X161550Y72857D01*
X162272Y72762D01*
X162994Y72857D01*
X163666Y73136D01*
X164244Y73579D01*
X164687Y74157D01*
X164966Y74829D01*
X165061Y75551D01*
X164966Y76273D01*
X164687Y76946D01*
X164244Y77523D01*
X163666Y77967D01*
X162994Y78245D01*
X162272Y78340D01*
D02*
G37*
G36*
X152252D02*
X151530Y78245D01*
X150857Y77967D01*
X150280Y77523D01*
X149836Y76946D01*
X149558Y76273D01*
X149463Y75551D01*
X149558Y74829D01*
X149836Y74157D01*
X150280Y73579D01*
X150857Y73136D01*
X151530Y72857D01*
X152252Y72762D01*
X152974Y72857D01*
X153647Y73136D01*
X154224Y73579D01*
X154667Y74157D01*
X154946Y74829D01*
X155041Y75551D01*
X154946Y76273D01*
X154667Y76946D01*
X154224Y77523D01*
X153647Y77967D01*
X152974Y78245D01*
X152252Y78340D01*
D02*
G37*
G36*
X83020D02*
X82298Y78245D01*
X81625Y77967D01*
X81047Y77523D01*
X80604Y76946D01*
X80326Y76273D01*
X80230Y75551D01*
X80326Y74829D01*
X80604Y74157D01*
X81047Y73579D01*
X81625Y73136D01*
X82298Y72857D01*
X83020Y72762D01*
X83742Y72857D01*
X84414Y73136D01*
X84992Y73579D01*
X85435Y74157D01*
X85714Y74829D01*
X85809Y75551D01*
X85714Y76273D01*
X85435Y76946D01*
X84992Y77523D01*
X84414Y77967D01*
X83742Y78245D01*
X83020Y78340D01*
D02*
G37*
G36*
X73000D02*
X72278Y78245D01*
X71605Y77967D01*
X71028Y77523D01*
X70584Y76946D01*
X70306Y76273D01*
X70211Y75551D01*
X70306Y74829D01*
X70584Y74157D01*
X71028Y73579D01*
X71605Y73136D01*
X72278Y72857D01*
X73000Y72762D01*
X73722Y72857D01*
X74395Y73136D01*
X74972Y73579D01*
X75415Y74157D01*
X75694Y74829D01*
X75789Y75551D01*
X75694Y76273D01*
X75415Y76946D01*
X74972Y77523D01*
X74395Y77967D01*
X73722Y78245D01*
X73000Y78340D01*
D02*
G37*
G36*
X191386Y79730D02*
X190304Y79588D01*
X189296Y79170D01*
X188431Y78506D01*
X187767Y77641D01*
X187349Y76633D01*
X187207Y75551D01*
X187349Y74470D01*
X187767Y73462D01*
X188431Y72596D01*
X189296Y71932D01*
X190304Y71514D01*
X191386Y71372D01*
X192467Y71514D01*
X193475Y71932D01*
X194341Y72596D01*
X195005Y73462D01*
X195422Y74470D01*
X195565Y75551D01*
X195422Y76633D01*
X195005Y77641D01*
X194341Y78506D01*
X193475Y79170D01*
X192467Y79588D01*
X191386Y79730D01*
D02*
G37*
G36*
X112252D02*
X111170Y79588D01*
X110162Y79170D01*
X109297Y78506D01*
X108633Y77641D01*
X108215Y76633D01*
X108073Y75551D01*
X108215Y74470D01*
X108633Y73462D01*
X109297Y72596D01*
X110162Y71932D01*
X111170Y71514D01*
X112252Y71372D01*
X113334Y71514D01*
X114341Y71932D01*
X115207Y72596D01*
X115871Y73462D01*
X116289Y74470D01*
X116431Y75551D01*
X116289Y76633D01*
X115871Y77641D01*
X115207Y78506D01*
X114341Y79170D01*
X113334Y79588D01*
X112252Y79730D01*
D02*
G37*
G36*
X33000D02*
X31918Y79588D01*
X30911Y79170D01*
X30045Y78506D01*
X29381Y77641D01*
X28963Y76633D01*
X28821Y75551D01*
X28963Y74470D01*
X29381Y73462D01*
X30045Y72596D01*
X30911Y71932D01*
X31918Y71514D01*
X33000Y71372D01*
X34082Y71514D01*
X35089Y71932D01*
X35955Y72596D01*
X36619Y73462D01*
X37037Y74470D01*
X37179Y75551D01*
X37037Y76633D01*
X36619Y77641D01*
X35955Y78506D01*
X35089Y79170D01*
X34082Y79588D01*
X33000Y79730D01*
D02*
G37*
G36*
X305124Y72000D02*
X303500D01*
Y70376D01*
X303851Y70446D01*
X304573Y70928D01*
X305055Y71649D01*
X305124Y72000D01*
D02*
G37*
G36*
X302500D02*
X300876D01*
X300945Y71649D01*
X301428Y70928D01*
X302149Y70446D01*
X302500Y70376D01*
Y72000D01*
D02*
G37*
G36*
X19094Y69279D02*
X18361Y69133D01*
X17739Y68717D01*
X17324Y68096D01*
X17178Y67362D01*
X17324Y66629D01*
X17739Y66007D01*
X18361Y65592D01*
X19094Y65446D01*
X19828Y65592D01*
X20449Y66007D01*
X20865Y66629D01*
X21011Y67362D01*
X20865Y68096D01*
X20449Y68717D01*
X19828Y69133D01*
X19094Y69279D01*
D02*
G37*
G36*
X32100Y65924D02*
Y64300D01*
X33724D01*
X33655Y64651D01*
X33173Y65373D01*
X32451Y65855D01*
X32100Y65924D01*
D02*
G37*
G36*
X31100D02*
X30749Y65855D01*
X30027Y65373D01*
X29545Y64651D01*
X29476Y64300D01*
X31100D01*
Y65924D01*
D02*
G37*
G36*
X335750Y63778D02*
Y62154D01*
X337374D01*
X337305Y62505D01*
X336823Y63226D01*
X336101Y63708D01*
X335750Y63778D01*
D02*
G37*
G36*
X334750D02*
X334399Y63708D01*
X333678Y63226D01*
X333195Y62505D01*
X333126Y62154D01*
X334750D01*
Y63778D01*
D02*
G37*
G36*
X33724Y63300D02*
X32100D01*
Y61676D01*
X32451Y61746D01*
X33173Y62227D01*
X33655Y62949D01*
X33724Y63300D01*
D02*
G37*
G36*
X31100D02*
X29476D01*
X29545Y62949D01*
X30027Y62227D01*
X30749Y61746D01*
X31100Y61676D01*
Y63300D01*
D02*
G37*
G36*
X337374Y61154D02*
X335750D01*
Y59529D01*
X336101Y59599D01*
X336823Y60081D01*
X337305Y60803D01*
X337374Y61154D01*
D02*
G37*
G36*
X334750D02*
X333126D01*
X333195Y60803D01*
X333678Y60081D01*
X334399Y59599D01*
X334750Y59529D01*
Y61154D01*
D02*
G37*
G36*
X23347Y64323D02*
X19016D01*
X18345Y64235D01*
X17720Y63976D01*
X17184Y63564D01*
X16772Y63028D01*
X16513Y62403D01*
X16425Y61732D01*
X16513Y61062D01*
X16772Y60437D01*
X17184Y59900D01*
X17720Y59489D01*
X18345Y59230D01*
X19016Y59142D01*
X23347D01*
X24017Y59230D01*
X24642Y59489D01*
X25178Y59900D01*
X25590Y60437D01*
X25849Y61062D01*
X25937Y61732D01*
X25849Y62403D01*
X25590Y63028D01*
X25178Y63564D01*
X24642Y63976D01*
X24017Y64235D01*
X23347Y64323D01*
D02*
G37*
G36*
X5906D02*
X3543D01*
X2873Y64235D01*
X2248Y63976D01*
X1711Y63564D01*
X1300Y63028D01*
X1041Y62403D01*
X953Y61732D01*
X1041Y61062D01*
X1300Y60437D01*
X1711Y59900D01*
X2248Y59489D01*
X2873Y59230D01*
X3543Y59142D01*
X5906D01*
X6576Y59230D01*
X7201Y59489D01*
X7737Y59900D01*
X8149Y60437D01*
X8408Y61062D01*
X8496Y61732D01*
X8408Y62403D01*
X8149Y63028D01*
X7737Y63564D01*
X7201Y63976D01*
X6576Y64235D01*
X5906Y64323D01*
D02*
G37*
G36*
X335750Y58624D02*
Y57000D01*
X337374D01*
X337305Y57351D01*
X336823Y58073D01*
X336101Y58555D01*
X335750Y58624D01*
D02*
G37*
G36*
X334750D02*
X334399Y58555D01*
X333678Y58073D01*
X333195Y57351D01*
X333126Y57000D01*
X334750D01*
Y58624D01*
D02*
G37*
G36*
X337374Y56000D02*
X335750D01*
Y54376D01*
X336101Y54445D01*
X336823Y54927D01*
X337305Y55649D01*
X337374Y56000D01*
D02*
G37*
G36*
X334750D02*
X333126D01*
X333195Y55649D01*
X333678Y54927D01*
X334399Y54445D01*
X334750Y54376D01*
Y56000D01*
D02*
G37*
G36*
X335750Y53624D02*
Y52000D01*
X337374D01*
X337305Y52351D01*
X336823Y53073D01*
X336101Y53554D01*
X335750Y53624D01*
D02*
G37*
G36*
X334750D02*
X334399Y53554D01*
X333678Y53073D01*
X333195Y52351D01*
X333126Y52000D01*
X334750D01*
Y53624D01*
D02*
G37*
G36*
X287339Y52886D02*
X279591D01*
Y51579D01*
Y51130D01*
X287339D01*
Y51579D01*
Y52886D01*
D02*
G37*
G36*
X337374Y51000D02*
X335750D01*
Y49376D01*
X336101Y49445D01*
X336823Y49927D01*
X337305Y50649D01*
X337374Y51000D01*
D02*
G37*
G36*
X334750D02*
X333126D01*
X333195Y50649D01*
X333678Y49927D01*
X334399Y49445D01*
X334750Y49376D01*
Y51000D01*
D02*
G37*
G36*
X287339Y50130D02*
X283965D01*
Y48823D01*
X287339D01*
Y50130D01*
D02*
G37*
G36*
X282965D02*
X279591D01*
Y48823D01*
X282965D01*
Y50130D01*
D02*
G37*
G36*
X231386Y49285D02*
X230664Y49190D01*
X229991Y48912D01*
X229414Y48468D01*
X228970Y47891D01*
X228692Y47218D01*
X228597Y46496D01*
X228692Y45774D01*
X228970Y45101D01*
X229414Y44524D01*
X229991Y44080D01*
X230664Y43802D01*
X231386Y43707D01*
X232108Y43802D01*
X232780Y44080D01*
X233358Y44524D01*
X233801Y45101D01*
X234080Y45774D01*
X234175Y46496D01*
X234080Y47218D01*
X233801Y47891D01*
X233358Y48468D01*
X232780Y48912D01*
X232108Y49190D01*
X231386Y49285D01*
D02*
G37*
G36*
X181366D02*
X180644Y49190D01*
X179972Y48912D01*
X179394Y48468D01*
X178951Y47891D01*
X178672Y47218D01*
X178577Y46496D01*
X178672Y45774D01*
X178951Y45101D01*
X179394Y44524D01*
X179972Y44080D01*
X180644Y43802D01*
X181366Y43707D01*
X182088Y43802D01*
X182761Y44080D01*
X183338Y44524D01*
X183782Y45101D01*
X184060Y45774D01*
X184155Y46496D01*
X184060Y47218D01*
X183782Y47891D01*
X183338Y48468D01*
X182761Y48912D01*
X182088Y49190D01*
X181366Y49285D01*
D02*
G37*
G36*
X152252D02*
X151530Y49190D01*
X150857Y48912D01*
X150280Y48468D01*
X149836Y47891D01*
X149558Y47218D01*
X149463Y46496D01*
X149558Y45774D01*
X149836Y45101D01*
X150280Y44524D01*
X150857Y44080D01*
X151530Y43802D01*
X152252Y43707D01*
X152974Y43802D01*
X153647Y44080D01*
X154224Y44524D01*
X154667Y45101D01*
X154946Y45774D01*
X155041Y46496D01*
X154946Y47218D01*
X154667Y47891D01*
X154224Y48468D01*
X153647Y48912D01*
X152974Y49190D01*
X152252Y49285D01*
D02*
G37*
G36*
X102232D02*
X101510Y49190D01*
X100838Y48912D01*
X100260Y48468D01*
X99817Y47891D01*
X99538Y47218D01*
X99443Y46496D01*
X99538Y45774D01*
X99817Y45101D01*
X100260Y44524D01*
X100838Y44080D01*
X101510Y43802D01*
X102232Y43707D01*
X102954Y43802D01*
X103627Y44080D01*
X104204Y44524D01*
X104648Y45101D01*
X104926Y45774D01*
X105022Y46496D01*
X104926Y47218D01*
X104648Y47891D01*
X104204Y48468D01*
X103627Y48912D01*
X102954Y49190D01*
X102232Y49285D01*
D02*
G37*
G36*
X73118D02*
X72396Y49190D01*
X71724Y48912D01*
X71146Y48468D01*
X70703Y47891D01*
X70424Y47218D01*
X70329Y46496D01*
X70424Y45774D01*
X70703Y45101D01*
X71146Y44524D01*
X71724Y44080D01*
X72396Y43802D01*
X73118Y43707D01*
X73840Y43802D01*
X74513Y44080D01*
X75090Y44524D01*
X75534Y45101D01*
X75812Y45774D01*
X75907Y46496D01*
X75812Y47218D01*
X75534Y47891D01*
X75090Y48468D01*
X74513Y48912D01*
X73840Y49190D01*
X73118Y49285D01*
D02*
G37*
G36*
X23098D02*
X22377Y49190D01*
X21704Y48912D01*
X21126Y48468D01*
X20683Y47891D01*
X20404Y47218D01*
X20309Y46496D01*
X20404Y45774D01*
X20683Y45101D01*
X21126Y44524D01*
X21704Y44080D01*
X22377Y43802D01*
X23098Y43707D01*
X23820Y43802D01*
X24493Y44080D01*
X25071Y44524D01*
X25514Y45101D01*
X25793Y45774D01*
X25888Y46496D01*
X25793Y47218D01*
X25514Y47891D01*
X25071Y48468D01*
X24493Y48912D01*
X23820Y49190D01*
X23098Y49285D01*
D02*
G37*
G36*
X191386Y50675D02*
X190304Y50533D01*
X189296Y50115D01*
X188431Y49451D01*
X187767Y48586D01*
X187349Y47578D01*
X187207Y46496D01*
X187349Y45414D01*
X187767Y44407D01*
X188431Y43541D01*
X189296Y42877D01*
X190304Y42459D01*
X191386Y42317D01*
X192467Y42459D01*
X193475Y42877D01*
X194341Y43541D01*
X195005Y44407D01*
X195422Y45414D01*
X195565Y46496D01*
X195422Y47578D01*
X195005Y48586D01*
X194341Y49451D01*
X193475Y50115D01*
X192467Y50533D01*
X191386Y50675D01*
D02*
G37*
G36*
X112252D02*
X111170Y50533D01*
X110162Y50115D01*
X109297Y49451D01*
X108633Y48586D01*
X108215Y47578D01*
X108073Y46496D01*
X108215Y45414D01*
X108633Y44407D01*
X109297Y43541D01*
X110162Y42877D01*
X111170Y42459D01*
X112252Y42317D01*
X113334Y42459D01*
X114341Y42877D01*
X115207Y43541D01*
X115871Y44407D01*
X116289Y45414D01*
X116431Y46496D01*
X116289Y47578D01*
X115871Y48586D01*
X115207Y49451D01*
X114341Y50115D01*
X113334Y50533D01*
X112252Y50675D01*
D02*
G37*
G36*
X33118D02*
X32037Y50533D01*
X31029Y50115D01*
X30163Y49451D01*
X29499Y48586D01*
X29081Y47578D01*
X28939Y46496D01*
X29081Y45414D01*
X29499Y44407D01*
X30163Y43541D01*
X31029Y42877D01*
X32037Y42459D01*
X33118Y42317D01*
X34200Y42459D01*
X35208Y42877D01*
X36073Y43541D01*
X36737Y44407D01*
X37155Y45414D01*
X37297Y46496D01*
X37155Y47578D01*
X36737Y48586D01*
X36073Y49451D01*
X35208Y50115D01*
X34200Y50533D01*
X33118Y50675D01*
D02*
G37*
G36*
X6300Y46924D02*
X5375Y46740D01*
X4590Y46215D01*
X4066Y45431D01*
X3882Y44506D01*
X4066Y43580D01*
X4590Y42796D01*
X5375Y42272D01*
X6300Y42087D01*
X7225Y42272D01*
X8010Y42796D01*
X8534Y43580D01*
X8718Y44506D01*
X8534Y45431D01*
X8010Y46215D01*
X7225Y46740D01*
X6300Y46924D01*
D02*
G37*
G36*
Y35113D02*
X5375Y34929D01*
X4590Y34404D01*
X4066Y33620D01*
X3882Y32695D01*
X4066Y31769D01*
X4590Y30985D01*
X5375Y30460D01*
X6300Y30276D01*
X7225Y30460D01*
X8010Y30985D01*
X8534Y31769D01*
X8718Y32695D01*
X8534Y33620D01*
X8010Y34404D01*
X7225Y34929D01*
X6300Y35113D01*
D02*
G37*
G36*
X307500Y29624D02*
Y28000D01*
X309124D01*
X309055Y28351D01*
X308573Y29072D01*
X307851Y29555D01*
X307500Y29624D01*
D02*
G37*
G36*
X306500D02*
X306149Y29555D01*
X305428Y29072D01*
X304945Y28351D01*
X304876Y28000D01*
X306500D01*
Y29624D01*
D02*
G37*
G36*
X264500D02*
Y28000D01*
X266124D01*
X266055Y28351D01*
X265573Y29072D01*
X264851Y29555D01*
X264500Y29624D01*
D02*
G37*
G36*
X263500D02*
X263149Y29555D01*
X262427Y29072D01*
X261945Y28351D01*
X261876Y28000D01*
X263500D01*
Y29624D01*
D02*
G37*
G36*
X309124Y27000D02*
X307500D01*
Y25376D01*
X307851Y25445D01*
X308573Y25927D01*
X309055Y26649D01*
X309124Y27000D01*
D02*
G37*
G36*
X306500D02*
X304876D01*
X304945Y26649D01*
X305428Y25927D01*
X306149Y25445D01*
X306500Y25376D01*
Y27000D01*
D02*
G37*
G36*
X266124D02*
X264500D01*
Y25376D01*
X264851Y25445D01*
X265573Y25927D01*
X266055Y26649D01*
X266124Y27000D01*
D02*
G37*
G36*
X263500D02*
X261876D01*
X261945Y26649D01*
X262427Y25927D01*
X263149Y25445D01*
X263500Y25376D01*
Y27000D01*
D02*
G37*
G36*
X231386Y29285D02*
X230664Y29190D01*
X229991Y28912D01*
X229414Y28468D01*
X228970Y27891D01*
X228692Y27218D01*
X228597Y26496D01*
X228692Y25774D01*
X228970Y25101D01*
X229414Y24524D01*
X229991Y24081D01*
X230664Y23802D01*
X231386Y23707D01*
X232108Y23802D01*
X232780Y24081D01*
X233358Y24524D01*
X233801Y25101D01*
X234080Y25774D01*
X234175Y26496D01*
X234080Y27218D01*
X233801Y27891D01*
X233358Y28468D01*
X232780Y28912D01*
X232108Y29190D01*
X231386Y29285D01*
D02*
G37*
G36*
X152252D02*
X151530Y29190D01*
X150857Y28912D01*
X150280Y28468D01*
X149836Y27891D01*
X149558Y27218D01*
X149463Y26496D01*
X149558Y25774D01*
X149836Y25101D01*
X150280Y24524D01*
X150857Y24081D01*
X151530Y23802D01*
X152252Y23707D01*
X152974Y23802D01*
X153647Y24081D01*
X154224Y24524D01*
X154667Y25101D01*
X154946Y25774D01*
X155041Y26496D01*
X154946Y27218D01*
X154667Y27891D01*
X154224Y28468D01*
X153647Y28912D01*
X152974Y29190D01*
X152252Y29285D01*
D02*
G37*
G36*
X73118D02*
X72396Y29190D01*
X71724Y28912D01*
X71146Y28468D01*
X70703Y27891D01*
X70424Y27218D01*
X70329Y26496D01*
X70424Y25774D01*
X70703Y25101D01*
X71146Y24524D01*
X71724Y24081D01*
X72396Y23802D01*
X73118Y23707D01*
X73840Y23802D01*
X74513Y24081D01*
X75090Y24524D01*
X75534Y25101D01*
X75812Y25774D01*
X75907Y26496D01*
X75812Y27218D01*
X75534Y27891D01*
X75090Y28468D01*
X74513Y28912D01*
X73840Y29190D01*
X73118Y29285D01*
D02*
G37*
G36*
X241406Y19285D02*
X240684Y19190D01*
X240011Y18912D01*
X239433Y18468D01*
X238990Y17891D01*
X238711Y17218D01*
X238616Y16496D01*
X238711Y15774D01*
X238990Y15101D01*
X239433Y14524D01*
X240011Y14081D01*
X240684Y13802D01*
X241406Y13707D01*
X242127Y13802D01*
X242800Y14081D01*
X243378Y14524D01*
X243821Y15101D01*
X244100Y15774D01*
X244195Y16496D01*
X244100Y17218D01*
X243821Y17891D01*
X243378Y18468D01*
X242800Y18912D01*
X242127Y19190D01*
X241406Y19285D01*
D02*
G37*
G36*
X231386D02*
X230664Y19190D01*
X229991Y18912D01*
X229414Y18468D01*
X228970Y17891D01*
X228692Y17218D01*
X228597Y16496D01*
X228692Y15774D01*
X228970Y15101D01*
X229414Y14524D01*
X229991Y14081D01*
X230664Y13802D01*
X231386Y13707D01*
X232108Y13802D01*
X232780Y14081D01*
X233358Y14524D01*
X233801Y15101D01*
X234080Y15774D01*
X234175Y16496D01*
X234080Y17218D01*
X233801Y17891D01*
X233358Y18468D01*
X232780Y18912D01*
X232108Y19190D01*
X231386Y19285D01*
D02*
G37*
G36*
X162272D02*
X161550Y19190D01*
X160877Y18912D01*
X160299Y18468D01*
X159856Y17891D01*
X159578Y17218D01*
X159482Y16496D01*
X159578Y15774D01*
X159856Y15101D01*
X160299Y14524D01*
X160877Y14081D01*
X161550Y13802D01*
X162272Y13707D01*
X162994Y13802D01*
X163666Y14081D01*
X164244Y14524D01*
X164687Y15101D01*
X164966Y15774D01*
X165061Y16496D01*
X164966Y17218D01*
X164687Y17891D01*
X164244Y18468D01*
X163666Y18912D01*
X162994Y19190D01*
X162272Y19285D01*
D02*
G37*
G36*
X152252D02*
X151530Y19190D01*
X150857Y18912D01*
X150280Y18468D01*
X149836Y17891D01*
X149558Y17218D01*
X149463Y16496D01*
X149558Y15774D01*
X149836Y15101D01*
X150280Y14524D01*
X150857Y14081D01*
X151530Y13802D01*
X152252Y13707D01*
X152974Y13802D01*
X153647Y14081D01*
X154224Y14524D01*
X154667Y15101D01*
X154946Y15774D01*
X155041Y16496D01*
X154946Y17218D01*
X154667Y17891D01*
X154224Y18468D01*
X153647Y18912D01*
X152974Y19190D01*
X152252Y19285D01*
D02*
G37*
G36*
X83138D02*
X82416Y19190D01*
X81743Y18912D01*
X81165Y18468D01*
X80722Y17891D01*
X80444Y17218D01*
X80349Y16496D01*
X80444Y15774D01*
X80722Y15101D01*
X81165Y14524D01*
X81743Y14081D01*
X82416Y13802D01*
X83138Y13707D01*
X83860Y13802D01*
X84532Y14081D01*
X85110Y14524D01*
X85553Y15101D01*
X85832Y15774D01*
X85927Y16496D01*
X85832Y17218D01*
X85553Y17891D01*
X85110Y18468D01*
X84532Y18912D01*
X83860Y19190D01*
X83138Y19285D01*
D02*
G37*
G36*
X73118D02*
X72396Y19190D01*
X71724Y18912D01*
X71146Y18468D01*
X70703Y17891D01*
X70424Y17218D01*
X70329Y16496D01*
X70424Y15774D01*
X70703Y15101D01*
X71146Y14524D01*
X71724Y14081D01*
X72396Y13802D01*
X73118Y13707D01*
X73840Y13802D01*
X74513Y14081D01*
X75090Y14524D01*
X75534Y15101D01*
X75812Y15774D01*
X75907Y16496D01*
X75812Y17218D01*
X75534Y17891D01*
X75090Y18468D01*
X74513Y18912D01*
X73840Y19190D01*
X73118Y19285D01*
D02*
G37*
G36*
X191386Y20675D02*
X190304Y20533D01*
X189296Y20115D01*
X188431Y19451D01*
X187767Y18586D01*
X187349Y17578D01*
X187207Y16496D01*
X187349Y15414D01*
X187767Y14406D01*
X188431Y13541D01*
X189296Y12877D01*
X190304Y12459D01*
X191386Y12317D01*
X192467Y12459D01*
X193475Y12877D01*
X194341Y13541D01*
X195005Y14406D01*
X195422Y15414D01*
X195565Y16496D01*
X195422Y17578D01*
X195005Y18586D01*
X194341Y19451D01*
X193475Y20115D01*
X192467Y20533D01*
X191386Y20675D01*
D02*
G37*
G36*
X112252D02*
X111170Y20533D01*
X110162Y20115D01*
X109297Y19451D01*
X108633Y18586D01*
X108215Y17578D01*
X108073Y16496D01*
X108215Y15414D01*
X108633Y14406D01*
X109297Y13541D01*
X110162Y12877D01*
X111170Y12459D01*
X112252Y12317D01*
X113334Y12459D01*
X114341Y12877D01*
X115207Y13541D01*
X115871Y14406D01*
X116289Y15414D01*
X116431Y16496D01*
X116289Y17578D01*
X115871Y18586D01*
X115207Y19451D01*
X114341Y20115D01*
X113334Y20533D01*
X112252Y20675D01*
D02*
G37*
G36*
X33118D02*
X32037Y20533D01*
X31029Y20115D01*
X30163Y19451D01*
X29499Y18586D01*
X29081Y17578D01*
X28939Y16496D01*
X29081Y15414D01*
X29499Y14406D01*
X30163Y13541D01*
X31029Y12877D01*
X32037Y12459D01*
X33118Y12317D01*
X34200Y12459D01*
X35208Y12877D01*
X36073Y13541D01*
X36737Y14406D01*
X37155Y15414D01*
X37297Y16496D01*
X37155Y17578D01*
X36737Y18586D01*
X36073Y19451D01*
X35208Y20115D01*
X34200Y20533D01*
X33118Y20675D01*
D02*
G37*
G36*
X328740Y16775D02*
X327388Y16642D01*
X326087Y16247D01*
X324889Y15607D01*
X323838Y14745D01*
X322976Y13694D01*
X322335Y12495D01*
X321941Y11195D01*
X321808Y9843D01*
X321941Y8490D01*
X322335Y7190D01*
X322976Y5991D01*
X323838Y4940D01*
X324889Y4078D01*
X326087Y3438D01*
X327388Y3043D01*
X328740Y2910D01*
X330093Y3043D01*
X331393Y3438D01*
X332592Y4078D01*
X333642Y4940D01*
X334504Y5991D01*
X335145Y7190D01*
X335540Y8490D01*
X335673Y9843D01*
X335540Y11195D01*
X335145Y12495D01*
X334504Y13694D01*
X333642Y14745D01*
X332592Y15607D01*
X331393Y16247D01*
X330093Y16642D01*
X328740Y16775D01*
D02*
G37*
G36*
X9843D02*
X8490Y16642D01*
X7190Y16247D01*
X5991Y15607D01*
X4940Y14745D01*
X4078Y13694D01*
X3438Y12495D01*
X3043Y11195D01*
X2910Y9843D01*
X3043Y8490D01*
X3438Y7190D01*
X4078Y5991D01*
X4940Y4940D01*
X5991Y4078D01*
X7190Y3438D01*
X8490Y3043D01*
X9843Y2910D01*
X11195Y3043D01*
X12495Y3438D01*
X13694Y4078D01*
X14745Y4940D01*
X15607Y5991D01*
X16247Y7190D01*
X16642Y8490D01*
X16775Y9843D01*
X16642Y11195D01*
X16247Y12495D01*
X15607Y13694D01*
X14745Y14745D01*
X13694Y15607D01*
X12495Y16247D01*
X11195Y16642D01*
X9843Y16775D01*
D02*
G37*
%LPD*%
D10*
X297976Y64424D02*
Y72324D01*
X20000Y77756D02*
X22005D01*
X30900Y86651D01*
X231386Y144606D02*
X239194D01*
X251500Y132300D01*
Y126100D02*
Y132300D01*
X300636Y169465D02*
X304135D01*
X291400Y178700D02*
X300636Y169465D01*
X30100Y178700D02*
X291400D01*
X297400Y158700D02*
X301093Y162393D01*
X304135D01*
X297849Y162848D02*
X300600Y165600D01*
Y165929D01*
D22*
X283465Y111221D02*
D03*
Y130512D02*
D03*
Y127756D02*
D03*
Y91929D02*
D03*
Y125000D02*
D03*
Y122244D02*
D03*
Y94685D02*
D03*
Y97441D02*
D03*
Y100197D02*
D03*
Y102953D02*
D03*
Y119488D02*
D03*
Y105709D02*
D03*
Y108465D02*
D03*
Y116732D02*
D03*
Y113976D02*
D03*
Y72677D02*
D03*
Y75394D02*
D03*
Y67165D02*
D03*
Y64410D02*
D03*
Y78150D02*
D03*
Y61654D02*
D03*
Y58898D02*
D03*
Y56142D02*
D03*
Y53386D02*
D03*
Y80905D02*
D03*
Y83661D02*
D03*
Y50630D02*
D03*
Y86417D02*
D03*
Y89173D02*
D03*
Y69921D02*
D03*
D23*
X300600Y165929D02*
D03*
Y173000D02*
D03*
X304135Y169465D02*
D03*
Y162393D02*
D03*
X307671Y165929D02*
D03*
X297064Y169465D02*
D03*
D24*
X247800Y52900D02*
Y83800D01*
X244100Y87500D02*
X247800Y83800D01*
X244100Y87500D02*
Y100100D01*
D25*
X272900Y133000D02*
X278232Y127668D01*
X272900Y133000D02*
Y133100D01*
X278232Y116732D02*
Y127668D01*
X323600Y137500D02*
X335500D01*
X318415Y142685D02*
X323600Y137500D01*
X318415Y142685D02*
Y151100D01*
Y158285D01*
X310771Y165929D02*
X318415Y158285D01*
X307671Y165929D02*
X310771D01*
X277665Y108465D02*
X283465D01*
X278232Y116732D02*
X283465D01*
X262100Y96337D02*
X277532Y80905D01*
X259700Y145900D02*
X260000Y145600D01*
Y128463D02*
X263700Y124763D01*
Y97000D02*
Y124763D01*
Y97000D02*
X277039Y83661D01*
X257700Y128500D02*
Y150000D01*
Y128500D02*
X262100Y124100D01*
Y96337D02*
Y124100D01*
X260000Y128463D02*
Y145600D01*
X277532Y80905D02*
X283465D01*
X277039Y83661D02*
X283465D01*
X260000Y145600D02*
Y145900D01*
X278100Y155900D02*
X281400D01*
X269500Y164500D02*
X278100Y155900D01*
X264000Y164500D02*
X269500D01*
X320147Y102953D02*
X322600Y100500D01*
X283465Y102953D02*
X320147D01*
X283465Y100197D02*
X312903D01*
X322600Y90500D01*
X283465Y94685D02*
X313415D01*
X322600Y85500D01*
X283465Y91929D02*
X311171D01*
X322600Y80500D01*
X283465Y78150D02*
X314950D01*
X322600Y70500D01*
X283465Y56142D02*
X317958D01*
X322600Y51500D01*
X292555Y61019D02*
X321597D01*
X322231Y61654D01*
X322600D01*
X283465Y58898D02*
X320202D01*
X322600Y56500D01*
X321912Y127900D02*
X322600D01*
X321762Y127750D02*
X322600Y127900D01*
X322000Y128000D02*
X322600Y127900D01*
X283465Y127756D02*
X322600Y127900D01*
X322244Y127756D02*
X322600Y127900D01*
X321762Y127750D02*
X321912Y127900D01*
X283465Y125000D02*
X332750D01*
X335500Y127750D01*
X291921Y61654D02*
X292555Y61019D01*
X283465Y61654D02*
X291921D01*
X6700Y155300D02*
X30100Y178700D01*
X6700Y146500D02*
Y155300D01*
X305600Y108476D02*
X332756D01*
X335500Y111221D01*
X283465Y108465D02*
X304867D01*
X283465Y111221D02*
X321750D01*
X321750Y111221D01*
X332744Y119488D02*
X335500Y122244D01*
X283465Y119488D02*
X332744D01*
X304135Y169465D02*
X312035D01*
X325400Y156100D01*
Y145700D02*
Y156100D01*
X246900Y170700D02*
X267800Y149800D01*
X217479Y170700D02*
X246900D01*
X211386Y164606D02*
X217479Y170700D01*
X249100Y172300D02*
X271600Y149800D01*
X169946Y172300D02*
X249100D01*
X152252Y154606D02*
X169946Y172300D01*
X251050Y173900D02*
X275150Y149800D01*
X141546Y173900D02*
X251050D01*
X132252Y164606D02*
X141546Y173900D01*
X253000Y175500D02*
X264000Y164500D01*
X94012Y175500D02*
X253000D01*
X73118Y154606D02*
X94012Y175500D01*
X254900Y177100D02*
X265500Y166500D01*
X65612Y177100D02*
X254900D01*
X53118Y164606D02*
X65612Y177100D01*
X259194Y154606D02*
X268100Y145700D01*
X231386Y154606D02*
X259194D01*
X273900Y166500D02*
X280600Y159800D01*
X265500Y166500D02*
X273900D01*
X283465Y80905D02*
X316094D01*
X326500Y70500D01*
X283465Y122244D02*
X321750D01*
X283465Y122244D02*
X283465Y122244D01*
X326500Y70500D02*
X335250D01*
X321750Y105709D02*
X321750Y105709D01*
X283465Y105709D02*
X321750D01*
X322000Y128000D02*
X322244Y127756D01*
X283374Y50500D02*
X283465Y50591D01*
X53000Y105551D02*
X53118Y105669D01*
X53000Y75551D02*
X53118Y75433D01*
D26*
X225000Y95551D02*
Y148221D01*
X231386Y154606D01*
X225000Y42882D02*
Y95551D01*
X231386D01*
X225000Y42882D02*
X231386Y36496D01*
X146000Y95551D02*
Y148354D01*
Y42748D02*
Y95551D01*
X152252D01*
X146000Y42748D02*
X152252Y36496D01*
X146000Y148354D02*
X152252Y154606D01*
X66500Y95551D02*
Y147988D01*
Y43114D02*
Y95551D01*
X73000D01*
X66500Y43114D02*
X73118Y36496D01*
X66500Y147988D02*
X73118Y154606D01*
X53118Y105669D02*
Y134606D01*
Y164606D01*
X53000Y75551D02*
Y105551D01*
X53118Y46496D02*
Y75433D01*
Y16496D02*
Y46496D01*
X132252Y134606D02*
Y164606D01*
Y105551D02*
Y134606D01*
Y75551D02*
Y105551D01*
Y46496D02*
Y75551D01*
Y16496D02*
Y46496D01*
X211386Y134606D02*
Y164606D01*
Y105551D02*
Y134606D01*
Y75551D02*
Y105551D01*
Y46496D02*
Y75551D01*
Y16496D02*
Y46496D01*
D27*
X300600Y173000D02*
X300700D01*
D28*
X21181Y95748D02*
D03*
Y61732D02*
D03*
D29*
X4724Y95748D02*
D03*
Y61732D02*
D03*
D30*
X309439Y160626D02*
D03*
X292468Y171939D02*
D03*
X298125Y177596D02*
D03*
D31*
X191386Y134606D02*
D03*
X211386Y164606D02*
D03*
X191386D02*
D03*
X211386Y134606D02*
D03*
Y75551D02*
D03*
X191386Y105551D02*
D03*
X211386D02*
D03*
X191386Y75551D02*
D03*
X211386Y16496D02*
D03*
X191386Y46496D02*
D03*
X211386D02*
D03*
X191386Y16496D02*
D03*
X132252Y134606D02*
D03*
X112252Y164606D02*
D03*
X132252D02*
D03*
X112252Y134606D02*
D03*
X132252Y75551D02*
D03*
X112252Y105551D02*
D03*
X132252D02*
D03*
X112252Y75551D02*
D03*
X132252Y16496D02*
D03*
X112252Y46496D02*
D03*
X132252D02*
D03*
X112252Y16496D02*
D03*
X53118Y134606D02*
D03*
X33118Y164606D02*
D03*
X53118D02*
D03*
X33118Y134606D02*
D03*
X53000Y75551D02*
D03*
X33000Y105551D02*
D03*
X53000D02*
D03*
X33000Y75551D02*
D03*
X53118Y16496D02*
D03*
X33118Y46496D02*
D03*
X53118D02*
D03*
X33118Y16496D02*
D03*
D32*
X231386Y134606D02*
D03*
Y154606D02*
D03*
Y144606D02*
D03*
Y164606D02*
D03*
Y105551D02*
D03*
Y85551D02*
D03*
Y95551D02*
D03*
Y75551D02*
D03*
Y46496D02*
D03*
Y26496D02*
D03*
Y36496D02*
D03*
Y16496D02*
D03*
X152252Y164606D02*
D03*
Y144606D02*
D03*
Y154606D02*
D03*
Y134606D02*
D03*
Y105551D02*
D03*
Y85551D02*
D03*
Y95551D02*
D03*
Y75551D02*
D03*
Y46496D02*
D03*
Y26496D02*
D03*
Y36496D02*
D03*
Y16496D02*
D03*
X73118Y164606D02*
D03*
Y144606D02*
D03*
Y154606D02*
D03*
Y134606D02*
D03*
X73000Y105551D02*
D03*
Y85551D02*
D03*
Y95551D02*
D03*
Y75551D02*
D03*
X73118Y46496D02*
D03*
Y26496D02*
D03*
Y36496D02*
D03*
Y16496D02*
D03*
D33*
X247800Y52900D02*
D03*
X248600Y94800D02*
D03*
X244100Y100100D02*
D03*
D34*
X297976Y72324D02*
D03*
X303000Y72500D02*
D03*
X291600Y147400D02*
D03*
X301737Y131100D02*
D03*
X305100Y140700D02*
D03*
X280100Y133700D02*
D03*
X251500Y126100D02*
D03*
X281400Y155900D02*
D03*
X257700Y150000D02*
D03*
X275150Y149800D02*
D03*
X271600D02*
D03*
X268100Y145700D02*
D03*
X297849Y162848D02*
D03*
X260000Y145900D02*
D03*
X297400Y158700D02*
D03*
X292500Y92000D02*
D03*
X280600Y159800D02*
D03*
X267800Y149800D02*
D03*
X273200Y132900D02*
D03*
X335500Y137500D02*
D03*
X277665Y108465D02*
D03*
X278232Y116732D02*
D03*
X30900Y86651D02*
D03*
X20000Y77756D02*
D03*
X259500Y111000D02*
D03*
X269000Y118500D02*
D03*
X263500Y133500D02*
D03*
X274000Y91035D02*
D03*
X296700Y113800D02*
D03*
X322600Y127900D02*
D03*
Y111221D02*
D03*
X298000Y63300D02*
D03*
X6700Y146500D02*
D03*
X335500Y111221D02*
D03*
X305600Y108476D02*
D03*
X335500Y122244D02*
D03*
X325400Y145700D02*
D03*
X318415Y151100D02*
D03*
X306700Y173700D02*
D03*
X322600Y85500D02*
D03*
Y90500D02*
D03*
Y80500D02*
D03*
X31600Y63800D02*
D03*
X31179Y93700D02*
D03*
X293000Y166000D02*
D03*
X289500Y169500D02*
D03*
X25071Y117878D02*
D03*
X335500Y132500D02*
D03*
X261500Y176000D02*
D03*
X323000Y142000D02*
D03*
X331000Y146000D02*
D03*
X322600Y56500D02*
D03*
Y51500D02*
D03*
X335250D02*
D03*
Y56500D02*
D03*
Y61654D02*
D03*
X322600D02*
D03*
X335500Y105709D02*
D03*
Y95500D02*
D03*
Y90500D02*
D03*
X322600Y70500D02*
D03*
X335250D02*
D03*
Y80500D02*
D03*
X322600Y100500D02*
D03*
Y105709D02*
D03*
Y122244D02*
D03*
X335500Y127750D02*
D03*
X256500Y87000D02*
D03*
X266500Y102000D02*
D03*
X247500Y125500D02*
D03*
X307000Y27500D02*
D03*
X264000D02*
D03*
M02*
