M48
;Layer_Color=9474304
;FILE_FORMAT=2:5
INCH,TZ
;TYPE=PLATED
T1F00S00C0.01181
T3F00S00C0.02559
T4F00S00C0.02800
T5F00S00C0.02953
T6F00S00C0.03543
T7F00S00C0.04331
T8F00S00C0.12598
;TYPE=NON_PLATED
T9F00S00C0.03500
%
T01
X264000Y27500
X307000
X322600Y51500
X335250
Y56500
Y61654
Y70500
Y80500
X335500Y90500
Y95500
Y105709
Y111221
Y122244
Y127750
Y132500
Y137500
X331000Y146000
X325400Y145700
X323000Y142000
X318415Y151100
X305100Y140700
X301737Y131100
X296700Y113800
X305600Y108476
X322600Y111221
Y105709
Y100500
Y90500
Y85500
Y80500
Y70500
Y61654
Y56500
X298000Y63300
X297976Y72324
X303000Y72500
X292500Y92000
X274000Y91035
X266500Y102000
X259500Y111000
X269000Y118500
X278232Y116732
X277665Y108465
X280100Y133700
X273200Y132900
X263500Y133500
X260000Y145900
X257700Y150000
X267800Y149800
X271600
X275150
X268100Y145700
X281400Y155900
X280600Y159800
X297400Y158700
X297849Y162848
X293000Y166000
X289500Y169500
X306700Y173700
X291600Y147400
X322600Y127900
Y122244
X251500Y126100
X247500Y125500
X256500Y87000
X261500Y176000
X6700Y146500
X25071Y117878
X31179Y93700
X30900Y86651
X20000Y77756
X31600Y63800
T03
X19094Y67362
Y90118
T04
X247800Y52900
X248600Y94800
X244100Y100100
T05
X73118Y16496
Y26496
Y36496
Y46496
X152252
Y36496
Y26496
Y16496
X231386
Y26496
Y36496
Y46496
Y75551
Y85551
Y95551
Y105551
Y134606
Y144606
Y154606
Y164606
X152252
Y154606
Y144606
Y134606
Y105551
Y95551
Y85551
Y75551
X73000
Y85551
Y95551
Y105551
X73118Y134606
Y144606
Y154606
Y164606
T06
X6300Y32695
Y44506
X33118Y46496
X53118
Y16496
X33118
X112252
X132252
Y46496
X112252
X191386
X211386
Y16496
X191386
Y75551
X211386
Y105551
X191386
Y134606
X211386
Y164606
X191386
X132252
X112252
Y134606
X132252
Y105551
X112252
Y75551
X132252
X53000
X33000
Y105551
X53000
X53118Y134606
X33118
Y164606
X53118
T07
X23098Y46496
X102232
X83138Y16496
X162272
X181366Y46496
X241406Y16496
Y75551
Y134606
X162272
X181366Y105551
X162272Y75551
X83020
X102232Y105551
X83138Y134606
X102232Y164606
X181366
X23098
X22980Y105551
T08
X9843Y9843
X328740
Y171260
X9843
T09
X292468Y171939
X298125Y177596
X309439Y160626
M30
