0
SECTION
2
HEADER
9
$INSUNITS
70
4
9
$ACADVER
1
AC1014
9
$HANDSEED
5
FFFF
0
ENDSEC
0
SECTION
2
TABLES
0
TABLE
2
VPORT
5
8
100
AcDbSymbolTable
0
ENDTAB
0
TABLE
2
LTYPE
5
5
100
AcDbSymbolTable
0
LTYPE
5
14
100
AcDbSymbolTableRecord
100
AcDbLinetypeTableRecord
2
BYBLOCK
70
0
0
LTYPE
5
15
100
AcDbSymbolTableRecord
100
AcDbLinetypeTableRecord
2
BYLAYER
70
0
0
ENDTAB
0
TABLE
2
LAYER
5
2
100
AcDbSymbolTable
70
2
0
LAYER
5
50
100
AcDbSymbolTableRecord
100
AcDbLayerTableRecord
2
0
70
0
6
CONTINUOUS
0
ENDTAB
0
TABLE
2
STYLE
5
3
100
AcDbSymbolTable
70
1
0
STYLE
5
11
100
AcDbSymbolTableRecord
100
AcDbTextStyleTableRecord
2
STANDARD
70
0
0
ENDTAB
0
TABLE
2
VIEW
5
6
100
AcDbSymbolTable
70
0
0
ENDTAB
0
TABLE
2
UCS
5
7
100
AcDbSymbolTable
70
0
0
ENDTAB
0
TABLE
2
APPID
5
9
100
AcDbSymbolTable
70
2
0
APPID
5
12
100
AcDbSymbolTableRecord
100
AcDbRegAppTableRecord
2
ACAD
70
0
0
ENDTAB
0
TABLE
2
DIMSTYLE
5
A
100
AcDbSymbolTable
70
1
0
ENDTAB
0
TABLE
2
BLOCK_RECORD
5
1
100
AcDbSymbolTable
70
1
0
BLOCK_RECORD
5
1F
100
AcDbSymbolTableRecord
100
AcDbBlockTableRecord
2
*MODEL_SPACE
0
BLOCK_RECORD
5
1B
100
AcDbSymbolTableRecord
100
AcDbBlockTableRecord
2
*PAPER_SPACE
0
ENDTAB
0
ENDSEC
0
SECTION
2
BLOCKS
0
BLOCK
5
20
100
AcDbEntity
100
AcDbBlockBegin
2
*MODEL_SPACE
0
ENDBLK
5
21
100
AcDbEntity
100
AcDbBlockEnd
0
BLOCK
5
1C
100
AcDbEntity
100
AcDbBlockBegin
2
*PAPER_SPACE
0
ENDBLK
5
1D
100
AcDbEntity
100
AcDbBlockEnd
0
ENDSEC
0
SECTION
2
ENTITIES
0
LWPOLYLINE
5
100
100
AcDbEntity
8
0
100
AcDbPolyline
90
4
70
1
43
0.0
10
0
20
0
10
80
20
0
10
80
20
-46.000000000000007
10
0
20
-46.000000000000007
0
CIRCLE
5
101
100
AcDbEntity
8
0
100
AcDbCircle
10
-2.50000008
20
-2.50000008
30
-3.4645996072057983e-08
40
1.5999993400000001
210
0
220
0
230
-1
0
CIRCLE
5
102
100
AcDbEntity
8
0
100
AcDbCircle
10
-8.4119999399999994
20
-4.1899992399999997
30
-3.4645996072057983e-08
40
0.44999910000000004
210
0
220
0
230
-1
0
CIRCLE
5
103
100
AcDbEntity
8
0
100
AcDbCircle
10
-13.491999940000001
20
-4.1899992399999997
30
-3.4645996072057983e-08
40
0.44999910000000004
210
0
220
0
230
-1
0
CIRCLE
5
104
100
AcDbEntity
8
0
100
AcDbCircle
10
-8.4119999399999994
20
-11.80999924
30
-3.4645996072057983e-08
40
0.44999910000000004
210
0
220
0
230
-1
0
CIRCLE
5
105
100
AcDbEntity
8
0
100
AcDbCircle
10
-18.571999940000001
20
-4.1899992399999997
30
-3.4645996072057983e-08
40
0.37500052000000006
210
0
220
0
230
-1
0
CIRCLE
5
106
100
AcDbEntity
8
0
100
AcDbCircle
10
-5.8669986800000009
20
-11.80999924
30
-3.4645996072057983e-08
40
0.54999889999999996
210
0
220
0
230
-1
0
CIRCLE
5
107
100
AcDbEntity
8
0
100
AcDbCircle
10
-8.3820000000000014
20
-19.189999719999999
30
-3.4645996072057983e-08
40
0.44999910000000004
210
0
220
0
230
-1
0
CIRCLE
5
108
100
AcDbEntity
8
0
100
AcDbCircle
10
-13.462
20
-19.189999719999999
30
-3.4645996072057983e-08
40
0.44999910000000004
210
0
220
0
230
-1
0
CIRCLE
5
109
100
AcDbEntity
8
0
100
AcDbCircle
10
-13.491999940000001
20
-11.80999924
30
-3.4645996072057983e-08
40
0.44999910000000004
210
0
220
0
230
-1
0
CIRCLE
5
110
100
AcDbEntity
8
0
100
AcDbCircle
10
-18.542000000000002
20
-21.729999719999999
30
-3.4645996072057983e-08
40
0.37500052000000006
210
0
220
0
230
-1
0
CIRCLE
5
111
100
AcDbEntity
8
0
100
AcDbCircle
10
-18.542000000000002
20
-19.189999719999999
30
-3.4645996072057983e-08
40
0.37500052000000006
210
0
220
0
230
-1
0
CIRCLE
5
112
100
AcDbEntity
8
0
100
AcDbCircle
10
-18.571999940000001
20
-6.7299992399999997
30
-3.4645996072057983e-08
40
0.37500052000000006
210
0
220
0
230
-1
0
CIRCLE
5
113
100
AcDbEntity
8
0
100
AcDbCircle
10
-18.571999940000001
20
-11.80999924
30
-3.4645996072057983e-08
40
0.37500052000000006
210
0
220
0
230
-1
0
CIRCLE
5
114
100
AcDbEntity
8
0
100
AcDbCircle
10
-18.571999940000001
20
-9.2699992400000006
30
-3.4645996072057983e-08
40
0.37500052000000006
210
0
220
0
230
-1
0
CIRCLE
5
115
100
AcDbEntity
8
0
100
AcDbCircle
10
-21.117001200000001
20
-4.1899992399999997
30
-3.4645996072057983e-08
40
0.54999889999999996
210
0
220
0
230
-1
0
CIRCLE
5
116
100
AcDbEntity
8
0
100
AcDbCircle
10
-28.51200038
20
-4.1899992399999997
30
-3.4645996072057983e-08
40
0.44999910000000004
210
0
220
0
230
-1
0
CIRCLE
5
117
100
AcDbEntity
8
0
100
AcDbCircle
10
-33.592000380000002
20
-4.1899992399999997
30
-3.4645996072057983e-08
40
0.44999910000000004
210
0
220
0
230
-1
0
CIRCLE
5
118
100
AcDbEntity
8
0
100
AcDbCircle
10
-25.966999120000001
20
-11.80999924
30
-3.4645996072057983e-08
40
0.54999889999999996
210
0
220
0
230
-1
0
CIRCLE
5
119
100
AcDbEntity
8
0
100
AcDbCircle
10
-21.087001260000001
20
-19.189999719999999
30
-3.4645996072057983e-08
40
0.54999889999999996
210
0
220
0
230
-1
0
CIRCLE
5
120
100
AcDbEntity
8
0
100
AcDbCircle
10
-28.51200038
20
-11.80999924
30
-3.4645996072057983e-08
40
0.44999910000000004
210
0
220
0
230
-1
0
CIRCLE
5
121
100
AcDbEntity
8
0
100
AcDbCircle
10
-33.592000380000002
20
-11.80999924
30
-3.4645996072057983e-08
40
0.44999910000000004
210
0
220
0
230
-1
0
CIRCLE
5
122
100
AcDbEntity
8
0
100
AcDbCircle
10
-28.51200038
20
-19.189999719999999
30
-3.4645996072057983e-08
40
0.44999910000000004
210
0
220
0
230
-1
0
CIRCLE
5
123
100
AcDbEntity
8
0
100
AcDbCircle
10
-33.592000380000002
20
-19.189999719999999
30
-3.4645996072057983e-08
40
0.44999910000000004
210
0
220
0
230
-1
0
CIRCLE
5
124
100
AcDbEntity
8
0
100
AcDbCircle
10
-5.8369987400000003
20
-26.809999720000004
30
-3.4645996072057983e-08
40
0.54999889999999996
210
0
220
0
230
-1
0
CIRCLE
5
125
100
AcDbEntity
8
0
100
AcDbCircle
10
-8.3820000000000014
20
-26.809999720000004
30
-3.4645996072057983e-08
40
0.44999910000000004
210
0
220
0
230
-1
0
CIRCLE
5
126
100
AcDbEntity
8
0
100
AcDbCircle
10
-8.4119999399999994
20
-34.1900002
30
-3.4645996072057983e-08
40
0.44999910000000004
210
0
220
0
230
-1
0
CIRCLE
5
127
100
AcDbEntity
8
0
100
AcDbCircle
10
-18.542000000000002
20
-24.269999720000005
30
-3.4645996072057983e-08
40
0.37500052000000006
210
0
220
0
230
-1
0
CIRCLE
5
128
100
AcDbEntity
8
0
100
AcDbCircle
10
-13.462
20
-26.809999720000004
30
-3.4645996072057983e-08
40
0.44999910000000004
210
0
220
0
230
-1
0
CIRCLE
5
129
100
AcDbEntity
8
0
100
AcDbCircle
10
-18.542000000000002
20
-26.809999720000004
30
-3.4645996072057983e-08
40
0.37500052000000006
210
0
220
0
230
-1
0
CIRCLE
5
130
100
AcDbEntity
8
0
100
AcDbCircle
10
-5.8669986800000009
20
-41.810000199999998
30
-3.4645996072057983e-08
40
0.54999889999999996
210
0
220
0
230
-1
0
CIRCLE
5
131
100
AcDbEntity
8
0
100
AcDbCircle
10
-2.50000008
20
-43.499999359999997
30
-3.4645996072057983e-08
40
1.5999993400000001
210
0
220
0
230
-1
0
CIRCLE
5
132
100
AcDbEntity
8
0
100
AcDbCircle
10
-8.4119999399999994
20
-41.810000199999998
30
-3.4645996072057983e-08
40
0.44999910000000004
210
0
220
0
230
-1
0
CIRCLE
5
133
100
AcDbEntity
8
0
100
AcDbCircle
10
-13.491999940000001
20
-34.1900002
30
-3.4645996072057983e-08
40
0.44999910000000004
210
0
220
0
230
-1
0
CIRCLE
5
134
100
AcDbEntity
8
0
100
AcDbCircle
10
-13.491999940000001
20
-41.810000199999998
30
-3.4645996072057983e-08
40
0.44999910000000004
210
0
220
0
230
-1
0
CIRCLE
5
135
100
AcDbEntity
8
0
100
AcDbCircle
10
-18.571999940000001
20
-36.730000199999999
30
-3.4645996072057983e-08
40
0.37500052000000006
210
0
220
0
230
-1
0
CIRCLE
5
136
100
AcDbEntity
8
0
100
AcDbCircle
10
-25.966999120000001
20
-26.809999720000004
30
-3.4645996072057983e-08
40
0.54999889999999996
210
0
220
0
230
-1
0
CIRCLE
5
137
100
AcDbEntity
8
0
100
AcDbCircle
10
-18.571999940000001
20
-34.1900002
30
-3.4645996072057983e-08
40
0.37500052000000006
210
0
220
0
230
-1
0
CIRCLE
5
138
100
AcDbEntity
8
0
100
AcDbCircle
10
-28.51200038
20
-26.809999720000004
30
-3.4645996072057983e-08
40
0.44999910000000004
210
0
220
0
230
-1
0
CIRCLE
5
139
100
AcDbEntity
8
0
100
AcDbCircle
10
-33.592000380000002
20
-26.809999720000004
30
-3.4645996072057983e-08
40
0.44999910000000004
210
0
220
0
230
-1
0
CIRCLE
5
140
100
AcDbEntity
8
0
100
AcDbCircle
10
-28.51200038
20
-34.1900002
30
-3.4645996072057983e-08
40
0.44999910000000004
210
0
220
0
230
-1
0
CIRCLE
5
141
100
AcDbEntity
8
0
100
AcDbCircle
10
-33.592000380000002
20
-34.1900002
30
-3.4645996072057983e-08
40
0.44999910000000004
210
0
220
0
230
-1
0
CIRCLE
5
142
100
AcDbEntity
8
0
100
AcDbCircle
10
-21.117001200000001
20
-34.1900002
30
-3.4645996072057983e-08
40
0.54999889999999996
210
0
220
0
230
-1
0
CIRCLE
5
143
100
AcDbEntity
8
0
100
AcDbCircle
10
-18.571999940000001
20
-41.810000199999998
30
-3.4645996072057983e-08
40
0.37500052000000006
210
0
220
0
230
-1
0
CIRCLE
5
144
100
AcDbEntity
8
0
100
AcDbCircle
10
-18.571999940000001
20
-39.270000199999998
30
-3.4645996072057983e-08
40
0.37500052000000006
210
0
220
0
230
-1
0
CIRCLE
5
145
100
AcDbEntity
8
0
100
AcDbCircle
10
-25.966999120000001
20
-41.810000199999998
30
-3.4645996072057983e-08
40
0.54999889999999996
210
0
220
0
230
-1
0
CIRCLE
5
146
100
AcDbEntity
8
0
100
AcDbCircle
10
-28.51200038
20
-41.810000199999998
30
-3.4645996072057983e-08
40
0.44999910000000004
210
0
220
0
230
-1
0
CIRCLE
5
147
100
AcDbEntity
8
0
100
AcDbCircle
10
-33.592000380000002
20
-41.810000199999998
30
-3.4645996072057983e-08
40
0.44999910000000004
210
0
220
0
230
-1
0
CIRCLE
5
148
100
AcDbEntity
8
0
100
AcDbCircle
10
-38.67200038
20
-4.1899992399999997
30
-3.4645996072057983e-08
40
0.37500052000000006
210
0
220
0
230
-1
0
CIRCLE
5
149
100
AcDbEntity
8
0
100
AcDbCircle
10
-38.67200038
20
-6.7299992399999997
30
-3.4645996072057983e-08
40
0.37500052000000006
210
0
220
0
230
-1
0
CIRCLE
5
150
100
AcDbEntity
8
0
100
AcDbCircle
10
-41.217001639999999
20
-4.1899992399999997
30
-3.4645996072057983e-08
40
0.54999889999999996
210
0
220
0
230
-1
0
CIRCLE
5
151
100
AcDbEntity
8
0
100
AcDbCircle
10
-38.67200038
20
-9.2699992400000006
30
-3.4645996072057983e-08
40
0.37500052000000006
210
0
220
0
230
-1
0
CIRCLE
5
152
100
AcDbEntity
8
0
100
AcDbCircle
10
-48.612000819999999
20
-4.1899992399999997
30
-3.4645996072057983e-08
40
0.44999910000000004
210
0
220
0
230
-1
0
CIRCLE
5
153
100
AcDbEntity
8
0
100
AcDbCircle
10
-38.67200038
20
-11.80999924
30
-3.4645996072057983e-08
40
0.37500052000000006
210
0
220
0
230
-1
0
CIRCLE
5
154
100
AcDbEntity
8
0
100
AcDbCircle
10
-38.67200038
20
-19.189999719999999
30
-3.4645996072057983e-08
40
0.37500052000000006
210
0
220
0
230
-1
0
CIRCLE
5
155
100
AcDbEntity
8
0
100
AcDbCircle
10
-41.217001639999999
20
-19.189999719999999
30
-3.4645996072057983e-08
40
0.54999889999999996
210
0
220
0
230
-1
0
CIRCLE
5
156
100
AcDbEntity
8
0
100
AcDbCircle
10
-46.066999559999999
20
-11.80999924
30
-3.4645996072057983e-08
40
0.54999889999999996
210
0
220
0
230
-1
0
CIRCLE
5
157
100
AcDbEntity
8
0
100
AcDbCircle
10
-48.612000819999999
20
-19.189999719999999
30
-3.4645996072057983e-08
40
0.44999910000000004
210
0
220
0
230
-1
0
CIRCLE
5
158
100
AcDbEntity
8
0
100
AcDbCircle
10
-48.612000819999999
20
-11.80999924
30
-3.4645996072057983e-08
40
0.44999910000000004
210
0
220
0
230
-1
0
CIRCLE
5
159
100
AcDbEntity
8
0
100
AcDbCircle
10
-53.692000819999997
20
-4.1899992399999997
30
-3.4645996072057983e-08
40
0.44999910000000004
210
0
220
0
230
-1
0
CIRCLE
5
160
100
AcDbEntity
8
0
100
AcDbCircle
10
-58.772000820000009
20
-9.2699992400000006
30
-3.4645996072057983e-08
40
0.37500052000000006
210
0
220
0
230
-1
0
CIRCLE
5
161
100
AcDbEntity
8
0
100
AcDbCircle
10
-58.772000820000009
20
-4.1899992399999997
30
-3.4645996072057983e-08
40
0.37500052000000006
210
0
220
0
230
-1
0
CIRCLE
5
162
100
AcDbEntity
8
0
100
AcDbCircle
10
-77.499999939999995
20
-2.50000008
30
-3.4645996072057983e-08
40
1.5999993400000001
210
0
220
0
230
-1
0
CIRCLE
5
163
100
AcDbEntity
8
0
100
AcDbCircle
10
-58.772000820000009
20
-6.7299992399999997
30
-3.4645996072057983e-08
40
0.37500052000000006
210
0
220
0
230
-1
0
CIRCLE
5
164
100
AcDbEntity
8
0
100
AcDbCircle
10
-61.317002080000009
20
-4.1899992399999997
30
-3.4645996072057983e-08
40
0.54999889999999996
210
0
220
0
230
-1
0
CIRCLE
5
165
100
AcDbEntity
8
0
100
AcDbCircle
10
-53.692000819999997
20
-11.80999924
30
-3.4645996072057983e-08
40
0.44999910000000004
210
0
220
0
230
-1
0
CIRCLE
5
166
100
AcDbEntity
8
0
100
AcDbCircle
10
-53.692000819999997
20
-19.189999719999999
30
-3.4645996072057983e-08
40
0.44999910000000004
210
0
220
0
230
-1
0
CIRCLE
5
167
100
AcDbEntity
8
0
100
AcDbCircle
10
-58.772000820000009
20
-21.729999719999999
30
-3.4645996072057983e-08
40
0.37500052000000006
210
0
220
0
230
-1
0
CIRCLE
5
168
100
AcDbEntity
8
0
100
AcDbCircle
10
-58.772000820000009
20
-11.80999924
30
-3.4645996072057983e-08
40
0.37500052000000006
210
0
220
0
230
-1
0
CIRCLE
5
169
100
AcDbEntity
8
0
100
AcDbCircle
10
-58.772000820000009
20
-19.189999719999999
30
-3.4645996072057983e-08
40
0.37500052000000006
210
0
220
0
230
-1
0
CIRCLE
5
170
100
AcDbEntity
8
0
100
AcDbCircle
10
-61.317002080000009
20
-19.189999719999999
30
-3.4645996072057983e-08
40
0.54999889999999996
210
0
220
0
230
-1
0
CIRCLE
5
171
100
AcDbEntity
8
0
100
AcDbCircle
10
-38.67200038
20
-21.729999719999999
30
-3.4645996072057983e-08
40
0.37500052000000006
210
0
220
0
230
-1
0
CIRCLE
5
172
100
AcDbEntity
8
0
100
AcDbCircle
10
-38.67200038
20
-26.809999720000004
30
-3.4645996072057983e-08
40
0.37500052000000006
210
0
220
0
230
-1
0
CIRCLE
5
173
100
AcDbEntity
8
0
100
AcDbCircle
10
-38.67200038
20
-24.269999720000005
30
-3.4645996072057983e-08
40
0.37500052000000006
210
0
220
0
230
-1
0
CIRCLE
5
174
100
AcDbEntity
8
0
100
AcDbCircle
10
-46.066999559999999
20
-26.809999720000004
30
-3.4645996072057983e-08
40
0.54999889999999996
210
0
220
0
230
-1
0
CIRCLE
5
175
100
AcDbEntity
8
0
100
AcDbCircle
10
-38.67200038
20
-34.1900002
30
-3.4645996072057983e-08
40
0.37500052000000006
210
0
220
0
230
-1
0
CIRCLE
5
176
100
AcDbEntity
8
0
100
AcDbCircle
10
-48.612000819999999
20
-26.809999720000004
30
-3.4645996072057983e-08
40
0.44999910000000004
210
0
220
0
230
-1
0
CIRCLE
5
177
100
AcDbEntity
8
0
100
AcDbCircle
10
-38.67200038
20
-36.730000199999999
30
-3.4645996072057983e-08
40
0.37500052000000006
210
0
220
0
230
-1
0
CIRCLE
5
178
100
AcDbEntity
8
0
100
AcDbCircle
10
-38.67200038
20
-41.810000199999998
30
-3.4645996072057983e-08
40
0.37500052000000006
210
0
220
0
230
-1
0
CIRCLE
5
179
100
AcDbEntity
8
0
100
AcDbCircle
10
-38.67200038
20
-39.270000199999998
30
-3.4645996072057983e-08
40
0.37500052000000006
210
0
220
0
230
-1
0
CIRCLE
5
180
100
AcDbEntity
8
0
100
AcDbCircle
10
-41.217001639999999
20
-34.1900002
30
-3.4645996072057983e-08
40
0.54999889999999996
210
0
220
0
230
-1
0
CIRCLE
5
181
100
AcDbEntity
8
0
100
AcDbCircle
10
-46.066999559999999
20
-41.810000199999998
30
-3.4645996072057983e-08
40
0.54999889999999996
210
0
220
0
230
-1
0
CIRCLE
5
182
100
AcDbEntity
8
0
100
AcDbCircle
10
-48.612000819999999
20
-34.1900002
30
-3.4645996072057983e-08
40
0.44999910000000004
210
0
220
0
230
-1
0
CIRCLE
5
183
100
AcDbEntity
8
0
100
AcDbCircle
10
-58.772000820000009
20
-24.269999720000005
30
-3.4645996072057983e-08
40
0.37500052000000006
210
0
220
0
230
-1
0
CIRCLE
5
184
100
AcDbEntity
8
0
100
AcDbCircle
10
-53.692000819999997
20
-34.1900002
30
-3.4645996072057983e-08
40
0.44999910000000004
210
0
220
0
230
-1
0
CIRCLE
5
185
100
AcDbEntity
8
0
100
AcDbCircle
10
-53.692000819999997
20
-26.809999720000004
30
-3.4645996072057983e-08
40
0.44999910000000004
210
0
220
0
230
-1
0
CIRCLE
5
186
100
AcDbEntity
8
0
100
AcDbCircle
10
-58.772000820000009
20
-26.809999720000004
30
-3.4645996072057983e-08
40
0.37500052000000006
210
0
220
0
230
-1
0
CIRCLE
5
187
100
AcDbEntity
8
0
100
AcDbCircle
10
-58.772000820000009
20
-34.1900002
30
-3.4645996072057983e-08
40
0.37500052000000006
210
0
220
0
230
-1
0
CIRCLE
5
188
100
AcDbEntity
8
0
100
AcDbCircle
10
-61.317002080000009
20
-34.1900002
30
-3.4645996072057983e-08
40
0.54999889999999996
210
0
220
0
230
-1
0
CIRCLE
5
189
100
AcDbEntity
8
0
100
AcDbCircle
10
-58.772000820000009
20
-39.270000199999998
30
-3.4645996072057983e-08
40
0.37500052000000006
210
0
220
0
230
-1
0
CIRCLE
5
190
100
AcDbEntity
8
0
100
AcDbCircle
10
-48.612000819999999
20
-41.810000199999998
30
-3.4645996072057983e-08
40
0.44999910000000004
210
0
220
0
230
-1
0
CIRCLE
5
191
100
AcDbEntity
8
0
100
AcDbCircle
10
-53.692000819999997
20
-41.810000199999998
30
-3.4645996072057983e-08
40
0.44999910000000004
210
0
220
0
230
-1
0
CIRCLE
5
192
100
AcDbEntity
8
0
100
AcDbCircle
10
-58.772000820000009
20
-36.730000199999999
30
-3.4645996072057983e-08
40
0.37500052000000006
210
0
220
0
230
-1
0
CIRCLE
5
193
100
AcDbEntity
8
0
100
AcDbCircle
10
-58.772000820000009
20
-41.810000199999998
30
-3.4645996072057983e-08
40
0.37500052000000006
210
0
220
0
230
-1
0
CIRCLE
5
194
100
AcDbEntity
8
0
100
AcDbCircle
10
-77.499999939999995
20
-43.499999359999997
30
-3.4645996072057983e-08
40
1.5999993400000001
210
0
220
0
230
-1
0
ENDSEC
0
SECTION
2
OBJECTS
0
DICTIONARY
5
C
100
AcDbDictionary
3
ACAD_GROUP
350
D
3
ACAD_MLINESTYLE
350
17
0
DICTIONARY
5
D
100
AcDbDictionary
0
DICTIONARY
5
1A
330
C
100
AcDbDictionary
0
DICTIONARY
5
17
100
AcDbDictionary
0
ENDSEC
0
EOF
